<?xml version="1.0" encoding="UTF-8"?>
<svg id="Layer_2" data-name="Layer 2" xmlns="http://www.w3.org/2000/svg" xmlns:xlink="http://www.w3.org/1999/xlink" viewBox="0 0 48 48">
  <defs>
    <style>
      .cls-1 {
        fill: #399bc8;
      }

      .cls-2 {
        clip-path: url(#clippath-2);
      }

      .cls-3 {
        clip-path: url(#clippath-1);
      }

      .cls-4 {
        clip-path: url(#clippath);
      }

      .cls-5 {
        fill: #8dc4d3;
      }

      .cls-6 {
        fill: none;
      }

      .cls-7 {
        fill: #fff;
        stroke: #61afd3;
        stroke-miterlimit: 10;
      }

      .cls-8 {
        fill: #61afd3;
      }
    </style>
    <clipPath id="clippath">
      <path class="cls-6" d="m45.28,27.64c-3.31,7.88-5.8,9.96-10.81,14.29-.64.56-1.44,1.08-2.37,1.46-2.31-.73-7.67-3.72-10.34-5.8-2.72-2.14-8.73-7.26-8.82-8.08-.12-.82,2.78-5.01,3.69-7.23.56-1.41.53-8.96.82-9.84.35-.94,10.4.62,14.67,1.67,4.13,1,14.15,1.17,14.7,1.2.15,3.1.06,8.55-1.55,12.33Z"/>
    </clipPath>
    <clipPath id="clippath-1">
      <path class="cls-6" d="m45.28,27.64c-3.31,7.88-5.8,9.96-10.81,14.29-.64.56-1.44,1.08-2.37,1.46-2.31-.73-7.67-3.72-10.34-5.8-2.72-2.14-8.73-7.26-8.82-8.08-.12-.82,2.78-5.01,3.69-7.23.56-1.41.53-8.96.82-9.84.35-.94,10.4.62,14.67,1.67,4.13,1,14.15,1.17,14.7,1.2.15,3.1.06,8.55-1.55,12.33Z"/>
    </clipPath>
    <clipPath id="clippath-2">
      <path class="cls-6" d="m45.28,27.64c-3.31,7.88-5.8,9.96-10.81,14.29-.64.56-1.44,1.08-2.37,1.46-2.31-.73-7.67-3.72-10.34-5.8-2.72-2.14-8.73-7.26-8.82-8.08-.12-.82,2.78-5.01,3.69-7.23.56-1.41.53-8.96.82-9.84.35-.94,10.4.62,14.67,1.67,4.13,1,14.15,1.17,14.7,1.2.15,3.1.06,8.55-1.55,12.33Z"/>
    </clipPath>
  </defs>
  <path class="cls-5" d="m17.8,12.67h0c.7-.76-.85,1.11-.7.91h-.03l-.06-.06-.12-.12-.26-.18-.5-.35c-.35-.26-.67-.5-1.03-.73s-.67-.47-1.03-.7-.67-.47-1.03-.67c-.35-.23-.7-.44-1.03-.64-.35-.21-.7-.41-1.05-.56-.7-.35-1.46-.59-2.23-.79-.38-.12-.79-.18-1.17-.26s-.79-.12-1.17-.12c-.38-.03-.76,0-1.11.03-.35.06-.7.12-1.03.26-.32.12-.56.32-.79.53-.12.12-.21.23-.29.35-.03.03-.06.09-.06.12-.03.03-.03.09-.06.12l-.06.12-.03.06s-.03.06-.03.06c-.26.64-.35,1.41-.32,2.17,0,.38.06.79.12,1.17.06.38.15.79.26,1.17.21.79.5,1.52.79,2.26.15.35.35.73.56,1.08.18.35.38.7.59,1.05s.44.67.67,1.03c.06.09.12.15.18.26l.18.26c.12.15.26.35.38.5.5.67,1.03,1.32,1.52,1.99l1.55,1.96,3.13,3.95-.88.73c-.56-.64-1.08-1.26-1.64-1.93-.56-.64-1.08-1.29-1.61-1.93-.56-.64-1.05-1.29-1.61-1.93-.56-.64-1.05-1.29-1.58-1.96-.12-.15-.26-.35-.38-.5l-.21-.26c-.06-.09-.12-.18-.21-.26-.26-.35-.53-.7-.76-1.08-.23-.35-.47-.76-.67-1.11-.06-.12-.12-.18-.15-.29-.06-.12-.12-.18-.15-.29l-.15-.29c-.06-.12-.12-.21-.12-.29-.35-.79-.67-1.61-.91-2.46-.12-.41-.21-.85-.29-1.29-.03-.12-.03-.23-.06-.35l-.06-.35-.03-.35c0-.12,0-.23-.03-.35-.03-.47,0-.94.06-1.41s.18-.94.35-1.41c0-.03.03-.06.03-.09l.03-.09.09-.18c.03-.06.06-.12.09-.18.03-.06.09-.12.12-.18.12-.23.32-.44.5-.62.35-.38.82-.67,1.29-.85.47-.21.97-.32,1.44-.35.47-.06.94-.06,1.41-.06.47.03.91.09,1.35.15.44.09.88.18,1.29.32.85.23,1.7.56,2.49.97.21.12.41.21.59.32s.38.23.56.35c.35.23.73.47,1.08.7s.7.5,1.03.76.67.53,1.03.79.79.41,1.08.7c.15.12.35.29.5.41l.23.21.12.12v-.06h0c.18-.18-1.38,1.7-.7.91l-.03-.03.73-.88Z"/>
  <path class="cls-5" d="m35.49,9.86h0c-1.41,1.7-.35.5-.7.85h-.03l-.06-.06-.12-.12-.26-.21-.5-.38c-.35-.26-.67-.53-1.03-.79-.35-.26-.67-.5-1.03-.76-.35-.23-.67-.5-1.03-.73s-.7-.47-1.05-.67c-.35-.21-.7-.44-1.05-.62s-.73-.35-1.08-.5c-.38-.15-.76-.29-1.14-.41-.79-.23-1.58-.41-2.37-.47-.38-.03-.79-.06-1.17-.03-.38.03-.76.09-1.08.21-.35.12-.64.26-.91.47-.12.12-.23.23-.35.35-.06.09-.12.12-.12.21-.03.03-.06.09-.06.12l-.03.06s-.03.06-.03.06c-.32.64-.44,1.44-.44,2.2s.12,1.58.32,2.37.47,1.55.79,2.31c.35.76.7,1.46,1.14,2.2.21.35.44.7.67,1.03.06.09.12.15.18.26.06.09.12.15.18.26.12.18.26.35.38.53,1.03,1.35,2.08,2.67,3.13,4.01,1.05,1.32,2.14,2.67,3.19,3.98l-.73.59c-1.11-1.29-2.2-2.61-3.31-3.92-.56-.64-1.08-1.32-1.64-1.96-.56-.67-1.05-1.32-1.61-1.99-.12-.15-.26-.35-.38-.53-.09-.09-.12-.15-.21-.26-.09-.09-.12-.18-.21-.26-.26-.35-.5-.73-.73-1.08-.47-.76-.88-1.52-1.26-2.34-.35-.79-.67-1.64-.88-2.49-.23-.85-.35-1.76-.38-2.67,0-.47.03-.94.12-1.41s.23-.94.44-1.38c.03-.03.03-.06.06-.09l.06-.09c.03-.06.06-.12.12-.15.09-.12.12-.21.23-.32.15-.21.35-.38.56-.56.41-.35.85-.56,1.32-.73.47-.15.94-.23,1.41-.26.47-.03.94-.03,1.38.03.91.09,1.79.29,2.61.56.85.26,1.7.59,2.46,1.03s1.49.91,2.2,1.41,1.41,1.03,2.08,1.55c.35.26.67.56,1.03.79.15.12.35.29.5.41l.23.21.12.12.09.09h0c-.29.38.73-.79-.67.85l-.03-.03.7-.82Z"/>
  <path class="cls-7" d="m46.54,12.94c-.44-.94-3.54-3.13-9.64-4.34-.26-.06-.64-.15-.88-.09-.09.03-.18.12-.32.29-1.9,2.46-9.72,20.33-9.72,20.33l20.56-16.2Z"/>
  <path class="cls-8" d="m35.64,13.08c.44-1.58,1.23-2.55,1.46-2.81.26-.26,7,2.17,7.32,2.69.32.56-8.79.12-8.79.12Z"/>
  <path class="cls-7" d="m15.49,10.01c.76-.97,18.66,2.34,28.24,2.87,1.08.06,2.84.03,2.84.03,0,0,.26.56.32,1.61.12,2.9.15,8.99-1.58,13.12-3.31,7.88-5.8,9.96-10.81,14.29-.64.56-1.41.97-2.37,1.46-.29.15-.79.38-1.17.56-1.26.56-1.82.62-4.28-.56-1.14-.56-2.99-1.46-4.45-2.4s-8.99-7.35-11.54-10.81c-.29-.38-.56-.79-.56-.97s.32-.59.53-.88c1.49-2.05,3.57-4.95,3.98-8.2.47-4.13.32-9.46.85-10.13Z"/>
  <path class="cls-8" d="m45.28,27.64c-3.31,7.88-5.8,9.96-10.81,14.29-.64.56-1.44,1-2.37,1.46-2.31-.73-7.67-3.72-10.34-5.8-2.72-2.14-8.73-7.26-8.82-8.08-.12-.82,2.78-5.01,3.69-7.23.56-1.41.53-8.96.82-9.84.35-.94,10.4.62,14.67,1.67,4.13,1,14.15,1.17,14.7,1.2.15,3.1.06,8.55-1.55,12.33Z"/>
  <g>
    <g class="cls-4">
      <path class="cls-1" d="m22.31,18.47l.38.03.38.03.79.06c.26.03.53.06.79.09.26.03.53.06.79.12.26.06.53.09.79.12l.38.06c.12.03.26.06.38.09.53.09,1.03.18,1.52.32,2.05.44,4.04,1.03,6.03,1.46,1.99.5,3.98.85,6.03,1l.76.06c.26,0,.5.03.76.03.5,0,1.03,0,1.49-.03,1.03-.06,1.99-.15,2.99-.32h0c.59-.12,1.17.32,1.26.91.12.59-.32,1.17-.91,1.26h-.12c-1.05.06-2.17.09-3.22.03-.56-.03-1.05-.09-1.61-.12-.26-.03-.53-.06-.79-.09l-.79-.12c-1.05-.15-2.11-.38-3.1-.64l-.76-.21-.76-.21-.76-.23-.76-.23c-1.99-.64-3.92-1.35-5.89-1.93-.26-.09-.5-.12-.76-.21-.26-.09-.5-.12-.76-.18-.06-.03-.12-.03-.18-.06l-.18-.06-.38-.09c-.12-.03-.26-.06-.38-.09l-.38-.09c-1.03-.18-2.02-.26-3.08-.26h0c-.12,0-.23-.12-.23-.23.03-.15.12-.26.26-.26h0Z"/>
    </g>
    <g class="cls-3">
      <path class="cls-1" d="m21.23,23.45c1,.15,1.96.41,2.93.7l.35.12c.12.03.23.09.35.12.23.09.47.15.7.23s.47.15.7.26l.7.26c1.87.7,3.69,1.55,5.51,2.37.91.41,1.82.82,2.69,1.23.91.38,1.82.79,2.72,1.08.23.09.47.15.67.23l.35.12c.12.03.23.09.35.12.47.12.91.26,1.38.38l.35.09.09.03.09.03.18.03.35.06.35.06.18.03h.18l.35.03h.7c.59.03,1.08.53,1.05,1.11-.03.59-.53,1.08-1.11,1.05h-.12l-.41-.06-.21-.03c-.09,0-.12-.03-.21-.03-.26-.06-.56-.12-.79-.15l-.38-.12-.38-.12-.18-.06-.12-.03-.12-.03-.35-.12c-.5-.18-1-.35-1.46-.56-.23-.12-.47-.21-.7-.32-.23-.12-.47-.21-.7-.32-.91-.44-1.82-.91-2.67-1.38-.44-.23-.88-.47-1.32-.73l-1.41-.76c-1.73-.97-3.49-1.93-5.24-2.75-.23-.12-.44-.21-.67-.32-.23-.12-.44-.18-.67-.29s-.47-.18-.67-.26c-.23-.09-.47-.15-.7-.23-.94-.32-1.9-.56-2.84-.67h0c-.12-.03-.21-.12-.21-.26.12-.06.23-.18.35-.15h0Z"/>
    </g>
    <g class="cls-2">
      <path class="cls-1" d="m19.68,28.34c.62.59,1.32,1.11,2.08,1.61.73.5,1.49.94,2.26,1.35.38.21.79.41,1.17.59.38.21.79.38,1.2.56.79.38,1.61.76,2.4,1.11s1.61.76,2.4,1.14c.21.12.38.21.59.32.21.12.38.21.59.32s.38.21.59.32.38.21.59.35c.21.12.38.23.59.35l.56.35c.18.12.38.26.56.35l.56.38.56.41c.18.12.35.29.56.41l.56.44.26.23c.06.03.06.12.03.23-.03.09-.06.12-.12.23-.06.12-.12.21-.21.35-.12.15-.21.29-.35.38h.09c-.15.12-.23.18-.35.26-.09.06-.15.12-.23.12-.12.06-.21.06-.23.03l-.23-.21-.5-.41c-.15-.12-.35-.26-.5-.38l-.53-.38c-.18-.12-.35-.26-.53-.38-.18-.12-.35-.26-.53-.35l-.47-.38c-.18-.12-.35-.23-.56-.35-.35-.23-.73-.5-1.08-.73s-.73-.5-1.08-.73c-.73-.47-1.46-.97-2.23-1.44l-2.26-1.44c-.76-.5-1.49-.97-2.23-1.46-1.46-1-2.93-2.05-4.25-3.28-.12-.09-.12-.23-.03-.35.09-.03.26-.03.32.06h0Z"/>
    </g>
  </g>
  <g>
    <path class="cls-8" d="m29.31,43.52s-.03,0,0,0h-.06c-.06,0-.12-.09-.09-.12,0-.06.09-.12.12-.09h.03c.06,0,.12.09.12.12-.03.03-.06.09-.12.09Z"/>
    <path class="cls-8" d="m28.41,43.19h-.06s-.06-.03-.09-.03c-.06-.03-.09-.12-.06-.15.03-.06.12-.09.15-.06.03,0,.06.03.09.03.06.03.09.12.06.15,0,.06-.06.06-.09.06Zm-.94-.38h-.06l-.09-.03c-.06-.03-.09-.12-.06-.15.03-.06.12-.09.15-.06l.09.03c.06.03.09.12.06.15,0,.03-.03.06-.09.06Zm-.91-.41h-.06l-.09-.03c-.06-.03-.09-.12-.06-.15.03-.06.12-.09.15-.06l.09.03c.06.03.09.12.06.15,0,.03-.03.06-.09.06Zm-.91-.44h-.06l-.09-.03c-.06-.03-.09-.12-.06-.15s.12-.09.15-.06l.09.03c.06.03.09.12.06.15,0,.03-.03.06-.09.06Zm-.91-.44s-.03,0-.06-.03c-.03,0-.06-.03-.09-.03-.06-.03-.09-.12-.06-.15.03-.06.12-.09.15-.06.03,0,.06.03.09.03.06.03.09.12.06.15.03.06-.03.09-.09.09Zm-.85-.53s-.06,0-.06-.03l-.09-.06c-.06-.03-.09-.12-.03-.15.03-.06.12-.09.15-.03l.06.06c.06.03.09.12.03.15,0,.03-.03.06-.06.06Zm-.85-.56s-.06,0-.09-.03l-.06-.06c-.06-.03-.06-.12-.03-.15.03-.06.12-.06.15-.03l.06.06c.06.03.06.12.03.15.03.03,0,.06-.06.06Zm-.79-.62s-.06,0-.09-.03l-.06-.06c-.06-.03-.06-.12-.03-.15.03-.06.12-.06.15-.03l.06.06c.06.03.06.12.03.15.03.03,0,.06-.06.06Zm-.79-.62s-.06,0-.09-.03l-.06-.06c-.06-.06-.06-.12-.03-.15.06-.06.12-.06.15-.03l.06.06c.06.06.06.12.03.15s-.03.06-.06.06Zm-.79-.62s-.06,0-.09-.03l-.06-.06c-.06-.06-.06-.12-.03-.15.06-.06.12-.06.15-.03l.06.06c.06.06.06.12.03.15.03.03,0,.06-.06.06Zm-.76-.64s-.06,0-.09-.03l-.06-.06c-.06-.06-.06-.12,0-.15.06-.06.12-.06.15,0l.06.06c.06.06.06.12.03.15-.03.03-.06.03-.09.03Zm-.73-.67s-.06,0-.09-.03l-.06-.06c-.06-.06-.06-.12,0-.15.06-.06.12-.06.15,0l.06.06c.06.06.06.12,0,.15-.03.03-.06.03-.06.03Zm-.76-.67s-.06,0-.09-.03c0,0-.06-.06-.06-.12,0-.09.09-.12.12-.12s.09.06.09.06c.06.06.06.12,0,.15,0,.06-.03.06-.06.06Zm-.76-.67s-.06,0-.09-.03l-.06-.06c-.06-.06-.06-.12,0-.15.06-.06.12-.06.15,0l.06.06c.06.06.06.12,0,.15.03.03,0,.03-.06.03Zm-.73-.7s-.06,0-.09-.03l-.06-.06c-.06-.06-.06-.12,0-.15.06-.06.12-.06.15,0l.06.06c.06.06.06.12,0,.15.03.03-.03.03-.06.03Zm-.7-.67s-.06,0-.09-.03l-.06-.06c-.06-.06-.06-.12,0-.15.06-.06.12-.06.15,0l.06.06c.06.06.06.12,0,.15,0,.03-.06.03-.06.03Zm-.7-.7s-.06,0-.09-.03l-.06-.06c-.06-.06-.06-.12,0-.15.06-.06.12-.06.15,0l.06.06c.06.06.06.12,0,.15-.03.03-.06.03-.06.03Zm-.73-.7s-.06,0-.09-.03l-.06-.06c-.06-.06-.06-.12,0-.15.06-.06.12-.06.15,0l.06.06c.06.06.06.12,0,.15,0,0-.03.03-.06.03Zm-.7-.73s-.06,0-.09-.03l-.06-.06c-.06-.06-.06-.12,0-.15.06-.06.12-.06.15,0l.06.06c.06.06.06.12,0,.15,0,.03-.03.03-.06.03Zm-.7-.73s-.06,0-.09-.03l-.06-.06c-.06-.06-.06-.12,0-.15.06-.06.12-.06.15,0l.06.06c.06.06.06.12,0,.15.03.03,0,.03-.06.03Zm-.67-.73s-.06,0-.09-.03l-.06-.06c-.06-.06-.06-.12,0-.15.06-.06.12-.06.15,0l.06.06c.06.06.06.12,0,.15,0,.03-.03.03-.06.03Zm-.67-.73s-.06-.03-.09-.06l-.06-.06c-.06-.06-.03-.12,0-.15.06-.06.12-.03.15,0l.06.06c.06.06.03.12,0,.15,0,.06-.03.06-.06.06Zm-.5-.82h-.06c-.06-.03-.09-.09-.09-.15,0-.03.03-.06.03-.09.03-.06.12-.09.15-.06s.09.12.06.15c0,.03-.03.06-.03.09.06.03,0,.06-.06.06Zm.47-.91s-.06,0-.06-.03c-.06-.03-.09-.12-.06-.15l.03-.09c.03-.06.12-.09.15-.06s.09.12.06.15l-.03.09c0,.09-.03.09-.09.09Zm.53-.85s-.06,0-.06-.03c-.06-.03-.09-.12-.06-.15l.06-.09c.03-.06.12-.09.15-.06.06.03.09.12.06.15l-.06.09c-.03.06-.06.09-.09.09Zm.5-.85s-.06,0-.06-.03c-.06-.03-.09-.12-.06-.15l.03-.09c.03-.06.12-.09.15-.06s.09.12.06.15l-.03.09c0,.06-.06.09-.09.09Zm.5-.88s-.03,0-.06-.03c-.06-.03-.09-.12-.06-.15l.03-.09c.03-.06.12-.09.15-.06s.09.12.06.15l-.03.09c0,.06-.06.09-.09.09Zm.47-.91s-.03,0-.06-.03c-.06-.03-.09-.12-.06-.15l.03-.09c.03-.06.12-.09.15-.06s.09.12.06.15l-.03.09c.03.09-.03.09-.09.09Zm.47-.88h-.06c-.06-.03-.09-.12-.06-.15l.03-.09c.03-.06.12-.09.15-.06s.09.12.06.15l-.03.09s-.03.06-.09.06Zm.44-.91h-.06c-.06-.03-.09-.12-.06-.15l.03-.09c.03-.06.12-.09.15-.06s.09.12.06.15l-.03.09s-.03.06-.09.06Zm.41-.94h-.06c-.06-.03-.09-.09-.09-.15,0-.03.03-.06.03-.09.03-.06.09-.09.15-.09.06.03.09.09.09.15,0,.03-.03.06-.03.09-.03.09-.06.09-.09.09Zm.29-.94h0c-.09-.03-.12-.09-.12-.12s.03-.06.03-.09c.03-.06.09-.12.12-.09.06.03.12.09.09.12,0,.03-.03.06-.03.09.03.06-.03.09-.09.09Zm.18-1h0c-.09,0-.12-.09-.12-.12v-.09c0-.06.09-.12.12-.12s.12.09.12.12v.09c.03.09-.03.12-.12.12Zm.15-1s-.03,0,0,0c-.09,0-.12-.06-.12-.12v-.09c0-.06.06-.12.12-.12s.12.06.12.12v.09c-.03.09-.06.12-.12.12Zm.06-1h0c-.09,0-.12-.06-.12-.12v-.09c0-.06.06-.12.12-.12s.12.06.12.12v.09c0,.06-.06.12-.12.12Zm.06-1.03h0c-.09,0-.12-.06-.12-.12v-.09c0-.06.06-.12.12-.12s.12.06.12.12v.09c.03.09-.03.12-.12.12Zm.09-.97h0c-.09,0-.12-.06-.12-.12v-.09c0-.06.06-.12.12-.12s.12.06.12.12v.09c-.03.06-.06.12-.12.12Zm.06-1.03h0c-.09,0-.12-.06-.12-.12v-.09c0-.06.06-.12.12-.12s.12.06.12.12v.09c0,.06-.06.12-.12.12Zm.06-1.03h0c-.09,0-.12-.06-.12-.12v-.09c0-.06.06-.12.12-.12s.12.06.12.12v.09c0,.12-.06.12-.12.12Zm29.06,0c-.06,0-.12-.06-.12-.12s.06-.12.12-.12h.09c.06,0,.12.06.12.12s-.06.12-.12.12h-.09Zm-.94-.03h-.09c-.06,0-.12-.06-.12-.12s.06-.12.12-.12h.09c.06,0,.12.06.12.12-.03.06-.09.12-.12.12Zm-1.03-.03h-.09c-.06,0-.12-.06-.12-.12s.06-.12.12-.12h.09c.06,0,.12.06.12.12.03.06-.03.12-.12.12Zm-1-.06h-.09c-.06,0-.12-.06-.12-.12s.06-.12.12-.12h.09c.06,0,.12.06.12.12,0,.06-.06.12-.12.12Zm-1-.06h-.09c-.06,0-.12-.06-.12-.12s.06-.12.12-.12h.09c.06,0,.12.06.12.12-.03.06-.06.12-.12.12Zm-1.03-.06h-.09c-.06,0-.12-.06-.12-.12s.06-.12.12-.12h.09c.06,0,.12.06.12.12.03.06-.03.12-.12.12Zm-.97-.09s-.03,0,0,0h-.09c-.06,0-.12-.06-.12-.12s.06-.12.12-.12h.09c.06,0,.12.06.12.12-.03.06-.09.12-.12.12Zm-1.03-.09h-.09c-.06,0-.12-.06-.12-.12s.06-.12.12-.12h.09c.06,0,.12.06.12.12,0,.09-.06.12-.12.12Zm-1-.09h-.09c-.06,0-.12-.06-.12-.12s.06-.12.12-.12h.09c.06,0,.12.06.12.12s-.06.12-.12.12Zm-1-.12h-.09c-.06,0-.12-.06-.12-.12s.06-.12.12-.12h.09c.06,0,.12.06.12.12-.03.09-.06.12-.12.12Zm-.97-.12s-.12,0-.12,0c-.06,0-.12-.09-.12-.12,0-.06.09-.12.12-.12,0,0,.06,0,.12.03s.06.18,0,.21Zm-1.03-.12h-.12c-.06,0-.12-.09-.12-.12s.09-.12.12-.12h.09c.06,0,.12.09.12.12,0,.06-.06.12-.09.12Zm-18.04-.12h0c-.09,0-.12-.06-.12-.12v-.09c0-.06.06-.12.12-.12s.12.06.12.12v.09c0,.06-.03.12-.12.12Zm17.05-.03s-.03,0,0,0h-.12c-.06,0-.12-.09-.12-.12,0-.06.09-.12.12-.12h.09c.06,0,.12.09.12.12.03.09-.03.12-.09.12Zm-1-.15h-.12c-.06,0-.12-.09-.12-.12s.09-.12.12-.12h.09c.06,0,.12.09.12.12,0,.09-.06.12-.09.12Zm-1-.15h0l-.12-.03c-.06,0-.12-.09-.12-.12,0-.06.09-.12.12-.12h.09c.06,0,.12.09.12.12,0,.09-.03.15-.09.15Zm-1-.15s-.03,0,0,0l-.12-.03c-.06,0-.12-.09-.12-.12s.09-.12.12-.12h.09c.06,0,.12.09.12.12.03.09-.03.15-.09.15Zm-1-.15h0l-.12-.03c-.06,0-.12-.09-.12-.12s.09-.12.12-.12h.09c.06,0,.12.09.12.12,0,.09-.03.15-.09.15Zm-1-.18h0l-.12-.03c-.06,0-.12-.09-.12-.12,0-.06.09-.12.12-.12h.09c.06,0,.12.09.12.12.03.09-.03.15-.09.15Zm-1-.15s-.03,0,0,0l-.12-.03c-.06,0-.12-.09-.12-.12s.09-.12.12-.12h.09c.06,0,.12.09.12.12.03.09-.03.15-.09.15Zm-10.95-.09s-.03,0,0,0c-.09,0-.12-.06-.12-.12v-.09c0-.06.06-.12.12-.12s.12.06.12.12v.09c-.03.06-.09.12-.12.12Zm9.99-.06s-.03,0,0,0l-.12-.03c-.06,0-.12-.09-.12-.12s.09-.12.12-.12h.09c.06,0,.12.09.12.12,0,.09-.06.15-.09.15Zm-1.03-.18h0l-.12-.03c-.06,0-.12-.09-.12-.12,0-.06.09-.12.12-.12h.09c.06,0,.12.09.12.12.03.12-.03.15-.09.15Zm-1-.15h0l-.12-.03c-.06,0-.12-.09-.12-.12s.09-.12.12-.12h.09c.06,0,.12.09.12.12.03.09-.03.15-.09.15Zm-.97-.15s-.03,0,0,0l-.12-.03c-.06,0-.12-.09-.12-.12s.09-.12.12-.12h.09c.06,0,.12.09.12.12,0,.09-.03.15-.09.15Zm-1.03-.18h0l-.12-.03c-.06,0-.12-.09-.12-.12,0-.06.09-.12.12-.12h.09c.06,0,.12.09.12.12.03.12,0,.15-.09.15Zm-.97-.18h0l-.12-.03c-.06,0-.12-.09-.12-.12s.09-.12.12-.12h.09c.06,0,.12.09.12.12,0,.12-.06.15-.09.15Zm-4.89-.09s-.03,0,0,0c-.09-.03-.12-.09-.12-.12s.03-.06.03-.09c.03-.06.09-.12.12-.09s.12.09.09.12c0,.03,0,.06-.03.09.03.03-.03.09-.09.09Zm3.9-.06s-.03,0,0,0l-.12-.03c-.06,0-.12-.09-.12-.12s.09-.12.12-.12h.09c.06,0,.12.09.12.12,0,.12-.03.15-.09.15Zm-1.03-.15h-.12c-.06,0-.12-.09-.12-.12s.09-.12.12-.12h.09c.06,0,.12.09.12.12.06.09,0,.12-.09.12Zm-.97-.12h-.09c-.06,0-.12-.06-.12-.12s.06-.12.12-.12h.09c.06,0,.12.06.12.12-.03.09-.09.12-.12.12Zm-1.11-.06c-.06,0-.12-.06-.12-.12s.06-.12.12-.12h.09c.06,0,.12.06.12.12s-.06.12-.12.12h-.09Z"/>
    <path class="cls-8" d="m46.21,14.25c-.06,0-.12-.06-.12-.12s.03-.12.12-.12h.03c.06,0,.12.03.12.12,0,.06-.03.12-.12.12h-.03Z"/>
  </g>
  <path class="cls-8" d="m45.07,12.56s-.06,0-.09-.03c0,0-.03-.03-.06-.03-.06-.03-.09-.12-.03-.15.03-.06.12-.09.15-.03.03.03.06.06.09.06.06.06.06.12,0,.15-.03,0-.06.03-.06.03Zm-.91-.5h-.06l-.09-.03c-.06-.03-.09-.12-.06-.15.03-.06.12-.09.15-.06l.09.03c.06.03.09.12.06.15,0,.06-.06.06-.09.06Zm-.91-.47h-.06l-.09-.03c-.06-.03-.09-.12-.06-.15.03-.06.12-.09.15-.06l.09.03c.06.03.09.12.06.15,0,.06-.03.06-.09.06Zm-.91-.41h-.06l-.09-.03c-.06-.03-.09-.12-.06-.15s.12-.09.15-.06l.09.03c.06.03.09.12.06.15,0,.03-.03.06-.09.06Zm-6.91.06h-.06c-.06-.03-.09-.12-.06-.15,0-.03.03-.06.03-.09.03-.06.12-.09.15-.06.06.03.09.12.06.15,0,.03-.03.06-.03.09s-.06.06-.09.06Zm6-.47h-.06l-.09-.03c-.06-.03-.09-.12-.06-.15s.12-.09.15-.06l.09.03c.06.03.09.12.06.15,0,.03-.06.06-.09.06Zm-.91-.35h-.06l-.09-.03c-.06-.03-.12-.09-.09-.15.03-.06.09-.12.15-.09l.09.03c.06.03.12.09.09.15-.03.03-.09.09-.09.09Zm-4.6-.03s-.06,0-.09-.03c-.06-.03-.09-.12-.03-.15.03-.03.03-.06.06-.06.03-.06.12-.06.15-.03.06.03.06.12.03.15s-.03.06-.06.06c0,.03,0,.06-.06.06Zm3.63-.32h0l-.12-.03c-.06-.03-.12-.09-.09-.15.03-.06.09-.12.15-.09l.09.03c.06.03.12.09.09.15-.06.06-.06.09-.12.09Zm-1-.26h0l-.12-.03c-.06-.03-.12-.09-.09-.12.03-.06.09-.12.12-.09l.09.03c.06.03.12.09.09.12.03.06-.03.09-.09.09Zm-.97-.21s-.03,0,0,0h-.12c-.06,0-.12-.09-.12-.12s.09-.12.12-.12h.09c.06,0,.12.09.12.12.03.06-.03.12-.09.12Zm-1.08-.03c-.06,0-.12-.03-.12-.09-.03-.06.03-.12.09-.12.03,0,.06-.03.09-.03.06,0,.12.03.12.12,0,.06-.03.12-.12.12,0,0-.03,0-.06,0,.03,0,0,0,0,0Z"/>
</svg>