<?xml version="1.0" encoding="UTF-8"?>
<svg id="Layer_1" data-name="Layer 1" xmlns="http://www.w3.org/2000/svg" viewBox="0 0 48 48">
  <defs>
    <style>
      .cls-1 {
        fill: #8fbed3;
      }

      .cls-2 {
        fill: #b6dcea;
      }

      .cls-3 {
        fill: #aad4e5;
      }

      .cls-4 {
        fill: #93c7da;
        isolation: isolate;
        opacity: .3;
      }
    </style>
  </defs>
  <path class="cls-2" d="m7.12,16.1s4.93,15.67,7.99,17.72c.02.02,18.8,0,18.82-.02,3.06-2.05,7.97-17.72,7.97-17.72l-34.77.02h0Z"/>
  <path class="cls-3" d="m33.92,33.82c0,1.04-4.21,1.9-9.41,1.92s-9.41-.86-9.41-1.9,4.21-1.9,9.41-1.92c5.18,0,9.41.84,9.41,1.9Z"/>
  <path class="cls-4" d="m22.52,35.57c-2.53-2.02-6.35-15.04-7.58-19.47h-7.82s4.93,15.67,7.99,17.72c0,.92,3.2,1.69,7.44,1.86-.02-.03-.03-.09-.03-.12h0Z"/>
  <polygon class="cls-1" points="36.99 17.25 36.25 20.16 35.34 22.33 36.68 20.39 37.82 17.25 36.99 17.25"/>
  <path class="cls-1" d="m41.88,16.08c0,1.57-7.78,2.86-17.38,2.87-9.6,0-17.38-1.27-17.4-2.84,0-1.57,7.78-2.86,17.38-2.86s17.4,1.25,17.4,2.82Z"/>
  <polygon class="cls-1" points="29.31 17.67 29.31 22.57 27.9 23.06 23.63 26.55 25.87 28.55 26.77 31.92 27.9 28.98 30.71 26.98 33.91 27.46 34.32 23.52 33.91 18.94 37.82 17.25 29.31 17.67"/>
  <polygon class="cls-1" points="27.44 23.95 24.06 22.21 20.74 25.41 24.09 21.13 28.28 23.27 27.44 23.95"/>
</svg>