<?xml version="1.0" encoding="utf-8"?>
<!-- Generator: Adobe Illustrator 27.5.0, SVG Export Plug-In . SVG Version: 6.00 Build 0)  -->
<svg version="1.1" id="Layer_1" xmlns="http://www.w3.org/2000/svg" xmlns:xlink="http://www.w3.org/1999/xlink" x="0px" y="0px"
	 viewBox="0 0 987.4 249.1" style="enable-background:new 0 0 987.4 249.1;" xml:space="preserve">
<style type="text/css">
	.st0{fill:#BAB8C2;}
	.st1{fill:#E3DFE5;}
	.st2{fill:#E0A26D;}
	.st3{fill:#C7795E;}
	.st4{fill:#B6DCEA;}
	.st5{fill:#AAD4E5;}
	.st6{opacity:0.3;fill:#93C7DA;enable-background:new    ;}
	.st7{fill:#8FBED3;}
	.st8{fill:#A37454;}
	.st9{fill:#EDB48A;}
	.st10{fill:#D78B66;}
	.st11{fill:#AEC6DB;}
	.st12{fill:#96B1CD;}
	.st13{fill:#C0CFE0;}
	.st14{fill:#89A2BF;}
	.st15{fill:#90ABC7;}
</style>
<g>
	<g id="Layer_1_00000067206400801891344970000010897432633785463958_">
		<path class="st0" d="M37.5,47.5c-3.8,5.7-17,156.6-9.2,158.4c7.8,1.9,122.6,8.5,123.9,5.1c1.4-3.4,9-162.4,1.1-166.7
			C145.4,40,41.7,41.3,37.5,47.5L37.5,47.5z"/>
		<path class="st1" d="M30,43.6c-3.8,5.7-9.4,160.5-1.7,162.4c7.8,1.9,115,4.6,116.4,1.1c1.4-3.4,9-162.4,1-166.7S34.2,37.3,30,43.6
			z"/>
		
			<rect x="32.9" y="64.5" transform="matrix(0.9999 -1.413670e-02 1.413670e-02 0.9999 -1.1737 0.7383)" class="st0" width="37.4" height="37.7"/>
		<polygon class="st0" points="94.9,196.4 33.9,197.2 33.4,159.5 94.4,158.6 		"/>
		
			<rect x="78" y="63.7" transform="matrix(0.9999 -1.413670e-02 1.413670e-02 0.9999 -0.9311 1.5659)" class="st0" width="64.6" height="5.9"/>
		<polygon class="st0" points="142.8,80.8 78.2,81.7 78.1,75.8 142.7,74.9 		"/>
		
			<rect x="78.3" y="87" transform="matrix(0.9999 -1.413670e-02 1.413670e-02 0.9999 -1.2606 1.5729)" class="st0" width="64.6" height="5.9"/>
		<polygon class="st0" points="108,104.6 78.5,105 78.4,99.1 107.9,98.7 		"/>
		
			<rect x="58.6" y="110.7" transform="matrix(0.9999 -1.396218e-02 1.396218e-02 0.9999 -1.5775 1.244)" class="st0" width="59.3" height="5.9"/>
		
			<rect x="33.3" y="122.5" transform="matrix(0.9999 -1.396218e-02 1.396218e-02 0.9999 -1.7423 1.2445)" class="st0" width="109.9" height="5.9"/>
		
			<rect x="33.3" y="134.3" transform="matrix(0.9999 -1.396218e-02 1.396218e-02 0.9999 -1.9073 1.245)" class="st0" width="109.9" height="5.9"/>
		<polygon class="st0" points="143.2,151.2 33.3,152.7 33.2,146.9 143.1,145.3 		"/>
		
			<rect x="98.8" y="157.4" transform="matrix(0.9999 -1.396218e-02 1.396218e-02 0.9999 -2.2273 1.7043)" class="st0" width="44.3" height="5.9"/>
		
			<rect x="99" y="169" transform="matrix(0.9999 -1.413670e-02 1.413670e-02 0.9999 -2.4187 1.7291)" class="st0" width="44.3" height="5.9"/>
		<polygon class="st0" points="143.4,186.2 99.2,186.8 99.1,180.9 143.4,180.3 		"/>
		<polygon class="st0" points="121.5,198.1 99.3,198.4 99.2,192.5 121.4,192.2 		"/>
		<polygon class="st0" points="126.4,56.5 51.3,57.6 51.1,47.9 126.3,46.9 		"/>
		<polygon class="st2" points="192.2,50.8 184.8,200.3 294.9,199.6 302.3,50.1 293.5,59.7 285.2,50.2 278.4,58.5 271,50.3 
			262.9,59.5 255.4,50.4 247.5,60.1 237.8,50.5 230,58.4 222.9,50.6 216,58.6 209.3,50.7 202.3,59 		"/>
		<polygon class="st3" points="327.4,50 335.1,198.1 294.9,199.6 302.3,50.1 307.6,58.2 312.6,50 316.6,58.3 320.9,50 323.2,58.5 		
			"/>
		<path class="st4" d="M356.4,74.2c0,0,28.8,91.6,46.7,103.6c0.1,0.1,109.9,0,110-0.1c17.9-12,46.6-103.6,46.6-103.6L356.4,74.2
			L356.4,74.2z"/>
		<path class="st5" d="M513.1,177.8c0,6.1-24.6,11.1-55,11.2s-55-5-55-11.1s24.6-11.1,55-11.2C488.4,166.7,513.1,171.6,513.1,177.8z
			"/>
		<path class="st6" d="M446.4,188c-14.8-11.8-37.1-87.9-44.3-113.8l-45.7,0c0,0,28.8,91.6,46.7,103.6c0,5.4,18.7,9.9,43.5,10.9
			C446.5,188.5,446.4,188.2,446.4,188L446.4,188z"/>
		<polygon class="st7" points="531,80.9 526.7,97.9 521.4,110.6 529.2,99.3 535.9,80.9 		"/>
		<path class="st7" d="M559.6,74.1c0,9.2-45.5,16.7-101.6,16.8c-56.1,0-101.6-7.4-101.7-16.6c0-9.2,45.5-16.7,101.6-16.7
			S559.6,64.9,559.6,74.1z"/>
		<polygon class="st7" points="486.1,83.4 486.1,112 477.9,114.9 452.9,135.3 466,147 471.3,166.7 477.9,149.5 494.3,137.8 
			513,140.6 515.4,117.6 513,90.8 535.9,80.9 		"/>
		<polygon class="st7" points="475.2,120.1 455.4,109.9 436,128.6 455.6,103.6 480.1,116.1 		"/>
		<polygon class="st8" points="677.5,213.1 792.4,192.1 792.4,99.2 677.5,113.1 		"/>
		<polyline class="st9" points="677.5,113.1 677.5,213.1 619.3,164.3 618.8,82 		"/>
		<polygon class="st2" points="607.1,55.6 618.8,82 742.6,64.3 733.8,36 		"/>
		<polygon class="st2" points="573.8,73.4 617.5,104.6 677.5,113.1 618.8,82 		"/>
		<polygon class="st2" points="792.4,99.2 816.6,72 763.5,40.9 742.6,64.3 		"/>
		<polygon class="st3" points="618.8,82 677.5,113.1 792.4,99.2 742.6,64.3 		"/>
		<polygon class="st10" points="677.5,113.1 685,80.5 803.6,71.7 792.4,99.2 		"/>
		<rect x="883.1" y="68.4" class="st11" width="79.9" height="143.5"/>
		<polygon class="st12" points="883,212 857.5,212 857.5,68.4 883.1,68.4 		"/>
		<polygon class="st13" points="962.9,68.5 950.9,50.5 873,50.5 883.1,68.4 		"/>
		<polygon class="st12" points="857.5,68.4 870.1,50.5 873,50.5 883.1,68.4 		"/>
		<rect x="870.1" y="40.2" class="st11" width="80.8" height="10.3"/>
		<polygon class="st14" points="890.2,190.1 955.8,190.1 955.8,82.6 890.2,82.6 		"/>
		<polygon class="st15" points="890.2,124.7 955.8,124.8 955.8,82.6 890.2,82.6 		"/>
	</g>
</g>
</svg>
