<?xml version="1.0" encoding="UTF-8"?>
<svg id="Layer_1" data-name="Layer 1" xmlns="http://www.w3.org/2000/svg" viewBox="0 0 48 48">
  <defs>
    <style>
      .cls-1 {
        fill: #f9c375;
      }

      .cls-2 {
        fill: #fff6b8;
      }

      .cls-3 {
        fill: #ffb140;
      }

      .cls-4 {
        fill: #db6300;
      }

      .cls-5 {
        fill: #ddd392;
      }

      .cls-6 {
        fill: #ddd6ac;
      }

      .cls-7 {
        fill: #d1aa8f;
      }

      .cls-8 {
        fill: #d8cd8d;
      }

      .cls-9 {
        fill: #8ab8d1;
      }
    </style>
  </defs>
  <g>
    <path class="cls-1" d="m21.46,40.93c-8.14-1.14-12.43-1.56-12.45-2.39-.03-.82-.21-7.29.71-10.92s3.41-6.63,3.59-8.28c.19-1.67-.83-9.48,1-13.01,3.02-.82,12.33,1.96,15.19,3.21,2.86,1.25,5.26-1.2,7.43-.59,2.16.59,2.19,1.82,2.03,3.97-.17,2.15-3.74,15.14-4.07,19.57s-.41,9.12-1.09,9.27c-.72.19-8.47-.3-12.34-.84Z"/>
    <path class="cls-3" d="m36.9,8.98c-.12-.04-.26-.06-.38-.08-1.29,3.51-2.88,11-4.91,11.51-2.47.61-6.47-5.28-7.19-3.46-.74,1.84-1.88,5.24,2,6.97s5.28,3.06,3.64,4.92c-1.4,1.58-7.66,8.32-9.4,11.97.28.04.55.08.84.11,3.88.55,11.62,1.03,12.29.87.67-.17.76-4.86,1.09-9.27.33-4.43,3.9-17.42,4.07-19.57.12-2.13.1-3.34-2.05-3.95Z"/>
    <path class="cls-3" d="m14.29,6.36c-1.81,3.53-.81,11.36-1,13.01-.19,1.67-2.69,4.67-3.59,8.28-.14.57-.26,1.22-.34,1.9,1.34-1.71,3-3.57,4.76-5.09,4.57-3.91,2.43-5.66,2.36-7.88-.05-1.56.03-6.9.24-10.33-.97-.06-1.83-.06-2.43.11Z"/>
    <path class="cls-9" d="m38.88,10.77c-.07-.27-.17-.55-.33-.76-.14-.17-.33-.34-.57-.55-.29-.19-.64-.36-1.12-.49-2.16-.59-4.57,1.86-7.43.59-2.81-1.27-12-4.01-15.09-3.25,1.31,1.27,3.1,2.28,7.95,3.17,5.72,1.06,5.07,4.18,7.6,4.86,2.29.65,9.02-1.41,8.98-3.57Z"/>
  </g>
  <g>
    <polygon class="cls-7" points="24.57 35.65 24.52 36.11 27.53 37.17 31.03 37.4 31.15 37.04 24.57 35.65"/>
    <polygon class="cls-8" points="24.57 35.65 28.02 33.83 31.15 37.04 27.53 36.64 24.57 35.65"/>
  </g>
  <g>
    <polygon class="cls-7" points="20.52 34.87 20.59 35.33 23.72 35.2 27.1 34.11 27.14 33.73 20.52 34.87"/>
    <polygon class="cls-5" points="20.52 34.87 23.34 31.85 27.14 33.73 23.59 34.7 20.52 34.87"/>
  </g>
  <g>
    <polygon class="cls-7" points="14.67 34.85 14.76 35.31 17.9 34.93 21.21 33.56 21.22 33.18 14.67 34.85"/>
    <polygon class="cls-6" points="14.67 34.85 17.33 31.59 21.22 33.18 17.72 34.42 14.67 34.85"/>
  </g>
  <g>
    <polygon class="cls-7" points="23.38 32.27 23.12 32.65 25.21 35.54 28.05 38.01 28.33 37.82 23.38 32.27"/>
    <polygon class="cls-2" points="23.38 32.27 27.09 33.03 28.33 37.82 25.43 35.08 23.38 32.27"/>
  </g>
  <g>
    <polygon class="cls-7" points="17.46 34.97 17.45 35.44 20.52 36.2 24.02 36.05 24.12 35.69 17.46 34.97"/>
    <polygon class="cls-2" points="17.46 34.97 20.77 32.8 24.12 35.69 20.48 35.67 17.46 34.97"/>
  </g>
  <path class="cls-4" d="m32.74,22.7c.21-2.07-.97-3.53-3.5-4.37-1.17-.4-.69-2.05-3.28-2.53-4.07-.78-7.66,1.41-7.98,4.6-.33,3.19,2.71,6.29,6.78,6.93,4.07.61,7.64-1.46,7.98-4.62Z"/>
  <g>
    <polygon class="cls-7" points="23.9 32.37 23.84 32.84 26.86 33.92 30.34 34.13 30.48 33.77 23.9 32.37"/>
    <polygon class="cls-2" points="23.9 32.37 27.34 30.56 30.48 33.77 26.86 33.39 23.9 32.37"/>
  </g>
  <g>
    <polygon class="cls-7" points="17.95 31.13 17.9 31.59 20.91 32.69 24.41 32.9 24.55 32.54 17.95 31.13"/>
    <polygon class="cls-2" points="17.95 31.13 21.4 29.31 24.55 32.54 20.91 32.12 17.95 31.13"/>
  </g>
</svg>