<?xml version="1.0" encoding="UTF-8"?>
<svg id="Layer_1" data-name="Layer 1" xmlns="http://www.w3.org/2000/svg" viewBox="0 0 48 48">
  <defs>
    <style>
      .cls-1 {
        fill: #e87581;
      }

      .cls-2 {
        fill: #fff;
      }

      .cls-3 {
        fill: #fcb560;
      }

      .cls-4 {
        fill: #af464e;
      }

      .cls-5 {
        fill: #893d3d;
      }

      .cls-6 {
        fill: #63bb7a;
      }

      .cls-7 {
        fill: #4c3b3b;
      }
    </style>
  </defs>
  <g>
    <path class="cls-4" d="m24.95,27.81s8.98,5.01,13.56,1.21c3.69-6.76,3.61-16.97,1.3-20.27-1.54.47-3.42,3.29-4.44,2.55s-2.55-2.6-3.26-2.34c-.71.26-1.96,2.86-2.5,3.47-.52.61-2.34.35-2.34.35,0,0,2.22,9.19-2.32,15.03Z"/>
    <path class="cls-5" d="m37.77,18.5c-2.51,2.46-7.92,7.63-12.78,9.22-.02.03-.03.05-.05.07,0,0,8.98,5.01,13.56,1.21,2.39-4.37,3.19-10.18,2.84-14.63-1.06,1.47-2.25,2.88-3.57,4.13Z"/>
  </g>
  <g>
    <path class="cls-7" d="m15.52,10.79s12.78,8.95,13.26,10.68c-1.32-.42-3.19-.07-3.19-.07,0,0,1.66,3.1.92,3.78-.75.68-3-.73-3.45.47-.45,1.2-1.75,4.47-2.72,4.7-.97.23-4.72-.33-5.83-1.06-1.09-.73-8.27-8.43-8.27-8.43l9.28-10.07Z"/>
    <path class="cls-7" d="m17.6,31.78c1.33.47,3.94.95,4.61.21.66-.75.87-4.04,2.62-3.71,1.75.33,3.03,2.5,3.62,1.54.59-.94,0-6.41,1.02-5.63,1.02.76,3.26,6.29,3.57,7.84-.81,1.25-10.59,8.22-10.59,8.22l-4.85-8.46Z"/>
  </g>
  <path class="cls-6" d="m24.1,33.53l-.05.02c-.47.21-.69.75-.5,1.25l.09.21c.21.49.76.75,1.27.52l.05-.02c.49-.21.73-.76.5-1.27l-.09-.21c-.21-.5-.78-.73-1.27-.5Z"/>
  <path class="cls-3" d="m22.7,32.94l.07-.02c.49-.16,1.01.12,1.18.61l.03.09c.19.52-.1,1.07-.62,1.23l-.07.02c-.49.16-1.01-.12-1.18-.61l-.03-.09c-.21-.5.09-1.07.62-1.23Z"/>
  <path class="cls-1" d="m24.09,35.14h.05c.54-.03,1.01.36,1.02.9h0c.03.54-.36,1.01-.9,1.02h-.05c-.54.03-1.01-.36-1.02-.9h0c-.05-.5.36-.97.9-1.02Z"/>
  <path class="cls-6" d="m24.17,33.03l.05.03c.45.26,1.02.14,1.3-.31l.12-.21c.29-.47.16-1.06-.31-1.35l-.05-.03c-.47-.28-1.04-.14-1.33.31l-.12.21c-.28.47-.12,1.06.35,1.35Z"/>
  <path class="cls-6" d="m16.27,24.08l-.05-.03c-.45-.26-1.02-.12-1.28.33l-.12.21c-.29.47-.14,1.06.33,1.33l.05.03c.47.28,1.04.12,1.32-.33l.12-.21c.26-.49.1-1.07-.36-1.33Z"/>
  <path class="cls-3" d="m15.9,22.59l.07.05c.42.31.49.88.21,1.32l-.05.07c-.31.45-.94.54-1.37.21l-.07-.05c-.42-.31-.5-.88-.21-1.32l.05-.07c.31-.45.94-.55,1.37-.21Z"/>
  <path class="cls-1" d="m14.93,25.02l.03.03c.33.42.29,1.02-.12,1.37h0c-.42.33-1.02.29-1.37-.12l-.03-.03c-.33-.42-.29-1.02.12-1.37h0c.42-.35,1.04-.29,1.37.12Z"/>
  <path class="cls-6" d="m16.7,23.84v.05c.05.52.49.9,1.01.87l.23-.02c.54-.03.95-.49.9-1.04v-.05c-.03-.54-.5-.94-1.02-.88l-.23.02c-.54.03-.94.52-.88,1.06Z"/>
  <path class="cls-3" d="m15.7,25v-.07c.02-.52.45-.94.97-.94h.09c.55,0,1.01.47.97,1.01v.07c-.02.52-.45.94-.97.94h-.09c-.55,0-.99-.47-.97-1.01Z"/>
  <path class="cls-1" d="m18.26,24.34l.02-.05c.14-.52.68-.83,1.18-.69h0c.52.14.83.68.69,1.18l-.02.05c-.14.52-.68.83-1.18.69h0c-.52-.14-.83-.68-.69-1.18Z"/>
  <path class="cls-6" d="m20.01,27.53v-.05c.03-.52-.35-.97-.87-1.02l-.23-.02c-.54-.05-1.01.35-1.06.88v.05c-.05.54.35,1.01.88,1.04l.23.02c.52.05,1.01-.35,1.04-.9Z"/>
  <path class="cls-3" d="m21.19,26.55l-.02.07c-.09.5-.59.87-1.09.78l-.09-.02c-.55-.07-.92-.61-.81-1.14l.02-.07c.09-.5.59-.87,1.09-.78l.09.02c.54.07.92.61.81,1.14Z"/>
  <path class="cls-1" d="m18.54,26.81l-.02.05c-.21.49-.78.73-1.28.5h0c-.49-.21-.73-.78-.5-1.28l.02-.05c.21-.49.78-.73,1.28-.5h0c.49.23.73.8.5,1.28Z"/>
  <path class="cls-3" d="m24.5,34.54l-.07-.05c-.42-.33-.49-.9-.19-1.33l.07-.07c.33-.45.95-.54,1.39-.21l.07.05c.42.33.49.9.19,1.32l-.07.07c-.31.47-.95.57-1.39.23Z"/>
  <path class="cls-1" d="m25.49,32.06l-.03-.03c-.33-.42-.28-1.02.14-1.37h0c.42-.33,1.02-.28,1.37.14l.03.03c.33.42.28,1.02-.14,1.37h0c-.42.35-1.04.28-1.37-.14Z"/>
  <path class="cls-6" d="m29.11,32.54l-.03-.03c-.4-.33-1.01-.28-1.33.1l-.16.17c-.35.4-.31,1.02.09,1.39l.05.03c.42.35,1.01.29,1.37-.1l.16-.19c.33-.4.28-1.02-.14-1.37Z"/>
  <path class="cls-3" d="m28.99,31l.05.05c.35.38.35.97-.02,1.33l-.07.07c-.38.4-1.02.38-1.4-.02l-.05-.05c-.35-.38-.35-.97.02-1.33l.07-.07c.38-.4,1.02-.38,1.4.02Z"/>
  <path class="cls-1" d="m27.66,33.29l.02.03c.28.47.12,1.06-.33,1.32h0c-.47.28-1.06.12-1.32-.33l-.02-.03c-.28-.47-.12-1.06.33-1.32h0c.45-.28,1.06-.12,1.32.33Z"/>
  <path class="cls-2" d="m15,16.23c2.53,2.03,4.98,4.14,7.33,6.36.87.8,2.15-.49,1.28-1.28-2.36-2.22-4.82-4.33-7.33-6.36-.9-.75-2.2.55-1.28,1.28h0Z"/>
  <path class="cls-2" d="m12.66,18.81c2.05,1.68,3.97,3.45,5.83,5.34.83.85,2.12-.45,1.28-1.28-1.84-1.89-3.78-3.68-5.83-5.34-.9-.75-2.2.54-1.28,1.28h0Z"/>
</svg>