<?xml version="1.0" encoding="UTF-8"?>
<svg id="Layer_2" data-name="Layer 2" xmlns="http://www.w3.org/2000/svg" viewBox="0 0 48 48">
  <defs>
    <style>
      .cls-1 {
        fill: #af464e;
      }

      .cls-2 {
        fill: #fff;
      }

      .cls-3 {
        fill: #fcb560;
      }

      .cls-4 {
        fill: #63bb7a;
      }

      .cls-5 {
        fill: #4c3b3b;
      }

      .cls-6 {
        fill: #893d3d;
      }

      .cls-7 {
        fill: #e87581;
      }
    </style>
  </defs>
  <g>
    <path class="cls-1" d="m25.37,28.42s11.04,6.68,16.67,1.62c4.54-9.02,4.43-22.64,1.6-27.04-1.9.62-4.2,4.39-5.46,3.4s-3.13-3.47-4.01-3.12c-.87.35-2.41,3.82-3.07,4.63-.64.81-2.88.46-2.88.46,0,0,2.73,12.26-2.86,20.05Z"/>
    <path class="cls-6" d="m41.12,16c-3.09,3.28-9.74,10.18-15.71,12.3-.02.05-.04.07-.06.09,0,0,11.04,6.68,16.67,1.62,2.94-5.83,3.92-13.58,3.5-19.52-1.3,1.97-2.77,3.84-4.39,5.5Z"/>
  </g>
  <g>
    <path class="cls-5" d="m13.77,5.71s15.71,11.93,16.3,14.25c-1.62-.56-3.92-.09-3.92-.09,0,0,2.05,4.14,1.13,5.04-.92.9-3.69-.97-4.24.62-.55,1.6-2.15,5.97-3.35,6.27-1.19.3-5.8-.44-7.16-1.41-1.34-.97-10.17-11.24-10.17-11.24L13.77,5.71Z"/>
    <path class="cls-5" d="m16.33,33.71c1.64.62,4.84,1.27,5.67.28.81-.99,1.07-5.39,3.22-4.95,2.15.44,3.73,3.33,4.45,2.06.72-1.25,0-8.56,1.26-7.52,1.26,1.02,4.01,8.4,4.39,10.45-1,1.67-13.02,10.96-13.02,10.96l-5.97-11.29Z"/>
  </g>
  <path class="cls-4" d="m24.32,36.05l-.06.02c-.58.28-.85.99-.62,1.67l.11.28c.26.65.94.99,1.56.69l.06-.02c.6-.28.9-1.02.62-1.69l-.11-.28c-.26-.67-.96-.97-1.56-.67Z"/>
  <path class="cls-3" d="m22.6,35.26l.09-.02c.6-.21,1.24.16,1.45.81l.04.12c.23.69-.13,1.43-.77,1.64l-.09.02c-.6.21-1.24-.16-1.45-.81l-.04-.12c-.26-.67.11-1.43.77-1.64Z"/>
  <path class="cls-7" d="m24.3,38.2h.06c.66-.05,1.24.49,1.26,1.2h0c.04.72-.45,1.34-1.11,1.36h-.06c-.66.05-1.24-.49-1.26-1.2h0c-.06-.67.45-1.3,1.11-1.36Z"/>
  <path class="cls-4" d="m24.41,35.38l.06.05c.55.35,1.26.19,1.6-.42l.15-.28c.36-.62.19-1.41-.38-1.8l-.06-.05c-.58-.37-1.28-.19-1.64.42l-.15.28c-.34.62-.15,1.41.43,1.8Z"/>
  <path class="cls-4" d="m14.69,23.44l-.06-.05c-.55-.35-1.26-.16-1.58.44l-.15.28c-.36.62-.17,1.41.4,1.78l.06.05c.58.37,1.28.16,1.62-.44l.15-.28c.32-.65.13-1.43-.45-1.78Z"/>
  <path class="cls-3" d="m14.24,21.46l.09.07c.51.42.6,1.18.26,1.76l-.06.09c-.38.6-1.15.72-1.68.28l-.09-.07c-.51-.42-.62-1.18-.26-1.76l.06-.09c.38-.6,1.15-.74,1.68-.28Z"/>
  <path class="cls-7" d="m13.05,24.69l.04.05c.4.56.36,1.36-.15,1.83h0c-.51.44-1.26.39-1.68-.16l-.04-.05c-.4-.56-.36-1.36.15-1.83h0c.51-.46,1.28-.39,1.68.16Z"/>
  <path class="cls-4" d="m15.22,23.12v.07c.06.69.6,1.2,1.24,1.16l.28-.02c.66-.05,1.17-.65,1.11-1.39v-.07c-.04-.72-.62-1.25-1.26-1.18l-.28.02c-.66.05-1.15.69-1.09,1.41Z"/>
  <path class="cls-3" d="m13.99,24.67v-.09c.02-.69.55-1.25,1.19-1.25h.11c.68,0,1.24.62,1.19,1.34v.09c-.02.69-.55,1.25-1.19,1.25h-.11c-.68,0-1.21-.62-1.19-1.34Z"/>
  <path class="cls-7" d="m17.14,23.79l.02-.07c.17-.69.83-1.11,1.45-.93h0c.64.19,1.02.9.85,1.57l-.02.07c-.17.69-.83,1.11-1.45.93h0c-.64-.19-1.02-.9-.85-1.57Z"/>
  <path class="cls-4" d="m19.29,28.05v-.07c.04-.69-.43-1.3-1.07-1.36l-.28-.02c-.66-.07-1.24.46-1.3,1.18v.07c-.06.72.43,1.34,1.09,1.39l.28.02c.64.07,1.24-.46,1.28-1.2Z"/>
  <path class="cls-3" d="m20.74,26.73l-.02.09c-.11.67-.72,1.16-1.34,1.04l-.11-.02c-.68-.09-1.13-.81-1-1.53l.02-.09c.11-.67.72-1.16,1.34-1.04l.11.02c.66.09,1.13.81,1,1.53Z"/>
  <path class="cls-7" d="m17.48,27.08l-.02.07c-.26.65-.96.97-1.58.67h0c-.6-.28-.9-1.04-.62-1.71l.02-.07c.26-.65.96-.97,1.58-.67h0c.6.3.9,1.06.62,1.71Z"/>
  <path class="cls-3" d="m24.81,37.39l-.09-.07c-.51-.44-.6-1.2-.23-1.78l.09-.09c.4-.6,1.17-.72,1.7-.28l.09.07c.51.44.6,1.2.23,1.76l-.09.09c-.38.62-1.17.76-1.7.3Z"/>
  <path class="cls-7" d="m26.03,34.08l-.04-.05c-.4-.56-.34-1.36.17-1.83h0c.51-.44,1.26-.37,1.68.19l.04.05c.4.56.34,1.36-.17,1.83h0c-.51.46-1.28.37-1.68-.19Z"/>
  <path class="cls-4" d="m30.48,34.73l-.04-.05c-.49-.44-1.24-.37-1.64.14l-.19.23c-.43.53-.38,1.36.11,1.85l.06.05c.51.46,1.24.39,1.68-.14l.19-.25c.4-.53.34-1.36-.17-1.83Z"/>
  <path class="cls-3" d="m30.33,32.67l.06.07c.43.51.43,1.3-.02,1.78l-.09.09c-.47.53-1.26.51-1.73-.02l-.06-.07c-.43-.51-.43-1.3.02-1.78l.09-.09c.47-.53,1.26-.51,1.73.02Z"/>
  <path class="cls-7" d="m28.69,35.73l.02.05c.34.62.15,1.41-.4,1.76h0c-.58.37-1.3.16-1.62-.44l-.02-.05c-.34-.62-.15-1.41.4-1.76h0c.55-.37,1.3-.16,1.62.44Z"/>
  <path class="cls-2" d="m13.14,12.97c3.11,2.71,6.12,5.53,9.01,8.49,1.07,1.06,2.64-.65,1.58-1.71-2.9-2.96-5.92-5.78-9.01-8.49-1.11-.99-2.71.74-1.58,1.71h0Z"/>
  <path class="cls-2" d="m10.26,16.41c2.51,2.24,4.88,4.6,7.16,7.12,1.02,1.13,2.6-.6,1.58-1.71-2.26-2.52-4.65-4.9-7.16-7.12-1.11-.99-2.71.72-1.58,1.71h0Z"/>
</svg>