<?xml version="1.0" encoding="UTF-8"?>
<svg id="Layer_1" data-name="Layer 1" xmlns="http://www.w3.org/2000/svg" viewBox="0 0 48 48">
  <defs>
    <style>
      .cls-1 {
        fill: #c7ebea;
      }

      .cls-2 {
        fill: #99c6d1;
      }
    </style>
  </defs>
  <g>
    <path class="cls-1" d="m16.89,21.47c-2.21.38-4.66-1.88-5.47-5.04s.31-6.05,2.52-6.43c2.21-.38,4.66,1.88,5.47,5.04.8,3.16-.31,6.05-2.52,6.43Z"/>
    <path class="cls-2" d="m17.73,16.03c.42,1.61.36,3.09-.09,4.22.94-1.04,1.27-2.87.78-4.84-.71-2.8-2.9-4.79-4.84-4.44-.11.02-.27.05-.38.09,1.83.05,3.79,2.14,4.53,4.97Z"/>
    <path class="cls-1" d="m26.32,41.52l-9.84-19.64c-.22-.38-.11-.8.25-.93s.8.07,1.03.46l11.69,18.94c.22.38-.45,1.06-1.29,1.32-.45.13-1.61.24-1.83-.15Z"/>
  </g>
  <g>
    <path class="cls-1" d="m31.61,17.49c.09.84-1.16,1.63-2.86,1.77s-3.12-.42-3.21-1.24c-.09-.84,1.16-1.63,2.86-1.77,1.67-.16,3.12.4,3.21,1.24Z"/>
    <polygon class="cls-1" points="25.11 14.55 31.19 14.02 31.64 17.47 25.56 18 25.11 14.55"/>
    <g>
      <path class="cls-1" d="m26.03,14.68c.02.18-.16.35-.4.37-.25.02-.45-.11-.49-.29l-.96-7.31c-.02-.18.16-.35.4-.37.25-.02.45.11.49.29l.96,7.31Z"/>
      <path class="cls-1" d="m31.23,14.39c.02.18-.16.35-.4.37-.25.02-.45-.11-.49-.29l-.96-7.31c-.02-.18.16-.35.4-.37s.45.11.49.29l.96,7.31Z"/>
      <path class="cls-1" d="m27.78,14.66c.02.2-.16.38-.4.4-.25.02-.45-.13-.49-.33l-1.03-7.97c-.02-.2.16-.38.4-.4.25-.02.45.13.49.33l1.03,7.97Z"/>
      <path class="cls-1" d="m29.49,14.51c.02.2-.16.38-.4.4s-.45-.13-.49-.33l-1.03-7.97c-.02-.2.16-.38.4-.4.25-.02.45.13.49.33l1.03,7.97Z"/>
    </g>
    <path class="cls-1" d="m32.75,38.08c.31,2.37-.22,3.56-1.05,3.62-.83.07-1.65-.99-1.96-3.36s.11-4.35.96-4.42c.83-.07,1.74,1.81,2.05,4.17Z"/>
    <polygon class="cls-1" points="29.2 17.69 27.98 17.78 29.74 38.34 32.75 38.08 29.2 17.69"/>
  </g>
</svg>