<?xml version="1.0" encoding="UTF-8"?>
<svg id="Layer_1" data-name="Layer 1" xmlns="http://www.w3.org/2000/svg" viewBox="0 0 48 48">
  <defs>
    <style>
      .cls-1 {
        fill: #b6dcea;
      }

      .cls-2 {
        fill: #aad4e5;
      }

      .cls-3 {
        fill: #4eadc5;
      }

      .cls-4 {
        fill: #93c7da;
        isolation: isolate;
        opacity: .3;
      }
    </style>
  </defs>
  <rect class="cls-1" x="13.8" y="27.22" width="16.95" height="10.84" transform="translate(-14.19 47.85) rotate(-78.33)"/>
  <path class="cls-2" d="m25.87,42.03c-.18.85-2.69,1.04-5.62.44s-5.16-1.78-4.99-2.63,2.69-1.04,5.62-.44,5.17,1.78,4.99,2.63h0Z"/>
  <polygon class="cls-1" points="28.84 7.85 26.09 7.28 18.68 23.24 29.32 25.44 28.84 7.85"/>
  <rect class="cls-3" x="26.61" y="5.12" width="2.15" height="2.79" transform="translate(15.71 32.31) rotate(-78.33)"/>
  <path class="cls-3" d="m26.79,37.56l1.92-9.28c-.24.38-2.61.24-5.45-.35l-1.94,9.35c2.93.6,5.38.74,5.47.31,0-.01,0-.02,0-.03h0Z"/>
  <path class="cls-4" d="m26.09,7.28l-7.41,15.96-3.43,16.6c-.13.62,1.04,1.42,2.82,2.04l3.21-18.01,5.73-16.39-.92-.19h0Z"/>
</svg>