<?xml version="1.0" encoding="UTF-8"?>
<svg id="Layer_1" data-name="Layer 1" xmlns="http://www.w3.org/2000/svg" viewBox="0 0 48 48">
  <defs>
    <style>
      .cls-1 {
        fill: #90bfc9;
      }

      .cls-2 {
        fill: #d8d8d8;
      }

      .cls-3 {
        fill: #69a0b7;
      }

      .cls-4 {
        fill: #49a549;
      }

      .cls-5 {
        fill: #4b687e;
      }

      .cls-6 {
        fill: #577e95;
      }
    </style>
  </defs>
  <path class="cls-6" d="m20.22,46.08c.71,1.97,5.84,1.69,11.44-.61,5.61-2.31,9.58-5.77,8.86-7.74-.71-1.96-5.83-1.69-11.44.62-5.61,2.31-9.58,5.77-8.86,7.74h0Z"/>
  <polygon class="cls-4" points="18.77 44.75 40.76 35.7 29.22 3.85 7.22 12.9 18.77 44.75"/>
  <path class="cls-4" d="m18.78,44.78c.77,2.13,6.32,1.83,12.39-.67,6.08-2.5,10.38-6.25,9.6-8.38-.77-2.13-6.32-1.83-12.4.67-6.07,2.5-10.37,6.25-9.6,8.38h0Z"/>
  <path class="cls-4" d="m7.22,12.9c.78,2.13,6.32,1.83,12.4-.67,6.07-2.5,10.37-6.25,9.6-8.38-.77-2.13-6.32-1.83-12.39.67-6.07,2.5-10.37,6.25-9.6,8.38Z"/>
  <path class="cls-6" d="m7.68,11.45c.71,1.97,5.83,1.69,11.43-.61,5.61-2.31,9.57-5.77,8.86-7.74-.71-1.97-5.83-1.69-11.44.62-5.61,2.31-9.57,5.76-8.86,7.73h0Z"/>
  <path class="cls-3" d="m8.35,9.62c.63,1.74,5.16,1.5,10.12-.55,4.96-2.04,8.47-5.11,7.84-6.84-.63-1.74-5.17-1.49-10.13.54-4.96,2.04-8.47,5.1-7.84,6.85h0Z"/>
  <path class="cls-1" d="m7.95,9.79c-.84-2.32,3.54-5.57,8.08-7.44C20.31.59,24.29.11,25.95,1.16c.37.23.63.54.76.91.38,1.06-.29,2.38-1.95,3.83-1.52,1.32-3.7,2.6-6.14,3.61-4.27,1.76-8.25,2.24-9.91,1.19-.37-.23-.63-.54-.76-.91Zm8.4-6.58c-5.06,2.08-8.06,4.97-7.6,6.25.43,1.2,4.4,1.32,9.57-.81,2.36-.97,4.45-2.2,5.9-3.46,1.29-1.12,1.92-2.17,1.7-2.79-.06-.17-.19-.32-.4-.45-1.2-.75-4.74-.57-9.18,1.26h0Z"/>
  <path class="cls-5" d="m18.5,6.39c.17.46,1.47.34,2.91-.25,1.44-.59,2.48-1.44,2.31-1.9-.17-.46-1.47-.34-2.91.25-1.44.59-2.48,1.45-2.32,1.9Z"/>
  <ellipse class="cls-2" cx="23.89" cy="22.88" rx="8.61" ry="4.92" transform="translate(-6.59 10.03) rotate(-20.9)"/>
</svg>