<?xml version="1.0" encoding="UTF-8"?>
<svg id="Layer_1" data-name="Layer 1" xmlns="http://www.w3.org/2000/svg" viewBox="0 0 48 48">
  <defs>
    <style>
      .cls-1 {
        fill: #3d7932;
      }

      .cls-2 {
        fill: #60a833;
      }
    </style>
  </defs>
  <path class="cls-2" d="m36.36,21.53c2.81.06-1.13,1.53-1.27,4.19-.14,2.66,3.35,6.58,1.08,7.53-2.27.95-2.54-2.37-3.34-1.02-.8,1.34-.62,5.47-2.37,5.44-1.75-.03.2-4.8-1.37-4.93-3.39-.28-4.08,9.29-8.11,9.74-2.44.27.91-6.74.8-7.15-.11-.4-3.63-3.59-1.9-4.58,1.73-.99,5.83-.27,6.57-2.27.73-2-1.25-4.02,1.04-4.52s4.4,1.4,5.05.77c.65-.64,1.79-3.23,3.82-3.18h0Z"/>
  <path class="cls-1" d="m38.4,20.48c.09.02.17.08.2.17.06.14-.01.31-.15.37-.02.01-2.51,1.06-3.67,3.68-1.27,2.89-2.81,3.84-6.48,5.89-3.57,2-5.24,7.17-5.26,7.22-.05.15-.2.23-.35.18-.15-.05-.23-.2-.18-.35.07-.22,1.76-5.43,5.52-7.54,3.71-2.08,5.05-2.93,6.24-5.63,1.25-2.84,3.86-3.93,3.97-3.97.05-.02.11-.03.16-.02h0Z"/>
  <path class="cls-2" d="m12.57,35.08c-3.46-.63-4-6.56-2.14-9.44.93-1.45.97-4.08.6-5.88-1.05-5.17,1.85-6.46,3.02-5.82,1.17.65,1.44-2.45,2.43-4.89.98-2.44,5.96-3.96,5.68-.57-.29,3.39-4.56,8.16-1.86,6.63,2.15-1.22,1.29,6.63-3.44,11.12-1.97,1.87.13,9.64-4.28,8.84h0Z"/>
  <path class="cls-1" d="m13.51,38.25c-.03.13-.13.24-.27.27-.19.04-.37-.09-.41-.27-.06-.32-1.48-7.83.87-13.89,2.3-5.94,3.72-14.06,3.73-14.14.04-.21.21-.32.4-.28s.32.21.28.4c-.02.08-1.44,8.28-3.77,14.28-2.27,5.87-.85,13.43-.84,13.51,0,.05,0,.09,0,.14h0Z"/>
</svg>