<?xml version="1.0" encoding="UTF-8"?>
<svg id="Layer_2" data-name="Layer 2" xmlns="http://www.w3.org/2000/svg" viewBox="0 0 48 48">
  <defs>
    <style>
      .cls-1 {
        fill: #db6300;
      }

      .cls-2 {
        fill: #f9c375;
      }

      .cls-3 {
        fill: #8ab8d1;
      }

      .cls-4 {
        fill: #fff6b8;
      }

      .cls-5 {
        fill: #ffb140;
      }

      .cls-6 {
        fill: #ddd6ac;
      }

      .cls-7 {
        fill: #d1aa8f;
      }

      .cls-8 {
        fill: #ddd392;
      }

      .cls-9 {
        fill: #d8cd8d;
      }
    </style>
  </defs>
  <g>
    <path class="cls-2" d="m20.13,45.08c-12.42-1.42-18.96-1.95-18.99-2.97-.05-1.03-.32-9.07,1.08-13.6s5.21-8.26,5.47-10.31c.29-2.08-1.26-11.81,1.53-16.2,4.6-1.03,18.81,2.45,23.17,4,4.37,1.55,8.02-1.5,11.34-.74,3.29.74,3.34,2.26,3.1,4.95-.26,2.68-5.71,18.86-6.21,24.38-.5,5.52-.63,11.36-1.66,11.55-1.1.24-12.91-.37-18.83-1.05Z"/>
    <path class="cls-5" d="m43.67,5.29c-.18-.05-.39-.08-.58-.11-1.97,4.37-4.39,13.7-7.5,14.34-3.76.76-9.86-6.58-10.97-4.31-1.13,2.29-2.87,6.52,3.05,8.68s8.05,3.81,5.55,6.13c-2.13,1.97-11.68,10.36-14.34,14.91.42.05.84.11,1.29.13,5.92.68,17.73,1.29,18.75,1.08,1.03-.21,1.16-6.05,1.66-11.55.5-5.52,5.94-21.7,6.21-24.38.18-2.66.16-4.16-3.13-4.92Z"/>
    <path class="cls-5" d="m9.19,2.03c-2.76,4.39-1.24,14.15-1.53,16.2-.29,2.08-4.1,5.81-5.47,10.31-.21.71-.39,1.53-.53,2.37,2.05-2.13,4.58-4.45,7.26-6.34,6.97-4.87,3.71-7.05,3.6-9.81-.08-1.95.05-8.6.37-12.86-1.47-.08-2.79-.08-3.71.13Z"/>
    <path class="cls-3" d="m46.7,7.52c-.11-.34-.26-.68-.5-.95-.21-.21-.5-.42-.87-.68-.45-.24-.97-.45-1.71-.6-3.29-.74-6.97,2.31-11.34.74C28,4.45,13.98,1.03,9.27,1.97c2,1.58,4.73,2.84,12.13,3.95,8.73,1.32,7.73,5.21,11.6,6.05,3.5.82,13.76-1.76,13.7-4.45Z"/>
  </g>
  <g>
    <polygon class="cls-7" points="24.87 38.51 24.79 39.09 29.39 40.4 34.73 40.69 34.91 40.24 24.87 38.51"/>
    <polygon class="cls-9" points="24.87 38.51 30.13 36.25 34.91 40.24 29.39 39.75 24.87 38.51"/>
  </g>
  <g>
    <polygon class="cls-7" points="18.69 37.54 18.79 38.11 23.58 37.96 28.73 36.59 28.79 36.12 18.69 37.54"/>
    <polygon class="cls-8" points="18.69 37.54 23 33.77 28.79 36.12 23.37 37.33 18.69 37.54"/>
  </g>
  <g>
    <polygon class="cls-7" points="9.77 37.51 9.9 38.09 14.69 37.61 19.74 35.9 19.76 35.43 9.77 37.51"/>
    <polygon class="cls-6" points="9.77 37.51 13.82 33.46 19.76 35.43 14.42 36.98 9.77 37.51"/>
  </g>
  <g>
    <polygon class="cls-7" points="23.05 34.3 22.66 34.77 25.84 38.38 30.18 41.45 30.6 41.22 23.05 34.3"/>
    <polygon class="cls-4" points="23.05 34.3 28.71 35.25 30.6 41.22 26.18 37.8 23.05 34.3"/>
  </g>
  <g>
    <polygon class="cls-7" points="14.03 37.67 14 38.25 18.69 39.19 24.02 39.01 24.18 38.56 14.03 37.67"/>
    <polygon class="cls-4" points="14.03 37.67 19.08 34.96 24.18 38.56 18.63 38.54 14.03 37.67"/>
  </g>
  <path class="cls-1" d="m37.33,22.39c.32-2.58-1.47-4.39-5.34-5.44-1.79-.5-1.05-2.55-5-3.16-6.21-.97-11.68,1.76-12.18,5.73-.5,3.97,4.13,7.84,10.34,8.63,6.21.76,11.65-1.81,12.18-5.76Z"/>
  <g>
    <polygon class="cls-7" points="23.84 34.43 23.76 35.01 28.36 36.35 33.68 36.62 33.89 36.17 23.84 34.43"/>
    <polygon class="cls-4" points="23.84 34.43 29.1 32.17 33.89 36.17 28.36 35.69 23.84 34.43"/>
  </g>
  <g>
    <polygon class="cls-7" points="14.77 32.88 14.69 33.46 19.29 34.83 24.63 35.09 24.84 34.64 14.77 32.88"/>
    <polygon class="cls-4" points="14.77 32.88 20.03 30.62 24.84 34.64 19.29 34.12 14.77 32.88"/>
  </g>
</svg>