<?xml version="1.0" encoding="UTF-8"?>
<svg id="Layer_1" data-name="Layer 1" xmlns="http://www.w3.org/2000/svg" viewBox="0 0 48 48">
  <defs>
    <style>
      .cls-1 {
        fill: #90bfc9;
      }

      .cls-2 {
        fill: #6796a4;
      }

      .cls-3 {
        fill: #534741;
      }

      .cls-4 {
        fill: #f7931e;
      }

      .cls-5 {
        fill: #4b687e;
      }

      .cls-6 {
        fill: #76a5b5;
      }
    </style>
  </defs>
  <path class="cls-6" d="m32.97,45.15c-.11,1.62-4.7,2.64-10.26,2.27-5.56-.37-9.98-1.98-9.87-3.6.11-1.62,4.7-2.64,10.26-2.27,5.56.37,9.98,1.98,9.87,3.6Z"/>
  <rect class="cls-6" x="10.59" y="21.23" width="26.36" height="20.18" transform="translate(-9.06 52.97) rotate(-86.2)"/>
  <path class="cls-5" d="m34.72,18.85c-.07,1.1-4.64,1.69-10.2,1.32-5.56-.37-10.01-1.56-9.94-2.66.07-1.1,4.64-1.69,10.2-1.32,5.56.37,10.01,1.56,9.94,2.66Z"/>
  <path class="cls-6" d="m27.45,15.47c-5.08,1.67-10.26-.18-11.56-4.14-1.31-3.96,1.76-8.53,6.83-10.2,5.08-1.67,10.26.18,11.56,4.14,1.31,3.96-1.75,8.53-6.83,10.21Z"/>
  <path class="cls-2" d="m19.73,13.49c-1.03-.69-1.76-1.63-2.12-2.73-.53-1.59-.23-3.35.84-4.93,1.05-1.56,2.72-2.79,4.7-3.44,2.62-.87,5.36-.6,7.31.71,1.03.69,1.76,1.63,2.12,2.73.52,1.59.23,3.35-.84,4.94-1.05,1.56-2.72,2.79-4.7,3.44-2.62.87-5.36.6-7.31-.71h0ZM30.08,3.65c-1.76-1.18-4.34-1.42-6.73-.63-1.84.61-3.39,1.74-4.35,3.18-.95,1.42-1.22,2.96-.76,4.35.31.95.96,1.78,1.86,2.38,1.76,1.18,4.34,1.42,6.73.63,1.84-.61,3.39-1.74,4.36-3.18.95-1.42,1.22-2.96.76-4.35-.31-.95-.96-1.78-1.86-2.38h0Z"/>
  <path class="cls-2" d="m21.51,11.79c-.7-.47-1.19-1.1-1.44-1.85-.36-1.08-.16-2.26.56-3.33s1.81-1.86,3.14-2.3c1.75-.58,3.58-.4,4.88.48.7.47,1.19,1.1,1.44,1.85.72,2.19-.93,4.72-3.7,5.63-1.75.58-3.58.4-4.88-.48h0Zm6.77-6.44c-1.12-.75-2.77-.9-4.3-.4-1.18.39-2.17,1.11-2.79,2.03-.6.9-.77,1.87-.48,2.75.2.6.6,1.12,1.17,1.5,1.12.75,2.77.9,4.3.4,2.41-.8,3.88-2.94,3.27-4.78-.2-.6-.6-1.12-1.17-1.5h0Z"/>
  <path class="cls-2" d="m23.27,10.12c-.37-.25-.63-.58-.76-.98-.38-1.15.47-2.46,1.89-2.93.89-.29,1.83-.2,2.5.25.37.25.63.58.76.98.16.47.11,1-.14,1.49-.33.65-.97,1.18-1.75,1.44-.89.29-1.83.2-2.5-.25h0Zm3.26-3.1c-.5-.33-1.23-.4-1.92-.17-1.07.35-1.72,1.29-1.46,2.08.25.77,1.39,1.14,2.42.8.62-.2,1.12-.61,1.36-1.1.17-.33.2-.67.1-.98-.08-.25-.25-.47-.5-.63h0Z"/>
  <path class="cls-1" d="m14.83,18.56c-.49-.33-.72-.69-.7-1.08.05-.81,1.14-1.33,3.43-1.63,1.95-.25,4.53-.29,7.25-.11,4.44.3,8.23,1.1,9.66,2.06.49.33.72.69.7,1.08-.05.81-1.14,1.33-3.43,1.63-1.95.25-4.53.29-7.25.11-4.44-.3-8.24-1.1-9.66-2.06h0Zm.2-1.02s.05.11.3.27c1.26.84,5.05,1.63,9.22,1.91,6.02.4,9.53-.38,9.73-.91,0,0-.05-.11-.3-.28-1.26-.84-5.05-1.63-9.22-1.91-6.02-.4-9.53.38-9.73.91h0Z"/>
  <path class="cls-4" d="m24.19,25.12c-5.56-.37-10.01-1.6-9.93-2.74l-1.29,19.34c-.09,1.41,4.34,2.85,9.9,3.22,5.56.37,10.14-.47,10.24-1.88l1.29-19.34c-.08,1.14-4.65,1.77-10.21,1.4h0Z"/>
  <path class="cls-3" d="m28.98,33.99c-.21,3.14-2.77,5.52-5.73,5.33-2.95-.2-5.18-2.9-4.97-6.04.21-3.14,2.77-5.52,5.73-5.33,2.96.2,5.18,2.9,4.97,6.04h0Z"/>
  <path class="cls-3" d="m23.1,41.55c-5.56-.37-9.99-1.81-9.9-3.22l-.23,3.39c-.09,1.41,4.34,2.85,9.9,3.22,5.56.37,10.14-.47,10.24-1.88l.23-3.39c-.09,1.41-4.68,2.25-10.24,1.88h0Z"/>
</svg>