<?xml version="1.0" encoding="utf-8"?>
<!-- Generator: Adobe Illustrator 27.5.0, SVG Export Plug-In . SVG Version: 6.00 Build 0)  -->
<svg version="1.1" id="Layer_1" xmlns="http://www.w3.org/2000/svg" xmlns:xlink="http://www.w3.org/1999/xlink" x="0px" y="0px"
	 viewBox="0 0 48 48" style="enable-background:new 0 0 48 48;" xml:space="preserve">
<style type="text/css">
	.st0{fill:#6B6A3C;}
	.st1{fill:#CC3C6F;}
</style>
<path class="st0" d="M34.2,11.3c-0.1-0.1-7.7-5-11.7-4.1c-0.8,0.2-1.4,0.6-1.8,1.3c-2.7,4.6-1.9,11.2-1.9,11.3l-1,0.1
	c0-0.3-0.9-7,2-11.9c0.5-0.9,1.3-1.5,2.4-1.7c4.4-1,12.2,4,12.5,4.2L34.2,11.3L34.2,11.3z"/>
<path class="st1" d="M18.5,20.8c-0.9,0.2-1.5,1.2-2.7,2.3c-2.6,2.2-2.5,7.1-2.4,8.1c0.6,5.3,2.7,2.9,3.5-1.5c2.2,3,5.1,4.9,2.1-4.6
	c0.9,0.5,4.8,8.7,6.3,5.3c0.5-1.2-2.6-4.5-2.6-4.5s7.5,3.1,6.8,0.4s-6.8-3.8-6.8-3.8L18.5,20.8L18.5,20.8z"/>
<path class="st0" d="M18.3,18.8c-2.3,0.5-1.9,4-5.1,3.7c3.5,2.3,4.9-1.6,4.9-1.6l0.5,2.5l1.2-2.2c0,0,2.5,2.3,5.3,0.2
	C21.6,21.2,20.2,18.4,18.3,18.8L18.3,18.8z"/>
<path class="st1" d="M23.5,32.8c0,0,0.9,4,3.4,4.4s4.3-0.9,3.3-1.2c-1-0.4-2.7-0.1-4-1S23.5,32.8,23.5,32.8L23.5,32.8z"/>
<path class="st1" d="M19.5,34.6c0,0-2,4.4-3.7,4.6c-1.7,0.2-2.2,4.1,1.5,2.2C20.9,39.4,19.5,34.6,19.5,34.6z"/>
<path class="st1" d="M28.3,29.7c0,0,3.4,1.4,4.4,0.6c1.1-0.8,3.3,1.1,0.3,2C30,33.1,28.3,29.7,28.3,29.7L28.3,29.7z"/>
</svg>
