<?xml version="1.0" encoding="UTF-8"?>
<svg id="Layer_1" data-name="Layer 1" xmlns="http://www.w3.org/2000/svg" viewBox="0 0 48 48">
  <defs>
    <style>
      .cls-1 {
        fill: #ccedea;
      }

      .cls-2 {
        fill: #bbdee2;
      }

      .cls-3 {
        fill: #4e889c;
      }

      .cls-4 {
        fill: #4eadc5;
      }
    </style>
  </defs>
  <path class="cls-1" d="m27.65,13.31c-.07-.26-.3-.43-.55-.44,0,0-5.24-2.42-5.24-2.42l-1.74.35-1.69.53-3.42,4.64h.07c-.21.13-.31.38-.25.63l6.45,25.03s.03.06.04.09c.31,1.02,3.37,1.12,6.88.22,3.51-.9,6.14-2.47,5.92-3.51,0-.03,0-.07,0-.1l-6.45-25.03Z"/>
  <path class="cls-2" d="m17.89,15.48c-.07-.28.03-.55.24-.7h-.07s2.74-4.11,2.74-4.11l-.68.14-1.69.53-3.42,4.65h.07c-.21.13-.31.38-.25.63l6.45,25.03s.03.06.04.09c.21.67,1.61.94,3.55.79l-6.97-27.05Z"/>
  <path class="cls-2" d="m20.44,19.57l-.11-.43c-.05-.19-.25-.31-.44-.26l-4.22,1.09.29,1.13,4.22-1.09c.19-.05.31-.25.26-.44Z"/>
  <path class="cls-2" d="m21.07,22l-.11-.43c-.05-.19-.25-.31-.44-.26l-4.22,1.09.29,1.13,4.22-1.09c.19-.05.31-.24.26-.44h0Z"/>
  <path class="cls-2" d="m15.34,18.66l4.22-1.09c.19-.05.31-.25.26-.44l-.11-.43c-.05-.19-.25-.31-.44-.26l-4.22,1.09.29,1.13h0Z"/>
  <path class="cls-2" d="m23.98,18.15l.11.43c.05.19.24.31.44.26l4.26-1.1-.29-1.13-4.26,1.1c-.19.05-.3.25-.26.44h0Z"/>
  <path class="cls-2" d="m29.13,19.04l-4.26,1.1c-.19.05-.31.24-.26.44l.11.43c.05.19.25.31.44.26l4.26-1.1-.29-1.13h0Z"/>
  <path class="cls-2" d="m23.35,15.72l.11.43c.05.19.24.31.43.26l4.26-1.1-.29-1.13-4.26,1.1c-.19.05-.31.25-.26.44h0Z"/>
  <path class="cls-2" d="m24.13,33.9l-.11-.43c-.05-.19-.25-.31-.44-.26l-4.22,1.09.29,1.13,4.22-1.09c.19-.05.31-.24.26-.44h0Z"/>
  <path class="cls-2" d="m24.76,36.33l-.11-.43c-.05-.19-.25-.31-.44-.26l-4.22,1.09.29,1.13,4.22-1.09c.19-.05.31-.25.26-.44Z"/>
  <path class="cls-2" d="m19.03,32.99l4.22-1.09c.19-.05.31-.25.26-.44l-.11-.43c-.05-.19-.25-.31-.44-.26l-4.22,1.09.29,1.13h0Z"/>
  <path class="cls-2" d="m27.67,32.48l.11.43c.05.19.24.31.43.26l4.26-1.1-.29-1.13-4.26,1.1c-.19.05-.31.25-.26.44h0Z"/>
  <path class="cls-2" d="m32.81,33.37l-4.26,1.1c-.19.05-.31.24-.26.44l.11.43c.05.19.24.31.44.26l4.26-1.1-.29-1.13Z"/>
  <path class="cls-2" d="m27.04,30.04l.11.43c.05.19.24.31.44.26l4.26-1.1-.29-1.13-4.26,1.1c-.19.05-.31.24-.26.44h0Z"/>
  <polygon class="cls-4" points="22.33 10.67 18.19 11.73 17.33 7.17 20.89 6.25 22.33 10.67"/>
  <path class="cls-3" d="m20.89,6.25l-3.56.92.14.71c1.2-.31,2.43-.63,3.65-.94l-.23-.69Z"/>
</svg>