<?xml version="1.0" encoding="UTF-8"?>
<svg id="Layer_1" data-name="Layer 1" xmlns="http://www.w3.org/2000/svg" viewBox="0 0 48 48">
  <defs>
    <style>
      .cls-1 {
        fill: #69a0b7;
      }

      .cls-2 {
        fill: #e57f68;
      }

      .cls-3 {
        fill: #90bfc9;
      }

      .cls-4 {
        fill: #cf4d43;
      }

      .cls-5 {
        fill: #577e95;
      }

      .cls-6 {
        fill: #4b687e;
      }
    </style>
  </defs>
  <path class="cls-5" d="m29.84,40.4c-.35,1.53-4.43,1.9-9.11.83-4.68-1.07-8.19-3.18-7.84-4.71.35-1.53,4.43-1.89,9.11-.82,4.68,1.07,8.19,3.18,7.84,4.71h0Z"/>
  <polygon class="cls-4" points="30.84 39.26 12.48 35.05 18.16 10.3 36.52 14.51 30.84 39.26"/>
  <path class="cls-4" d="m30.84,39.28c-.38,1.66-4.8,2.06-9.87.89-5.07-1.16-8.88-3.45-8.49-5.1.38-1.66,4.8-2.06,9.87-.89,5.07,1.16,8.87,3.45,8.49,5.1Z"/>
  <path class="cls-4" d="m36.52,14.51c-.38,1.65-4.8,2.06-9.87.89-5.07-1.16-8.87-3.45-8.49-5.1.38-1.66,4.8-2.05,9.87-.89,5.07,1.16,8.87,3.45,8.49,5.1Z"/>
  <path class="cls-5" d="m36,13.49c-.35,1.53-4.42,1.9-9.1.82-4.68-1.07-8.19-3.18-7.84-4.71.35-1.53,4.43-1.9,9.11-.82,4.68,1.07,8.18,3.18,7.83,4.71h0Z"/>
  <path class="cls-1" d="m35.27,12.21c-.31,1.35-3.92,1.68-8.06.73-4.14-.95-7.25-2.82-6.94-4.17.31-1.35,3.92-1.68,8.06-.73,4.14.95,7.25,2.81,6.93,4.17h0Z"/>
  <path class="cls-3" d="m35.1,13.05c-1.2.95-4.4,1.05-7.96.23-2.04-.47-3.9-1.17-5.24-1.97-1.47-.88-2.14-1.78-1.96-2.61.07-.29.24-.54.51-.76,1.2-.95,4.4-1.05,7.96-.23,3.8.87,7.61,2.77,7.19,4.58-.07.29-.24.54-.51.76Zm-14.23-4.57c-.14.12-.23.24-.26.37-.11.48.5,1.18,1.64,1.87,1.28.77,3.07,1.44,5.04,1.89,4.31.99,7.44.46,7.65-.47.23-1-2.46-2.79-6.68-3.76-3.7-.85-6.52-.59-7.39.1h0Z"/>
  <path class="cls-6" d="m26.91,10.97c-.08.35-1.12.42-2.33.14-1.2-.28-2.11-.79-2.03-1.14.08-.35,1.12-.42,2.33-.14s2.12.79,2.03,1.14Z"/>
  <path class="cls-2" d="m34.93,21.45c-.57-1.01-1.37-1.71-2.35-1.93-2.67-.61-5.66,2.49-6.68,6.93-1.02,4.44.32,8.53,2.99,9.15.98.23,2-.06,2.96-.71l3.08-13.43h0Z"/>
</svg>