<?xml version="1.0" encoding="UTF-8"?>
<svg id="Layer_1" data-name="Layer 1" xmlns="http://www.w3.org/2000/svg" viewBox="0 0 48 48">
  <defs>
    <style>
      .cls-1 {
        fill: #90bfc9;
      }

      .cls-2 {
        fill: #e57f68;
      }

      .cls-3 {
        fill: #69a0b7;
      }

      .cls-4 {
        fill: #4b687e;
      }

      .cls-5 {
        fill: #cf4d43;
      }

      .cls-6 {
        fill: #577e95;
      }
    </style>
  </defs>
  <path class="cls-6" d="m31.13,45.24c-.47,2.04-5.92,2.54-12.16,1.1-6.25-1.43-10.94-4.25-10.47-6.3.47-2.04,5.92-2.53,12.16-1.1,6.25,1.44,10.94,4.25,10.47,6.29h0Z"/>
  <polygon class="cls-5" points="32.47 43.72 7.95 38.09 15.53 5.03 40.06 10.65 32.47 43.72"/>
  <path class="cls-5" d="m32.46,43.75c-.51,2.21-6.41,2.75-13.18,1.19-6.77-1.55-11.86-4.61-11.35-6.82.51-2.21,6.41-2.75,13.18-1.19,6.77,1.55,11.85,4.61,11.34,6.82Z"/>
  <path class="cls-5" d="m40.06,10.65c-.51,2.21-6.41,2.75-13.18,1.19-6.77-1.55-11.85-4.61-11.34-6.82.5-2.21,6.41-2.74,13.18-1.19,6.77,1.56,11.85,4.61,11.35,6.82Z"/>
  <path class="cls-6" d="m39.37,9.29c-.47,2.04-5.91,2.53-12.16,1.1-6.25-1.43-10.94-4.25-10.47-6.29.47-2.04,5.91-2.53,12.16-1.1,6.25,1.43,10.93,4.25,10.46,6.29h0Z"/>
  <path class="cls-3" d="m38.39,7.59c-.41,1.81-5.23,2.24-10.76.97-5.53-1.27-9.68-3.76-9.27-5.57.42-1.81,5.24-2.24,10.77-.97,5.53,1.27,9.68,3.76,9.26,5.57h0Z"/>
  <path class="cls-1" d="m38.16,8.7c-1.6,1.27-5.88,1.4-10.63.31-2.72-.62-5.2-1.56-7-2.63-1.96-1.18-2.86-2.38-2.61-3.48.09-.38.31-.72.67-1.01,1.6-1.27,5.88-1.4,10.64-.31,5.07,1.17,10.16,3.7,9.61,6.12-.09.38-.31.72-.67,1.01ZM19.16,2.6c-.19.15-.31.32-.35.5-.15.64.67,1.58,2.19,2.49,1.71,1.03,4.1,1.93,6.73,2.53,5.76,1.32,9.93.62,10.21-.63.31-1.33-3.28-3.72-8.92-5.02-4.94-1.13-8.7-.79-9.87.13h0Z"/>
  <path class="cls-4" d="m27.22,5.92c-.11.47-1.5.56-3.11.19-1.61-.37-2.82-1.05-2.71-1.52.11-.47,1.5-.55,3.11-.19s2.83,1.05,2.72,1.52Z"/>
  <path class="cls-2" d="m37.93,19.92c-.76-1.35-1.83-2.28-3.14-2.58-3.57-.82-7.56,3.33-8.92,9.25-1.36,5.93.43,11.4,4,12.22,1.31.3,2.68-.08,3.95-.95l4.11-17.94h0Z"/>
</svg>