<?xml version="1.0" encoding="UTF-8"?>
<svg id="Layer_2" data-name="Layer 2" xmlns="http://www.w3.org/2000/svg" viewBox="0 0 48 48">
  <defs>
    <style>
      .cls-1 {
        fill: #c7ebea;
      }

      .cls-2 {
        fill: #99c6d1;
      }
    </style>
  </defs>
  <g>
    <path class="cls-1" d="m18.47,20.66c-2.39.51-5.05-2.49-5.92-6.66s.34-7.99,2.73-8.5c2.39-.51,5.05,2.49,5.92,6.66.87,4.18-.34,7.99-2.73,8.5Z"/>
    <path class="cls-2" d="m19.38,13.47c.46,2.12.39,4.08-.1,5.58,1.01-1.38,1.38-3.79.85-6.4-.77-3.69-3.14-6.33-5.24-5.87-.12.02-.29.07-.41.12,1.98.07,4.1,2.82,4.9,6.57Z"/>
    <path class="cls-1" d="m28.68,47.15l-10.65-25.96c-.24-.51-.12-1.06.27-1.23s.87.1,1.11.6l12.65,25.04c.24.51-.48,1.4-1.4,1.74-.48.17-1.74.31-1.98-.19Z"/>
  </g>
  <g>
    <path class="cls-1" d="m34.4,15.4c.1,1.11-1.26,2.15-3.09,2.34s-3.38-.56-3.48-1.64c-.1-1.11,1.26-2.15,3.09-2.34,1.81-.22,3.38.53,3.48,1.64Z"/>
    <rect class="cls-1" x="27.59" y="11.15" width="6.62" height="4.59" transform="translate(-1.24 3.33) rotate(-6.04)"/>
    <g>
      <path class="cls-1" d="m28.37,11.68c.02.24-.17.46-.43.48-.27.02-.48-.14-.53-.39l-1.04-9.66c-.02-.24.17-.46.43-.48.27-.02.48.14.53.39l1.04,9.66Z"/>
      <path class="cls-1" d="m33.99,11.29c.02.24-.17.46-.43.48-.27.02-.48-.14-.53-.39l-1.04-9.66c-.02-.24.17-.46.43-.48s.48.14.53.39l1.04,9.66Z"/>
      <path class="cls-1" d="m30.25,11.66c.02.27-.17.51-.43.53-.27.02-.48-.17-.53-.43l-1.11-10.53c-.02-.27.17-.51.43-.53.27-.02.48.17.53.43l1.11,10.53Z"/>
      <path class="cls-1" d="m32.11,11.46c.02.27-.17.51-.43.53s-.48-.17-.53-.43l-1.11-10.53c-.02-.27.17-.51.43-.53.27-.02.48.17.53.43l1.11,10.53Z"/>
    </g>
    <path class="cls-1" d="m35.63,42.61c.34,3.14-.24,4.71-1.13,4.78-.89.1-1.79-1.3-2.12-4.44s.12-5.75,1.04-5.84c.89-.1,1.88,2.39,2.22,5.5Z"/>
    <polygon class="cls-1" points="31.79 15.66 30.47 15.79 32.37 42.95 35.63 42.61 31.79 15.66"/>
  </g>
</svg>