<?xml version="1.0" encoding="UTF-8"?>
<svg id="Layer_1" data-name="Layer 1" xmlns="http://www.w3.org/2000/svg" viewBox="0 0 48 48">
  <defs>
    <style>
      .cls-1 {
        fill: #b4e1e3;
      }

      .cls-2 {
        fill: #a5d2dc;
      }

      .cls-3 {
        fill: #dcf3ef;
      }

      .cls-4 {
        fill: #c7ebea;
      }
    </style>
  </defs>
  <g>
    <path class="cls-4" d="m8.51,25.43s-1,7.4-.76,7.72c.24.32,2.08,2.02,2.84,2.27.76.24,20.71,3.42,20.71,3.42l1.54-9.4-24.33-4.01Z"/>
    <path class="cls-2" d="m36.83,36.61s1.52-1.57,1.59-1.98,1.22-7.35,1.22-7.35l-6.77,2.18-1.54,9.4s5.22-1.95,5.5-2.25Z"/>
    <g>
      <path class="cls-1" d="m20.82,29.77c-.56-.08-1.08.29-1.17.85l-1.02,6.18c.66.1,1.34.2,2,.32l1.02-6.18c.1-.56-.27-1.08-.83-1.17Z"/>
      <path class="cls-1" d="m28.89,31.1c-.56-.08-1.08.29-1.17.85l-1.02,6.15c.73.12,1.41.22,2,.32l1.02-6.15c.1-.56-.27-1.08-.83-1.17Z"/>
      <path class="cls-1" d="m24.86,30.44c-.56-.08-1.08.29-1.17.85l-1.02,6.16c.68.1,1.35.22,2,.32l1.02-6.16c.1-.56-.27-1.08-.83-1.17Z"/>
      <path class="cls-1" d="m12.75,28.45c-.56-.08-1.08.29-1.17.85l-1.02,6.11s.03.02.03.02c.14.05.85.19,1.96.36l1.02-6.18c.1-.56-.27-1.07-.83-1.15Z"/>
      <path class="cls-1" d="m16.79,29.11c-.56-.08-1.08.29-1.17.85l-1.02,6.18c.63.1,1.29.2,2,.32l1.02-6.18c.08-.56-.29-1.08-.83-1.17Z"/>
    </g>
    <polygon class="cls-2" points="8.51 25.43 17.35 23.6 39.64 27.26 32.88 29.44 8.51 25.43"/>
    <path class="cls-3" d="m8.14,25.65c-.05-.07-.07-.14-.07-.22,0-.2.14-.39.34-.44l8.84-1.83c.05-.02.1-.02.17,0l22.29,3.66c.2.03.34.2.36.39s-.1.39-.3.46l-6.77,2.18c-.07.02-.14.03-.2.02l-24.37-4.01c-.08-.02-.19-.1-.27-.2Zm9.21-1.61l-6.47,1.34,21.95,3.62,4.94-1.61-20.42-3.35Z"/>
  </g>
  <g>
    <path class="cls-4" d="m10,18.93s1.41-7.33,1.74-7.55c.32-.24,2.62-1.25,3.42-1.24.81.02,20.73,3.35,20.73,3.35l-1.51,9.4-24.39-3.96Z"/>
    <path class="cls-2" d="m40.4,17.34s.95,1.96.88,2.39c-.07.41-1.19,7.37-1.19,7.37l-5.72-4.23,1.51-9.4s4.34,3.51,4.52,3.88Z"/>
    <g>
      <path class="cls-1" d="m23.06,18.73c-.56-.08-.93-.61-.85-1.15l1-6.18c.66.1,1.32.2,2,.32l-1,6.18c-.08.54-.61.91-1.15.83Z"/>
      <path class="cls-1" d="m31.12,20.03c-.56-.08-.93-.61-.85-1.15l.98-6.16c.73.12,1.41.24,2,.32l-.98,6.15c-.08.56-.59.93-1.15.85Z"/>
      <path class="cls-1" d="m27.09,19.39c-.56-.08-.93-.61-.85-1.15l.98-6.18c.68.1,1.35.22,2,.32l-.98,6.16c-.08.56-.59.93-1.15.85Z"/>
      <path class="cls-1" d="m14.97,17.42c-.56-.08-.93-.61-.85-1.15l.98-6.11h.03c.14,0,.86.1,1.98.27l-1,6.18c-.07.52-.59.9-1.15.81Z"/>
      <path class="cls-1" d="m19.01,18.08c-.56-.08-.93-.61-.85-1.15l1-6.18c.63.1,1.29.2,2,.32l-1,6.2c-.08.52-.61.9-1.15.81Z"/>
    </g>
    <polygon class="cls-2" points="10 18.93 17.79 23.47 40.08 27.09 34.37 22.86 10 18.93"/>
    <path class="cls-3" d="m10.07,18.51l24.35,3.95c.07.02.14.05.2.07l5.72,4.23c.17.12.22.32.14.52-.07.19-.27.29-.46.25l-22.29-3.61c-.07-.02-.1-.03-.15-.07l-7.79-4.54c-.19-.1-.25-.32-.2-.52.03-.07.07-.14.14-.19.08-.08.22-.12.34-.1Zm28.31,7.87l-4.18-3.08-21.96-3.56,5.71,3.34,20.44,3.3Z"/>
  </g>
</svg>