<?xml version="1.0" encoding="UTF-8"?>
<svg id="Layer_2" data-name="Layer 2" xmlns="http://www.w3.org/2000/svg" viewBox="0 0 48 48">
  <defs>
    <style>
      .cls-1 {
        fill: #a5d2dc;
      }

      .cls-2 {
        fill: #c7ebea;
      }

      .cls-3 {
        fill: #dcf3ef;
      }

      .cls-4 {
        fill: #b4e1e3;
      }
    </style>
  </defs>
  <g>
    <path class="cls-2" d="m1.88,25.29s-1.38,10.24-1.05,10.69c.33.45,2.88,2.79,3.94,3.14,1.05.33,28.66,4.73,28.66,4.73l2.13-13.01L1.88,25.29Z"/>
    <path class="cls-1" d="m41.06,40.76s2.11-2.18,2.2-2.74,1.69-10.17,1.69-10.17l-9.37,3.02-2.13,13.01s7.22-2.7,7.62-3.12Z"/>
    <g>
      <path class="cls-4" d="m18.91,31.29c-.77-.12-1.5.4-1.62,1.17l-1.41,8.55c.91.14,1.85.28,2.77.45l1.41-8.55c.14-.77-.37-1.5-1.15-1.62Z"/>
      <path class="cls-4" d="m30.07,33.14c-.77-.12-1.5.4-1.62,1.17l-1.41,8.51c1.01.16,1.95.3,2.77.45l1.41-8.51c.14-.77-.37-1.5-1.15-1.62Z"/>
      <path class="cls-4" d="m24.49,32.23c-.77-.12-1.5.4-1.62,1.17l-1.41,8.53c.94.14,1.87.3,2.77.45l1.41-8.53c.14-.77-.37-1.5-1.15-1.62Z"/>
      <path class="cls-4" d="m7.74,29.46c-.77-.12-1.5.4-1.62,1.17l-1.41,8.46s.05.02.05.02c.19.07,1.17.26,2.72.49l1.41-8.55c.14-.77-.37-1.48-1.15-1.59Z"/>
      <path class="cls-4" d="m13.34,30.37c-.77-.12-1.5.4-1.62,1.17l-1.41,8.55c.87.14,1.78.28,2.77.45l1.41-8.55c.12-.77-.4-1.5-1.15-1.62Z"/>
    </g>
    <polygon class="cls-1" points="1.88 25.29 14.11 22.76 44.95 27.82 35.6 30.84 1.88 25.29"/>
    <path class="cls-3" d="m1.36,25.59c-.07-.09-.09-.19-.09-.3,0-.28.19-.54.47-.61l12.23-2.53c.07-.02.14-.02.23,0l30.84,5.06c.28.05.47.28.49.54s-.14.54-.42.63l-9.37,3.02c-.09.02-.19.05-.28.02L1.74,25.87c-.12-.02-.26-.14-.37-.28Zm12.75-2.23l-8.95,1.85,30.37,5.02,6.84-2.23-28.26-4.64Z"/>
  </g>
  <g>
    <path class="cls-2" d="m3.94,16.29s1.95-10.15,2.41-10.45c.45-.33,3.63-1.73,4.73-1.71,1.12.02,28.68,4.64,28.68,4.64l-2.09,13.01L3.94,16.29Z"/>
    <path class="cls-1" d="m46,14.09s1.31,2.72,1.22,3.3c-.09.56-1.64,10.19-1.64,10.19l-7.92-5.86,2.09-13.01s6,4.85,6.26,5.37Z"/>
    <g>
      <path class="cls-4" d="m22.01,16.01c-.77-.12-1.29-.84-1.17-1.59l1.38-8.55c.91.14,1.83.28,2.77.45l-1.38,8.55c-.12.75-.84,1.27-1.59,1.15Z"/>
      <path class="cls-4" d="m33.16,17.81c-.77-.12-1.29-.84-1.17-1.59l1.36-8.53c1.01.16,1.95.33,2.77.45l-1.36,8.51c-.12.77-.82,1.29-1.59,1.17Z"/>
      <path class="cls-4" d="m27.58,16.92c-.77-.12-1.29-.84-1.17-1.59l1.36-8.55c.94.14,1.87.3,2.77.45l-1.36,8.53c-.12.77-.82,1.29-1.59,1.17Z"/>
      <path class="cls-4" d="m10.81,14.2c-.77-.12-1.29-.84-1.17-1.59l1.36-8.46h.05c.19,0,1.2.14,2.74.37l-1.38,8.55c-.09.73-.82,1.24-1.59,1.12Z"/>
      <path class="cls-4" d="m16.41,15.12c-.77-.12-1.29-.84-1.17-1.59l1.38-8.55c.87.14,1.78.28,2.77.45l-1.38,8.58c-.12.73-.84,1.24-1.59,1.12Z"/>
    </g>
    <polygon class="cls-1" points="3.94 16.29 14.72 22.57 45.56 27.59 37.66 21.73 3.94 16.29"/>
    <path class="cls-3" d="m4.03,15.7l33.7,5.46c.09.02.19.07.28.09l7.92,5.86c.23.16.3.45.19.73-.09.26-.37.4-.63.35l-30.84-4.99c-.09-.02-.14-.05-.21-.09l-10.78-6.28c-.26-.14-.35-.45-.28-.73.05-.09.09-.19.19-.26.12-.12.3-.16.47-.14Zm39.18,10.9l-5.79-4.27-30.4-4.92,7.9,4.62,28.29,4.57Z"/>
  </g>
</svg>