<?xml version="1.0" encoding="UTF-8"?>
<svg id="Layer_1" data-name="Layer 1" xmlns="http://www.w3.org/2000/svg" viewBox="0 0 48 48">
  <defs>
    <style>
      .cls-1 {
        fill: #69a0b7;
      }

      .cls-2 {
        fill: #90bfc9;
      }

      .cls-3 {
        fill: #d8d8d8;
      }

      .cls-4 {
        fill: #49a549;
      }

      .cls-5 {
        fill: #577e95;
      }

      .cls-6 {
        fill: #4b687e;
      }
    </style>
  </defs>
  <path class="cls-5" d="m22.57,41.49c.4,1.57,3.31,1.35,6.49-.49,3.18-1.84,5.43-4.61,5.02-6.18-.4-1.57-3.31-1.35-6.49.49-3.18,1.84-5.43,4.61-5.02,6.18h0Z"/>
  <polygon class="cls-4" points="21.75 40.43 34.22 33.21 27.67 7.77 15.2 15 21.75 40.43"/>
  <path class="cls-4" d="m21.75,40.46c.44,1.7,3.58,1.46,7.03-.53,3.44-2,5.88-5,5.44-6.69-.44-1.7-3.58-1.46-7.03.53-3.44,1.99-5.88,5-5.44,6.7h0Z"/>
  <path class="cls-4" d="m15.2,15c.44,1.7,3.58,1.46,7.03-.53,3.44-1.99,5.88-5,5.44-6.69-.44-1.7-3.58-1.46-7.03.53-3.44,2-5.88,4.99-5.44,6.7Z"/>
  <path class="cls-5" d="m15.46,13.84c.4,1.57,3.31,1.35,6.48-.49,3.18-1.84,5.43-4.61,5.02-6.18-.4-1.57-3.31-1.35-6.48.49-3.18,1.84-5.42,4.6-5.02,6.17h0Z"/>
  <path class="cls-1" d="m15.85,12.38c.36,1.39,2.93,1.2,5.74-.44,2.81-1.63,4.8-4.08,4.45-5.47-.36-1.39-2.93-1.19-5.74.43-2.81,1.63-4.8,4.08-4.44,5.47h0Z"/>
  <path class="cls-2" d="m15.62,12.51c-.48-1.85,2.01-4.45,4.58-5.94,2.42-1.4,4.68-1.78,5.62-.95.21.19.36.43.43.73.22.84-.17,1.9-1.11,3.06-.86,1.06-2.1,2.08-3.48,2.88-2.42,1.4-4.68,1.79-5.62.95-.21-.19-.36-.43-.43-.73Zm4.76-5.26c-2.87,1.66-4.57,3.97-4.31,4.99.24.96,2.49,1.05,5.42-.65,1.34-.77,2.52-1.76,3.35-2.77.73-.9,1.09-1.73.96-2.23-.04-.14-.11-.26-.22-.36-.68-.6-2.69-.45-5.2,1h0Z"/>
  <path class="cls-6" d="m21.6,9.8c.09.36.83.27,1.65-.2.82-.47,1.4-1.15,1.31-1.52-.09-.36-.83-.27-1.65.2-.82.47-1.41,1.15-1.31,1.52Z"/>
  <ellipse class="cls-3" cx="24.65" cy="22.96" rx="5.32" ry="3.61" transform="translate(-9.01 21.64) rotate(-40.71)"/>
</svg>