<?xml version="1.0" encoding="utf-8"?>
<!-- Generator: Adobe Illustrator 27.5.0, SVG Export Plug-In . SVG Version: 6.00 Build 0)  -->
<svg version="1.1" id="Layer_1" xmlns="http://www.w3.org/2000/svg" xmlns:xlink="http://www.w3.org/1999/xlink" x="0px" y="0px"
	 viewBox="0 0 987.4 249.1" style="enable-background:new 0 0 987.4 249.1;" xml:space="preserve">
<style type="text/css">
	.st0{fill:#C7EBEA;}
	.st1{fill:#99C6D1;}
	.st2{fill:#AF464E;}
	.st3{fill:#893D3D;}
	.st4{fill:#4C3B3B;}
	.st5{fill:#63BB7A;}
	.st6{fill:#FCB560;}
	.st7{fill:#E87581;}
	.st8{fill:#FFFFFF;}
	.st9{fill:#F9C375;}
	.st10{fill:#FFB140;}
	.st11{fill:#8AB8D1;}
	.st12{fill:#D1AA8F;}
	.st13{fill:#D8CD8D;}
	.st14{fill:#DDD392;}
	.st15{fill:#DDD6AC;}
	.st16{fill:#FFF6B8;}
	.st17{fill:#DB6300;}
	.st18{fill:#A5D2DC;}
	.st19{fill:#B4E1E3;}
	.st20{fill:#DCF3EF;}
	.st21{fill:#61AFD3;}
	.st22{clip-path:url(#SVGID_00000137130504751325007590000003551263331003038112_);fill:#399BC8;}
	.st23{clip-path:url(#SVGID_00000143593647759360992790000010959104563258332556_);fill:#399BC8;}
	.st24{clip-path:url(#SVGID_00000136404561764456987880000005620576139590613918_);fill:#399BC8;}
</style>
<g>
	<g>
		<path class="st0" d="M64.8,110.7c-9.9,2.1-20.9-10.3-24.5-27.6s1.4-33.1,11.3-35.2c9.9-2.1,20.9,10.3,24.5,27.6
			C79.7,92.8,74.7,108.6,64.8,110.7z"/>
		<path class="st1" d="M68.6,80.9c1.9,8.8,1.6,16.9-0.4,23.1c4.2-5.7,5.7-15.7,3.5-26.5C68.5,62.2,58.7,51.3,50,53.2
			c-0.5,0.1-1.2,0.3-1.7,0.5C56.5,54,65.3,65.4,68.6,80.9z"/>
		<path class="st0" d="M107.1,220.4L63,112.9c-1-2.1-0.5-4.4,1.1-5.1c1.6-0.7,3.6,0.4,4.6,2.5L121.1,214c1,2.1-2,5.8-5.8,7.2
			C113.3,221.9,108.1,222.5,107.1,220.4z"/>
	</g>
	<g>
		<path class="st0" d="M130.8,88.9c0.4,4.6-5.2,8.9-12.8,9.7s-14-2.3-14.4-6.8c-0.4-4.6,5.2-8.9,12.8-9.7
			C123.9,81.2,130.4,84.3,130.8,88.9z"/>
		
			<rect x="102.6" y="71.3" transform="matrix(0.9944 -0.1053 0.1053 0.9944 -7.8617 12.6923)" class="st0" width="27.4" height="19"/>
		<g>
			<path class="st0" d="M105.8,73.5c0.1,1-0.7,1.9-1.8,2c-1.1,0.1-2-0.6-2.2-1.6l-4.3-40c-0.1-1,0.7-1.9,1.8-2
				c1.1-0.1,2,0.6,2.2,1.6L105.8,73.5z"/>
			<path class="st0" d="M129.1,71.9c0.1,1-0.7,1.9-1.8,2c-1.1,0.1-2-0.6-2.2-1.6l-4.3-40c-0.1-1,0.7-1.9,1.8-2s2,0.6,2.2,1.6
				L129.1,71.9z"/>
			<path class="st0" d="M113.6,73.4c0.1,1.1-0.7,2.1-1.8,2.2c-1.1,0.1-2-0.7-2.2-1.8L105,30.2c-0.1-1.1,0.7-2.1,1.8-2.2
				c1.1-0.1,2,0.7,2.2,1.8L113.6,73.4z"/>
			<path class="st0" d="M121.3,72.6c0.1,1.1-0.7,2.1-1.8,2.2s-2-0.7-2.2-1.8l-4.6-43.6c-0.1-1.1,0.7-2.1,1.8-2.2
				c1.1-0.1,2,0.7,2.2,1.8L121.3,72.6z"/>
		</g>
		<path class="st0" d="M135.9,201.6c1.4,13-1,19.5-4.7,19.8c-3.7,0.4-7.4-5.4-8.8-18.4c-1.4-13,0.5-23.8,4.3-24.2
			C130.4,178.4,134.5,188.7,135.9,201.6z"/>
		<polygon class="st0" points="120,90 114.5,90.5 122.4,203 135.9,201.6 		"/>
	</g>
	<g>
		<g>
			<path class="st2" d="M257.1,147.5c0,0,51.8,28.9,78.2,7c21.3-39,20.8-97.9,7.5-116.9c-8.9,2.7-19.7,19-25.6,14.7
				c-5.9-4.3-14.7-15-18.8-13.5c-4.1,1.5-11.3,16.5-14.4,20c-3,3.5-13.5,2-13.5,2S283.3,113.8,257.1,147.5z"/>
			<path class="st3" d="M331,93.8c-14.5,14.2-45.7,44-73.7,53.2c-0.1,0.2-0.2,0.3-0.3,0.4c0,0,51.8,28.9,78.2,7
				c13.8-25.2,18.4-58.7,16.4-84.4C345.5,78.5,338.6,86.6,331,93.8z"/>
		</g>
		<g>
			<path class="st4" d="M202.7,49.3c0,0,73.7,51.6,76.5,61.6c-7.6-2.4-18.4-0.4-18.4-0.4s9.6,17.9,5.3,21.8
				c-4.3,3.9-17.3-4.2-19.9,2.7c-2.6,6.9-10.1,25.8-15.7,27.1c-5.6,1.3-27.2-1.9-33.6-6.1c-6.3-4.2-47.7-48.6-47.7-48.6L202.7,49.3z
				"/>
			<path class="st4" d="M214.7,170.4c7.7,2.7,22.7,5.5,26.6,1.2c3.8-4.3,5-23.3,15.1-21.4c10.1,1.9,17.5,14.4,20.9,8.9
				c3.4-5.4,0-37,5.9-32.5c5.9,4.4,18.8,36.3,20.6,45.2c-4.7,7.2-61.1,47.4-61.1,47.4L214.7,170.4z"/>
		</g>
		<path class="st5" d="M252.2,180.5l-0.3,0.1c-2.7,1.2-4,4.3-2.9,7.2l0.5,1.2c1.2,2.8,4.4,4.3,7.3,3l0.3-0.1
			c2.8-1.2,4.2-4.4,2.9-7.3l-0.5-1.2C258.3,180.5,255,179.2,252.2,180.5z"/>
		<path class="st6" d="M244.1,177.1l0.4-0.1c2.8-0.9,5.8,0.7,6.8,3.5l0.2,0.5c1.1,3-0.6,6.2-3.6,7.1l-0.4,0.1
			c-2.8,0.9-5.8-0.7-6.8-3.5l-0.2-0.5C239.3,181.3,241,178,244.1,177.1z"/>
		<path class="st7" d="M252.1,189.8h0.3c3.1-0.2,5.8,2.1,5.9,5.2l0,0c0.2,3.1-2.1,5.8-5.2,5.9h-0.3c-3.1,0.2-5.8-2.1-5.9-5.2l0,0
			C246.6,192.8,249,190.1,252.1,189.8z"/>
		<path class="st5" d="M252.6,177.6l0.3,0.2c2.6,1.5,5.9,0.8,7.5-1.8l0.7-1.2c1.7-2.7,0.9-6.1-1.8-7.8l-0.3-0.2
			c-2.7-1.6-6-0.8-7.7,1.8l-0.7,1.2C249,172.5,249.9,175.9,252.6,177.6z"/>
		<path class="st5" d="M207,126l-0.3-0.2c-2.6-1.5-5.9-0.7-7.4,1.9l-0.7,1.2c-1.7,2.7-0.8,6.1,1.9,7.7l0.3,0.2
			c2.7,1.6,6,0.7,7.6-1.9l0.7-1.2C210.6,130.9,209.7,127.5,207,126z"/>
		<path class="st6" d="M204.9,117.4l0.4,0.3c2.4,1.8,2.8,5.1,1.2,7.6l-0.3,0.4c-1.8,2.6-5.4,3.1-7.9,1.2l-0.4-0.3
			c-2.4-1.8-2.9-5.1-1.2-7.6l0.3-0.4C198.8,116,202.4,115.4,204.9,117.4z"/>
		<path class="st7" d="M199.3,131.4l0.2,0.2c1.9,2.4,1.7,5.9-0.7,7.9l0,0c-2.4,1.9-5.9,1.7-7.9-0.7l-0.2-0.2
			c-1.9-2.4-1.7-5.9,0.7-7.9l0,0C193.8,128.7,197.4,129,199.3,131.4z"/>
		<path class="st5" d="M209.5,124.6v0.3c0.3,3,2.8,5.2,5.8,5l1.3-0.1c3.1-0.2,5.5-2.8,5.2-6v-0.3c-0.2-3.1-2.9-5.4-5.9-5.1l-1.3,0.1
			C211.5,118.7,209.2,121.5,209.5,124.6z"/>
		<path class="st6" d="M203.7,131.3v-0.4c0.1-3,2.6-5.4,5.6-5.4h0.5c3.2,0,5.8,2.7,5.6,5.8v0.4c-0.1,3-2.6,5.4-5.6,5.4h-0.5
			C206.1,137.1,203.6,134.4,203.7,131.3z"/>
		<path class="st7" d="M218.5,127.5l0.1-0.3c0.8-3,3.9-4.8,6.8-4l0,0c3,0.8,4.8,3.9,4,6.8l-0.1,0.3c-0.8,3-3.9,4.8-6.8,4l0,0
			C219.5,133.5,217.7,130.4,218.5,127.5z"/>
		<path class="st5" d="M228.6,145.9v-0.3c0.2-3-2-5.6-5-5.9l-1.3-0.1c-3.1-0.3-5.8,2-6.1,5.1v0.3c-0.3,3.1,2,5.8,5.1,6l1.3,0.1
			C225.6,151.4,228.4,149.1,228.6,145.9z"/>
		<path class="st6" d="M235.4,140.2l-0.1,0.4c-0.5,2.9-3.4,5-6.3,4.5l-0.5-0.1c-3.2-0.4-5.3-3.5-4.7-6.6l0.1-0.4
			c0.5-2.9,3.4-5,6.3-4.5l0.5,0.1C233.8,134,236,137.1,235.4,140.2z"/>
		<path class="st7" d="M220.1,141.7L220,142c-1.2,2.8-4.5,4.2-7.4,2.9l0,0c-2.8-1.2-4.2-4.5-2.9-7.4l0.1-0.3
			c1.2-2.8,4.5-4.2,7.4-2.9l0,0C220,135.6,221.4,138.9,220.1,141.7z"/>
		<path class="st6" d="M254.5,186.3l-0.4-0.3c-2.4-1.9-2.8-5.2-1.1-7.7l0.4-0.4c1.9-2.6,5.5-3.1,8-1.2l0.4,0.3
			c2.4,1.9,2.8,5.2,1.1,7.6l-0.4,0.4C260.7,187.7,257,188.3,254.5,186.3z"/>
		<path class="st7" d="M260.2,172l-0.2-0.2c-1.9-2.4-1.6-5.9,0.8-7.9l0,0c2.4-1.9,5.9-1.6,7.9,0.8l0.2,0.2c1.9,2.4,1.6,5.9-0.8,7.9
			l0,0C265.7,174.8,262.1,174.4,260.2,172z"/>
		<path class="st5" d="M281.1,174.8l-0.2-0.2c-2.3-1.9-5.8-1.6-7.7,0.6l-0.9,1c-2,2.3-1.8,5.9,0.5,8l0.3,0.2c2.4,2,5.8,1.7,7.9-0.6
			l0.9-1.1C283.8,180.4,283.5,176.8,281.1,174.8z"/>
		<path class="st6" d="M280.4,165.9l0.3,0.3c2,2.2,2,5.6-0.1,7.7l-0.4,0.4c-2.2,2.3-5.9,2.2-8.1-0.1l-0.3-0.3c-2-2.2-2-5.6,0.1-7.7
			l0.4-0.4C274.5,163.5,278.2,163.6,280.4,165.9z"/>
		<path class="st7" d="M272.7,179.1l0.1,0.2c1.6,2.7,0.7,6.1-1.9,7.6l0,0c-2.7,1.6-6.1,0.7-7.6-1.9l-0.1-0.2
			c-1.6-2.7-0.7-6.1,1.9-7.6l0,0C267.7,175.6,271.2,176.5,272.7,179.1z"/>
		<g>
			<g>
				<path class="st8" d="M199.7,80.7c14.6,11.7,28.7,23.9,42.3,36.7c5,4.6,12.4-2.8,7.4-7.4c-13.6-12.8-27.8-25-42.3-36.7
					C201.9,69,194.4,76.5,199.7,80.7L199.7,80.7z"/>
			</g>
		</g>
		<g>
			<g>
				<path class="st8" d="M186.2,95.6c11.8,9.7,22.9,19.9,33.6,30.8c4.8,4.9,12.2-2.6,7.4-7.4c-10.6-10.9-21.8-21.2-33.6-30.8
					C188.4,83.9,180.9,91.3,186.2,95.6L186.2,95.6z"/>
			</g>
		</g>
	</g>
	<g>
		<g>
			<path class="st9" d="M639.6,212.3c-47.2-5.4-72.1-7.4-72.2-11.3c-0.2-3.9-1.2-34.5,4.1-51.7c5.3-17.2,19.8-31.4,20.8-39.2
				c1.1-7.9-4.8-44.9,5.8-61.6c17.5-3.9,71.5,9.3,88.1,15.2c16.6,5.9,30.5-5.7,43.1-2.8c12.5,2.8,12.7,8.6,11.8,18.8
				c-1,10.2-21.7,71.7-23.6,92.7s-2.4,43.2-6.3,43.9C707,217.2,662.1,214.9,639.6,212.3z"/>
			<path class="st10" d="M729.1,61c-0.7-0.2-1.5-0.3-2.2-0.4c-7.5,16.6-16.7,52.1-28.5,54.5c-14.3,2.9-37.5-25-41.7-16.4
				c-4.3,8.7-10.9,24.8,11.6,33c22.5,8.2,30.6,14.5,21.1,23.3c-8.1,7.5-44.4,39.4-54.5,56.7c1.6,0.2,3.2,0.4,4.9,0.5
				c22.5,2.6,67.4,4.9,71.3,4.1c3.9-0.8,4.4-23,6.3-43.9c1.9-21,22.6-82.5,23.6-92.7C741.7,69.6,741.6,63.9,729.1,61z"/>
			<path class="st10" d="M598,48.6c-10.5,16.7-4.7,53.8-5.8,61.6c-1.1,7.9-15.6,22.1-20.8,39.2c-0.8,2.7-1.5,5.8-2,9
				c7.8-8.1,17.4-16.9,27.6-24.1c26.5-18.5,14.1-26.8,13.7-37.3c-0.3-7.4,0.2-32.7,1.4-48.9C606.5,47.8,601.5,47.8,598,48.6z"/>
			<path class="st11" d="M740.6,69.5c-0.4-1.3-1-2.6-1.9-3.6c-0.8-0.8-1.9-1.6-3.3-2.6c-1.7-0.9-3.7-1.7-6.5-2.3
				c-12.5-2.8-26.5,8.8-43.1,2.8c-16.3-6-69.6-19-87.5-15.4c7.6,6,18,10.8,46.1,15c33.2,5,29.4,19.8,44.1,23
				C701.8,89.5,740.8,79.7,740.6,69.5z"/>
		</g>
		<g>
			<polygon class="st12" points="657.6,187.3 657.3,189.5 674.8,194.5 695.1,195.6 695.8,193.9 			"/>
			<polygon class="st13" points="657.6,187.3 677.6,178.7 695.8,193.9 674.8,192 			"/>
		</g>
		<g>
			<polygon class="st12" points="634.1,183.6 634.5,185.8 652.7,185.2 672.3,180 672.5,178.2 			"/>
			<polygon class="st14" points="634.1,183.6 650.5,169.3 672.5,178.2 651.9,182.8 			"/>
		</g>
		<g>
			<polygon class="st12" points="600.2,183.5 600.7,185.7 618.9,183.9 638.1,177.4 638.2,175.6 			"/>
			<polygon class="st15" points="600.2,183.5 615.6,168.1 638.2,175.6 617.9,181.5 			"/>
		</g>
		<g>
			<polygon class="st12" points="650.7,171.3 649.2,173.1 661.3,186.8 677.8,198.5 679.4,197.6 			"/>
			<polygon class="st16" points="650.7,171.3 672.2,174.9 679.4,197.6 662.6,184.6 			"/>
		</g>
		<g>
			<polygon class="st12" points="616.4,184.1 616.3,186.3 634.1,189.9 654.4,189.2 655,187.5 			"/>
			<polygon class="st16" points="616.4,184.1 635.6,173.8 655,187.5 633.9,187.4 			"/>
		</g>
		<path class="st17" d="M705,126c1.2-9.8-5.6-16.7-20.3-20.7c-6.8-1.9-4-9.7-19-12c-23.6-3.7-44.4,6.7-46.3,21.8
			c-1.9,15.1,15.7,29.8,39.3,32.8C682.3,150.8,703,141,705,126z"/>
		<g>
			<polygon class="st12" points="653.7,171.8 653.4,174 670.9,179.1 691.1,180.1 691.9,178.4 			"/>
			<polygon class="st16" points="653.7,171.8 673.7,163.2 691.9,178.4 670.9,176.6 			"/>
		</g>
		<g>
			<polygon class="st12" points="619.2,165.9 618.9,168.1 636.4,173.3 656.7,174.3 657.5,172.6 			"/>
			<polygon class="st16" points="619.2,165.9 639.2,157.3 657.5,172.6 636.4,170.6 			"/>
		</g>
	</g>
	<g>
		<path class="st0" d="M754.8,140.6c0,0-5.9,43.7-4.5,45.6c1.4,1.9,12.3,11.9,16.8,13.4c4.5,1.4,122.3,20.2,122.3,20.2l9.1-55.5
			L754.8,140.6z"/>
		<path class="st18" d="M922,206.6c0,0,9-9.3,9.4-11.7c0.4-2.4,7.2-43.4,7.2-43.4l-40,12.9l-9.1,55.5
			C889.5,219.8,920.3,208.4,922,206.6z"/>
		<g>
			<path class="st19" d="M827.5,166.2c-3.3-0.5-6.4,1.7-6.9,5l-6,36.5c3.9,0.6,7.9,1.2,11.8,1.9l6-36.5
				C833,169.8,830.8,166.7,827.5,166.2z"/>
			<path class="st19" d="M875.1,174.1c-3.3-0.5-6.4,1.7-6.9,5l-6,36.3c4.3,0.7,8.3,1.3,11.8,1.9l6-36.3
				C880.6,177.7,878.4,174.6,875.1,174.1z"/>
			<path class="st19" d="M851.3,170.2c-3.3-0.5-6.4,1.7-6.9,5l-6,36.4c4,0.6,8,1.3,11.8,1.9l6-36.4
				C856.8,173.8,854.6,170.7,851.3,170.2z"/>
			<path class="st19" d="M779.8,158.4c-3.3-0.5-6.4,1.7-6.9,5l-6,36.1c0.1,0,0.2,0.1,0.2,0.1c0.8,0.3,5,1.1,11.6,2.1l6-36.5
				C785.3,161.9,783.1,158.9,779.8,158.4z"/>
			<path class="st19" d="M803.7,162.3c-3.3-0.5-6.4,1.7-6.9,5l-6,36.5c3.7,0.6,7.6,1.2,11.8,1.9l6-36.5
				C809.1,165.9,806.9,162.8,803.7,162.3z"/>
		</g>
		<polygon class="st18" points="754.8,140.6 807,129.8 938.6,151.4 898.7,164.3 		"/>
		<g>
			<path class="st20" d="M752.6,141.9c-0.3-0.4-0.4-0.8-0.4-1.3c0-1.2,0.8-2.3,2-2.6l52.2-10.8c0.3-0.1,0.6-0.1,1,0l131.6,21.6
				c1.2,0.2,2,1.2,2.1,2.3s-0.6,2.3-1.8,2.7l-40,12.9c-0.4,0.1-0.8,0.2-1.2,0.1l-143.9-23.7C753.7,143,753.1,142.5,752.6,141.9z
				 M807,132.4l-38.2,7.9l129.6,21.4l29.2-9.5L807,132.4z"/>
		</g>
	</g>
	<g>
		<path class="st0" d="M763.6,102.2c0,0,8.3-43.3,10.3-44.6c1.9-1.4,15.5-7.4,20.2-7.3c4.8,0.1,122.4,19.8,122.4,19.8l-8.9,55.5
			L763.6,102.2z"/>
		<path class="st18" d="M943.1,92.8c0,0,5.6,11.6,5.2,14.1c-0.4,2.4-7,43.5-7,43.5l-33.8-25l8.9-55.5C916.4,70,942,90.6,943.1,92.8z
			"/>
		<g>
			<path class="st19" d="M840.7,101c-3.3-0.5-5.5-3.6-5-6.8l5.9-36.5c3.9,0.6,7.8,1.2,11.8,1.9l-5.9,36.5
				C847,99.3,843.9,101.5,840.7,101z"/>
			<path class="st19" d="M888.3,108.7c-3.3-0.5-5.5-3.6-5-6.8l5.8-36.4c4.3,0.7,8.3,1.4,11.8,1.9l-5.8,36.3
				C894.6,107,891.6,109.2,888.3,108.7z"/>
			<path class="st19" d="M864.5,104.9c-3.3-0.5-5.5-3.6-5-6.8l5.8-36.5c4,0.6,8,1.3,11.8,1.9l-5.8,36.4
				C870.8,103.2,867.8,105.4,864.5,104.9z"/>
			<path class="st19" d="M792.9,93.3c-3.3-0.5-5.5-3.6-5-6.8l5.8-36.1c0.1,0,0.2,0,0.2,0c0.8,0,5.1,0.6,11.7,1.6l-5.9,36.5
				C799.3,91.6,796.2,93.8,792.9,93.3z"/>
			<path class="st19" d="M816.8,97.2c-3.3-0.5-5.5-3.6-5-6.8l5.9-36.5c3.7,0.6,7.6,1.2,11.8,1.9l-5.9,36.6
				C823.1,95.5,820,97.7,816.8,97.2z"/>
		</g>
		<polygon class="st18" points="763.6,102.2 809.6,129 941.2,150.4 907.5,125.4 		"/>
		<g>
			<path class="st20" d="M764,99.7L907.8,123c0.4,0.1,0.8,0.3,1.2,0.4l33.8,25c1,0.7,1.3,1.9,0.8,3.1c-0.4,1.1-1.6,1.7-2.7,1.5
				l-131.6-21.3c-0.4-0.1-0.6-0.2-0.9-0.4l-46-26.8c-1.1-0.6-1.5-1.9-1.2-3.1c0.2-0.4,0.4-0.8,0.8-1.1
				C762.5,99.8,763.3,99.6,764,99.7z M931.2,146.2l-24.7-18.2l-129.7-21l33.7,19.7L931.2,146.2z"/>
		</g>
	</g>
	<g>
		<path class="st8" d="M438.9,90.3L438.9,90.3c2.4-2.6-2.9,3.8-2.4,3.1l0,0h-0.1l-0.2-0.2l-0.4-0.4l-0.9-0.6l-1.7-1.2
			c-1.2-0.9-2.3-1.7-3.5-2.5c-1.2-0.8-2.3-1.6-3.5-2.4c-1.2-0.8-2.3-1.6-3.5-2.3c-1.2-0.8-2.4-1.5-3.5-2.2c-1.2-0.7-2.4-1.4-3.6-1.9
			c-2.4-1.2-5-2-7.6-2.7c-1.3-0.4-2.7-0.6-4-0.9c-1.3-0.3-2.7-0.4-4-0.4c-1.3-0.1-2.6,0-3.8,0.1c-1.2,0.2-2.4,0.4-3.5,0.9
			c-1.1,0.4-1.9,1.1-2.7,1.8c-0.4,0.4-0.7,0.8-1,1.2c-0.1,0.1-0.2,0.3-0.2,0.4c-0.1,0.1-0.1,0.3-0.2,0.4l-0.2,0.4l-0.1,0.2
			c0,0.1-0.1,0.2-0.1,0.2c-0.9,2.2-1.2,4.8-1.1,7.4c0,1.3,0.2,2.7,0.4,4c0.2,1.3,0.5,2.7,0.9,4c0.7,2.7,1.7,5.2,2.7,7.7
			c0.5,1.2,1.2,2.5,1.9,3.7c0.6,1.2,1.3,2.4,2,3.6c0.7,1.2,1.5,2.3,2.3,3.5c0.2,0.3,0.4,0.5,0.6,0.9l0.6,0.9
			c0.4,0.5,0.9,1.2,1.3,1.7c1.7,2.3,3.5,4.5,5.2,6.8l5.3,6.7l10.7,13.5l-3,2.5c-1.9-2.2-3.7-4.3-5.6-6.6c-1.9-2.2-3.7-4.4-5.5-6.6
			c-1.9-2.2-3.6-4.4-5.5-6.6c-1.9-2.2-3.6-4.4-5.4-6.7c-0.4-0.5-0.9-1.2-1.3-1.7l-0.7-0.9c-0.2-0.3-0.4-0.6-0.7-0.9
			c-0.9-1.2-1.8-2.4-2.6-3.7c-0.8-1.2-1.6-2.6-2.3-3.8c-0.2-0.4-0.4-0.6-0.5-1c-0.2-0.4-0.4-0.6-0.5-1l-0.5-1
			c-0.2-0.4-0.4-0.7-0.4-1c-1.2-2.7-2.3-5.5-3.1-8.4c-0.4-1.4-0.7-2.9-1-4.4c-0.1-0.4-0.1-0.8-0.2-1.2l-0.2-1.2l-0.1-1.2
			c0-0.4,0-0.8-0.1-1.2c-0.1-1.6,0-3.2,0.2-4.8s0.6-3.2,1.2-4.8c0-0.1,0.1-0.2,0.1-0.3l0.1-0.3l0.3-0.6c0.1-0.2,0.2-0.4,0.3-0.6
			c0.1-0.2,0.3-0.4,0.4-0.6c0.4-0.8,1.1-1.5,1.7-2.1c1.2-1.3,2.8-2.3,4.4-2.9c1.6-0.7,3.3-1.1,4.9-1.2c1.6-0.2,3.2-0.2,4.8-0.2
			c1.6,0.1,3.1,0.3,4.6,0.5c1.5,0.3,3,0.6,4.4,1.1c2.9,0.8,5.8,1.9,8.5,3.3c0.7,0.4,1.4,0.7,2,1.1c0.6,0.4,1.3,0.8,1.9,1.2
			c1.2,0.8,2.5,1.6,3.7,2.4c1.2,0.8,2.4,1.7,3.5,2.6s2.3,1.8,3.5,2.7S435,87,436,88c0.5,0.4,1.2,1,1.7,1.4l0.8,0.7l0.4,0.4
			L438.9,90.3L438.9,90.3L438.9,90.3c0.6-0.6-4.7,5.8-2.4,3.1l-0.1-0.1L438.9,90.3z"/>
		<path class="st8" d="M499.3,80.7L499.3,80.7c-4.8,5.8-1.2,1.7-2.4,2.9l0,0h-0.1l-0.2-0.2l-0.4-0.4l-0.9-0.7l-1.7-1.3
			c-1.2-0.9-2.3-1.8-3.5-2.7c-1.2-0.9-2.3-1.7-3.5-2.6c-1.2-0.8-2.3-1.7-3.5-2.5c-1.2-0.8-2.4-1.6-3.6-2.3c-1.2-0.7-2.4-1.5-3.6-2.1
			c-1.2-0.6-2.5-1.2-3.7-1.7c-1.3-0.5-2.6-1-3.9-1.4c-2.7-0.8-5.4-1.4-8.1-1.6c-1.3-0.1-2.7-0.2-4-0.1c-1.3,0.1-2.6,0.3-3.7,0.7
			c-1.2,0.4-2.2,0.9-3.1,1.6c-0.4,0.4-0.8,0.8-1.2,1.2c-0.2,0.3-0.4,0.4-0.4,0.7c-0.1,0.1-0.2,0.3-0.2,0.4l-0.1,0.2
			c0,0.1-0.1,0.2-0.1,0.2c-1.1,2.2-1.5,4.9-1.5,7.5s0.4,5.4,1.1,8.1c0.7,2.7,1.6,5.3,2.7,7.9c1.2,2.6,2.4,5,3.9,7.5
			c0.7,1.2,1.5,2.4,2.3,3.5c0.2,0.3,0.4,0.5,0.6,0.9c0.2,0.3,0.4,0.5,0.6,0.9c0.4,0.6,0.9,1.2,1.3,1.8c3.5,4.6,7.1,9.1,10.7,13.7
			c3.6,4.5,7.3,9.1,10.9,13.6l-2.5,2c-3.8-4.4-7.5-8.9-11.3-13.4c-1.9-2.2-3.7-4.5-5.6-6.7c-1.9-2.3-3.6-4.5-5.5-6.8
			c-0.4-0.5-0.9-1.2-1.3-1.8c-0.3-0.3-0.4-0.5-0.7-0.9c-0.3-0.3-0.4-0.6-0.7-0.9c-0.9-1.2-1.7-2.5-2.5-3.7c-1.6-2.6-3-5.2-4.3-8
			c-1.2-2.7-2.3-5.6-3-8.5c-0.8-2.9-1.2-6-1.3-9.1c0-1.6,0.1-3.2,0.4-4.8s0.8-3.2,1.5-4.7c0.1-0.1,0.1-0.2,0.2-0.3l0.2-0.3
			c0.1-0.2,0.2-0.4,0.4-0.5c0.3-0.4,0.4-0.7,0.8-1.1c0.5-0.7,1.2-1.3,1.9-1.9c1.4-1.2,2.9-1.9,4.5-2.5c1.6-0.5,3.2-0.8,4.8-0.9
			c1.6-0.1,3.2-0.1,4.7,0.1c3.1,0.3,6.1,1,8.9,1.9c2.9,0.9,5.8,2,8.4,3.5s5.1,3.1,7.5,4.8s4.8,3.5,7.1,5.3c1.2,0.9,2.3,1.9,3.5,2.7
			c0.5,0.4,1.2,1,1.7,1.4l0.8,0.7l0.4,0.4L499.3,80.7L499.3,80.7L499.3,80.7c-1,1.3,2.5-2.7-2.3,2.9l-0.1-0.1L499.3,80.7z"/>
		<path class="st8" d="M537,91.2c-1.5-3.2-12.1-10.7-32.9-14.8c-0.9-0.2-2.2-0.5-3-0.3c-0.3,0.1-0.6,0.4-1.1,1
			c-6.5,8.4-33.2,69.4-33.2,69.4L537,91.2z"/>
		<path class="st21" d="M499.8,91.7c1.5-5.4,4.2-8.7,5-9.6c0.9-0.9,23.9,7.4,25,9.2C530.9,93.2,499.8,91.7,499.8,91.7z"/>
		<path class="st8" d="M431,81.2c2.6-3.3,63.7,8,96.4,9.8c3.7,0.2,9.7,0.1,9.7,0.1s0.9,1.9,1.1,5.5c0.4,9.9,0.5,30.7-5.4,44.8
			c-11.3,26.9-19.8,34-36.9,48.8c-2.2,1.9-4.8,3.3-8.1,5c-1,0.5-2.7,1.3-4,1.9c-4.3,1.9-6.2,2.1-14.6-1.9c-3.9-1.9-10.2-5-15.2-8.2
			c-5-3.2-30.7-25.1-39.4-36.9c-1-1.3-1.9-2.7-1.9-3.3c0-0.6,1.1-2,1.8-3c5.1-7,12.2-16.9,13.6-28C429.7,101.7,429.2,83.5,431,81.2z
			"/>
		<path class="st21" d="M532.7,141.4c-11.3,26.9-19.8,34-36.9,48.8c-2.2,1.9-4.9,3.4-8.1,5c-7.9-2.5-26.2-12.7-35.3-19.8
			c-9.3-7.3-29.8-24.8-30.1-27.6c-0.4-2.8,9.5-17.1,12.6-24.7c1.9-4.8,1.8-30.6,2.8-33.6c1.2-3.2,35.5,2.1,50.1,5.7
			c14.1,3.4,48.3,4,50.2,4.1C538.5,109.9,538.2,128.5,532.7,141.4z"/>
		<g>
			<g>
				<defs>
					<path id="SVGID_1_" d="M532.7,141.4c-11.3,26.9-19.8,34-36.9,48.8c-2.2,1.9-4.9,3.7-8.1,5c-7.9-2.5-26.2-12.7-35.3-19.8
						c-9.3-7.3-29.8-24.8-30.1-27.6c-0.4-2.8,9.5-17.1,12.6-24.7c1.9-4.8,1.8-30.6,2.8-33.6c1.2-3.2,35.5,2.1,50.1,5.7
						c14.1,3.4,48.3,4,50.2,4.1C538.5,109.9,538.2,128.5,532.7,141.4z"/>
				</defs>
				<clipPath id="SVGID_00000067939689211604064250000004918545191178186116_">
					<use xlink:href="#SVGID_1_"  style="overflow:visible;"/>
				</clipPath>
				<path style="clip-path:url(#SVGID_00000067939689211604064250000004918545191178186116_);fill:#399BC8;" d="M454.3,110.1
					l1.3,0.1l1.3,0.1l2.7,0.2c0.9,0.1,1.8,0.2,2.7,0.3c0.9,0.1,1.8,0.2,2.7,0.4c0.9,0.2,1.8,0.3,2.7,0.4l1.3,0.2
					c0.4,0.1,0.9,0.2,1.3,0.3c1.8,0.3,3.5,0.6,5.2,1.1c7,1.5,13.8,3.5,20.6,5c6.8,1.7,13.6,2.9,20.6,3.4l2.6,0.2
					c0.9,0,1.7,0.1,2.6,0.1c1.7,0,3.5,0,5.1-0.1c3.5-0.2,6.8-0.5,10.2-1.1l0,0c2-0.4,4,1.1,4.3,3.1c0.4,2-1.1,4-3.1,4.3
					c-0.1,0-0.3,0-0.4,0c-3.6,0.2-7.4,0.3-11,0.1c-1.9-0.1-3.6-0.3-5.5-0.4c-0.9-0.1-1.8-0.2-2.7-0.3l-2.7-0.4
					c-3.6-0.5-7.2-1.3-10.6-2.2l-2.6-0.7l-2.6-0.7l-2.6-0.8l-2.6-0.8c-6.8-2.2-13.4-4.6-20.1-6.6c-0.9-0.3-1.7-0.4-2.6-0.7
					c-0.9-0.3-1.7-0.4-2.6-0.6c-0.2-0.1-0.4-0.1-0.6-0.2l-0.6-0.2l-1.3-0.3c-0.4-0.1-0.9-0.2-1.3-0.3l-1.3-0.3
					c-3.5-0.6-6.9-0.9-10.5-0.9l0,0c-0.4,0-0.8-0.4-0.8-0.8C453.5,110.5,453.8,110.1,454.3,110.1L454.3,110.1z"/>
			</g>
			<g>
				<defs>
					<path id="SVGID_00000114774311730613503360000012186103862225797779_" d="M532.7,141.4c-11.3,26.9-19.8,34-36.9,48.8
						c-2.2,1.9-4.9,3.7-8.1,5c-7.9-2.5-26.2-12.7-35.3-19.8c-9.3-7.3-29.8-24.8-30.1-27.6c-0.4-2.8,9.5-17.1,12.6-24.7
						c1.9-4.8,1.8-30.6,2.8-33.6c1.2-3.2,35.5,2.1,50.1,5.7c14.1,3.4,48.3,4,50.2,4.1C538.5,109.9,538.2,128.5,532.7,141.4z"/>
				</defs>
				<clipPath id="SVGID_00000041983356922445673560000015518036239046059436_">
					<use xlink:href="#SVGID_00000114774311730613503360000012186103862225797779_"  style="overflow:visible;"/>
				</clipPath>
				<path style="clip-path:url(#SVGID_00000041983356922445673560000015518036239046059436_);fill:#399BC8;" d="M450.6,127.1
					c3.4,0.5,6.7,1.4,10,2.4l1.2,0.4c0.4,0.1,0.8,0.3,1.2,0.4c0.8,0.3,1.6,0.5,2.4,0.8c0.8,0.3,1.6,0.5,2.4,0.9l2.4,0.9
					c6.4,2.4,12.6,5.3,18.8,8.1c3.1,1.4,6.2,2.8,9.2,4.2c3.1,1.3,6.2,2.7,9.3,3.7c0.8,0.3,1.6,0.5,2.3,0.8l1.2,0.4
					c0.4,0.1,0.8,0.3,1.2,0.4c1.6,0.4,3.1,0.9,4.7,1.3l1.2,0.3l0.3,0.1l0.3,0.1l0.6,0.1l1.2,0.2l1.2,0.2l0.6,0.1c0.1,0,0.2,0,0.3,0
					h0.3l1.2,0.1c0.2,0,0.4,0,0.5,0h0.5h1.2h0.2c2,0.1,3.7,1.8,3.6,3.8c-0.1,2-1.8,3.7-3.8,3.6c-0.2,0-0.3,0-0.4,0l-1.4-0.2
					l-0.7-0.1c-0.3,0-0.4-0.1-0.7-0.1c-0.9-0.2-1.9-0.4-2.7-0.5l-1.3-0.4l-1.3-0.4l-0.6-0.2l-0.4-0.1l-0.4-0.1l-1.2-0.4
					c-1.7-0.6-3.4-1.2-5-1.9c-0.8-0.4-1.6-0.7-2.4-1.1c-0.8-0.4-1.6-0.7-2.4-1.1c-3.1-1.5-6.2-3.1-9.1-4.7c-1.5-0.8-3-1.6-4.5-2.5
					L487,144c-5.9-3.3-11.9-6.6-17.9-9.4c-0.8-0.4-1.5-0.7-2.3-1.1c-0.8-0.4-1.5-0.6-2.3-1c-0.8-0.4-1.6-0.6-2.3-0.9
					c-0.8-0.3-1.6-0.5-2.4-0.8c-3.2-1.1-6.5-1.9-9.7-2.3l0,0c-0.4-0.1-0.7-0.4-0.7-0.9C449.8,127.4,450.2,127,450.6,127.1
					L450.6,127.1z"/>
			</g>
			<g>
				<defs>
					<path id="SVGID_00000000931719283203940110000011752950213092589976_" d="M532.7,141.4c-11.3,26.9-19.8,34-36.9,48.8
						c-2.2,1.9-4.9,3.7-8.1,5c-7.9-2.5-26.2-12.7-35.3-19.8c-9.3-7.3-29.8-24.8-30.1-27.6c-0.4-2.8,9.5-17.1,12.6-24.7
						c1.9-4.8,1.8-30.6,2.8-33.6c1.2-3.2,35.5,2.1,50.1,5.7c14.1,3.4,48.3,4,50.2,4.1C538.5,109.9,538.2,128.5,532.7,141.4z"/>
				</defs>
				<clipPath id="SVGID_00000168828688196964471520000011001186631182361273_">
					<use xlink:href="#SVGID_00000000931719283203940110000011752950213092589976_"  style="overflow:visible;"/>
				</clipPath>
				<path style="clip-path:url(#SVGID_00000168828688196964471520000011001186631182361273_);fill:#399BC8;" d="M445.3,143.8
					c2.1,2,4.5,3.8,7.1,5.5c2.5,1.7,5.1,3.2,7.7,4.6c1.3,0.7,2.7,1.4,4,2c1.3,0.7,2.7,1.3,4.1,1.9c2.7,1.3,5.5,2.6,8.2,3.8
					c2.7,1.2,5.5,2.6,8.2,3.9c0.7,0.4,1.3,0.7,2,1.1c0.7,0.4,1.3,0.7,2,1.1s1.3,0.7,2,1.1s1.3,0.7,2,1.2c0.7,0.4,1.3,0.8,2,1.2
					l1.9,1.2c0.6,0.4,1.3,0.9,1.9,1.2l1.9,1.3l1.9,1.4c0.6,0.4,1.2,1,1.9,1.4l1.9,1.5l0.9,0.8c0.2,0.1,0.2,0.4,0.1,0.8
					c-0.1,0.3-0.2,0.4-0.4,0.8c-0.2,0.4-0.4,0.7-0.7,1.2c-0.4,0.5-0.7,1-1.2,1.3H505c-0.5,0.4-0.8,0.6-1.2,0.9
					c-0.3,0.2-0.5,0.4-0.8,0.4c-0.4,0.2-0.7,0.2-0.8,0.1l-0.8-0.7l-1.7-1.4c-0.5-0.4-1.2-0.9-1.7-1.3l-1.8-1.3
					c-0.6-0.4-1.2-0.9-1.8-1.3c-0.6-0.4-1.2-0.9-1.8-1.2L491,177c-0.6-0.4-1.2-0.8-1.9-1.2c-1.2-0.8-2.5-1.7-3.7-2.5
					c-1.2-0.8-2.5-1.7-3.7-2.5c-2.5-1.6-5-3.3-7.6-4.9l-7.7-4.9c-2.6-1.7-5.1-3.3-7.6-5c-5-3.4-10-7-14.5-11.2
					c-0.4-0.3-0.4-0.8-0.1-1.2C444.5,143.5,445.1,143.5,445.3,143.8L445.3,143.8L445.3,143.8z"/>
			</g>
		</g>
		<g>
			<g>
				<path class="st21" d="M478.2,195.6C478.2,195.6,478.1,195.6,478.2,195.6c-0.1,0-0.2,0-0.2,0c-0.2,0-0.4-0.3-0.3-0.4
					c0-0.2,0.3-0.4,0.4-0.3h0.1c0.2,0,0.4,0.3,0.4,0.4C478.5,195.4,478.4,195.6,478.2,195.6z"/>
			</g>
			<g>
				<path class="st21" d="M475.1,194.5c-0.1,0-0.1,0-0.2,0c-0.1,0-0.2-0.1-0.3-0.1c-0.2-0.1-0.3-0.4-0.2-0.5
					c0.1-0.2,0.4-0.3,0.5-0.2c0.1,0,0.2,0.1,0.3,0.1c0.2,0.1,0.3,0.4,0.2,0.5C475.4,194.5,475.2,194.5,475.1,194.5z M471.9,193.2
					c-0.1,0-0.1,0-0.2,0l-0.3-0.1c-0.2-0.1-0.3-0.4-0.2-0.5c0.1-0.2,0.4-0.3,0.5-0.2l0.3,0.1c0.2,0.1,0.3,0.4,0.2,0.5
					C472.2,193.1,472.1,193.2,471.9,193.2z M468.8,191.8c-0.1,0-0.1,0-0.2,0l-0.3-0.1c-0.2-0.1-0.3-0.4-0.2-0.5
					c0.1-0.2,0.4-0.3,0.5-0.2l0.3,0.1c0.2,0.1,0.3,0.4,0.2,0.5C469.1,191.7,469,191.8,468.8,191.8z M465.7,190.3c-0.1,0-0.1,0-0.2,0
					l-0.3-0.1c-0.2-0.1-0.3-0.4-0.2-0.5s0.4-0.3,0.5-0.2l0.3,0.1c0.2,0.1,0.3,0.4,0.2,0.5C466,190.2,465.9,190.3,465.7,190.3z
					 M462.6,188.8c-0.1,0-0.1,0-0.2-0.1c-0.1,0-0.2-0.1-0.3-0.1c-0.2-0.1-0.3-0.4-0.2-0.5c0.1-0.2,0.4-0.3,0.5-0.2
					c0.1,0,0.2,0.1,0.3,0.1c0.2,0.1,0.3,0.4,0.2,0.5C463,188.7,462.8,188.8,462.6,188.8z M459.7,187c-0.1,0-0.2,0-0.2-0.1l-0.3-0.2
					c-0.2-0.1-0.3-0.4-0.1-0.5c0.1-0.2,0.4-0.3,0.5-0.1l0.2,0.2c0.2,0.1,0.3,0.4,0.1,0.5C459.9,186.9,459.8,187,459.7,187z
					 M456.8,185.1c-0.1,0-0.2,0-0.3-0.1l-0.2-0.2c-0.2-0.1-0.2-0.4-0.1-0.5c0.1-0.2,0.4-0.2,0.5-0.1l0.2,0.2
					c0.2,0.1,0.2,0.4,0.1,0.5C457.1,185,457,185.1,456.8,185.1z M454.1,183c-0.1,0-0.2,0-0.3-0.1l-0.2-0.2c-0.2-0.1-0.2-0.4-0.1-0.5
					c0.1-0.2,0.4-0.2,0.5-0.1l0.2,0.2c0.2,0.1,0.2,0.4,0.1,0.5C454.4,182.9,454.3,183,454.1,183z M451.4,180.9c-0.1,0-0.2,0-0.3-0.1
					l-0.2-0.2c-0.2-0.2-0.2-0.4-0.1-0.5c0.2-0.2,0.4-0.2,0.5-0.1l0.2,0.2c0.2,0.2,0.2,0.4,0.1,0.5S451.5,180.9,451.4,180.9z
					 M448.7,178.8c-0.1,0-0.2,0-0.3-0.1l-0.2-0.2c-0.2-0.2-0.2-0.4-0.1-0.5c0.2-0.2,0.4-0.2,0.5-0.1l0.2,0.2
					c0.2,0.2,0.2,0.4,0.1,0.5C449,178.7,448.9,178.8,448.7,178.8z M446.1,176.6c-0.1,0-0.2,0-0.3-0.1l-0.2-0.2
					c-0.2-0.2-0.2-0.4,0-0.5c0.2-0.2,0.4-0.2,0.5,0l0.2,0.2c0.2,0.2,0.2,0.4,0.1,0.5C446.3,176.6,446.2,176.6,446.1,176.6z
					 M443.6,174.3c-0.1,0-0.2,0-0.3-0.1l-0.2-0.2c-0.2-0.2-0.2-0.4,0-0.5c0.2-0.2,0.4-0.2,0.5,0l0.2,0.2c0.2,0.2,0.2,0.4,0,0.5
					C443.7,174.3,443.6,174.3,443.6,174.3z M441,172c-0.1,0-0.2,0-0.3-0.1c0,0-0.2-0.2-0.2-0.4c0-0.3,0.3-0.4,0.4-0.4
					s0.3,0.2,0.3,0.2c0.2,0.2,0.2,0.4,0,0.5C441.2,172,441.1,172,441,172z M438.4,169.7c-0.1,0-0.2,0-0.3-0.1l-0.2-0.2
					c-0.2-0.2-0.2-0.4,0-0.5c0.2-0.2,0.4-0.2,0.5,0l0.2,0.2c0.2,0.2,0.2,0.4,0,0.5C438.7,169.7,438.6,169.7,438.4,169.7z
					 M435.9,167.3c-0.1,0-0.2,0-0.3-0.1l-0.2-0.2c-0.2-0.2-0.2-0.4,0-0.5c0.2-0.2,0.4-0.2,0.5,0l0.2,0.2c0.2,0.2,0.2,0.4,0,0.5
					C436.2,167.3,436,167.3,435.9,167.3z M433.5,165c-0.1,0-0.2,0-0.3-0.1l-0.2-0.2c-0.2-0.2-0.2-0.4,0-0.5c0.2-0.2,0.4-0.2,0.5,0
					l0.2,0.2c0.2,0.2,0.2,0.4,0,0.5C433.7,165,433.5,165,433.5,165z M431.1,162.6c-0.1,0-0.2,0-0.3-0.1l-0.2-0.2
					c-0.2-0.2-0.2-0.4,0-0.5c0.2-0.2,0.4-0.2,0.5,0l0.2,0.2c0.2,0.2,0.2,0.4,0,0.5C431.2,162.6,431.1,162.6,431.1,162.6z
					 M428.6,160.2c-0.1,0-0.2,0-0.3-0.1l-0.2-0.2c-0.2-0.2-0.2-0.4,0-0.5c0.2-0.2,0.4-0.2,0.5,0l0.2,0.2c0.2,0.2,0.2,0.4,0,0.5
					C428.8,160.1,428.7,160.2,428.6,160.2z M426.2,157.7c-0.1,0-0.2,0-0.3-0.1l-0.2-0.2c-0.2-0.2-0.2-0.4,0-0.5
					c0.2-0.2,0.4-0.2,0.5,0l0.2,0.2c0.2,0.2,0.2,0.4,0,0.5C426.4,157.7,426.3,157.7,426.2,157.7z M423.8,155.2c-0.1,0-0.2,0-0.3-0.1
					l-0.2-0.2c-0.2-0.2-0.2-0.4,0-0.5c0.2-0.2,0.4-0.2,0.5,0l0.2,0.2c0.2,0.2,0.2,0.4,0,0.5C424.1,155.2,424,155.2,423.8,155.2z
					 M421.5,152.7c-0.1,0-0.2,0-0.3-0.1l-0.2-0.2c-0.2-0.2-0.2-0.4,0-0.5c0.2-0.2,0.4-0.2,0.5,0l0.2,0.2c0.2,0.2,0.2,0.4,0,0.5
					C421.7,152.7,421.6,152.7,421.5,152.7z M419.2,150.2c-0.1,0-0.2-0.1-0.3-0.2l-0.2-0.2c-0.2-0.2-0.1-0.4,0-0.5
					c0.2-0.2,0.4-0.1,0.5,0l0.2,0.2c0.2,0.2,0.1,0.4,0,0.5C419.4,150.2,419.3,150.2,419.2,150.2z M417.5,147.4c-0.1,0-0.1,0-0.2,0
					c-0.2-0.1-0.3-0.3-0.3-0.5c0-0.1,0.1-0.2,0.1-0.3c0.1-0.2,0.4-0.3,0.5-0.2s0.3,0.4,0.2,0.5c0,0.1-0.1,0.2-0.1,0.3
					C417.9,147.3,417.7,147.4,417.5,147.4z M419.1,144.3c-0.1,0-0.2,0-0.2-0.1c-0.2-0.1-0.3-0.4-0.2-0.5l0.1-0.3
					c0.1-0.2,0.4-0.3,0.5-0.2s0.3,0.4,0.2,0.5l-0.1,0.3C419.4,144.3,419.3,144.3,419.1,144.3z M420.9,141.4c-0.1,0-0.2,0-0.2-0.1
					c-0.2-0.1-0.3-0.4-0.2-0.5l0.2-0.3c0.1-0.2,0.4-0.3,0.5-0.2c0.2,0.1,0.3,0.4,0.2,0.5l-0.2,0.3
					C421.1,141.3,421,141.4,420.9,141.4z M422.6,138.5c-0.1,0-0.2,0-0.2-0.1c-0.2-0.1-0.3-0.4-0.2-0.5l0.1-0.3
					c0.1-0.2,0.4-0.3,0.5-0.2s0.3,0.4,0.2,0.5l-0.1,0.3C422.9,138.4,422.7,138.5,422.6,138.5z M424.3,135.5c-0.1,0-0.1,0-0.2-0.1
					c-0.2-0.1-0.3-0.4-0.2-0.5l0.1-0.3c0.1-0.2,0.4-0.3,0.5-0.2s0.3,0.4,0.2,0.5l-0.1,0.3C424.6,135.4,424.4,135.5,424.3,135.5z
					 M425.9,132.4c-0.1,0-0.1,0-0.2-0.1c-0.2-0.1-0.3-0.4-0.2-0.5l0.1-0.3c0.1-0.2,0.4-0.3,0.5-0.2s0.3,0.4,0.2,0.5l-0.1,0.3
					C426.3,132.4,426.1,132.4,425.9,132.4z M427.5,129.4c-0.1,0-0.1,0-0.2,0c-0.2-0.1-0.3-0.4-0.2-0.5l0.1-0.3
					c0.1-0.2,0.4-0.3,0.5-0.2s0.3,0.4,0.2,0.5l-0.1,0.3C427.9,129.3,427.7,129.4,427.5,129.4z M429,126.3c-0.1,0-0.1,0-0.2,0
					c-0.2-0.1-0.3-0.4-0.2-0.5l0.1-0.3c0.1-0.2,0.4-0.3,0.5-0.2s0.3,0.4,0.2,0.5l-0.1,0.3C429.3,126.2,429.2,126.3,429,126.3z
					 M430.4,123.1c-0.1,0-0.1,0-0.2,0c-0.2-0.1-0.3-0.3-0.3-0.5c0-0.1,0.1-0.2,0.1-0.3c0.1-0.2,0.3-0.3,0.5-0.3
					c0.2,0.1,0.3,0.3,0.3,0.5c0,0.1-0.1,0.2-0.1,0.3C430.6,123.1,430.5,123.1,430.4,123.1z M431.4,119.9L431.4,119.9
					c-0.3-0.1-0.4-0.3-0.4-0.4c0-0.1,0.1-0.2,0.1-0.3c0.1-0.2,0.3-0.4,0.4-0.3c0.2,0.1,0.4,0.3,0.3,0.4c0,0.1-0.1,0.2-0.1,0.3
					C431.8,119.8,431.6,119.9,431.4,119.9z M432,116.5L432,116.5c-0.3,0-0.4-0.3-0.4-0.4c0-0.1,0-0.2,0-0.3c0-0.2,0.3-0.4,0.4-0.4
					s0.4,0.3,0.4,0.4c0,0.1,0,0.2,0,0.3C432.5,116.4,432.3,116.5,432,116.5z M432.5,113.1C432.4,113.1,432.4,113.1,432.5,113.1
					c-0.3,0-0.4-0.2-0.4-0.4v-0.3c0-0.2,0.2-0.4,0.4-0.4c0.2,0,0.4,0.2,0.4,0.4v0.3C432.8,113,432.7,113.1,432.5,113.1z
					 M432.7,109.7C432.7,109.7,432.7,109.7,432.7,109.7c-0.3,0-0.4-0.2-0.4-0.4V109c0-0.2,0.2-0.4,0.4-0.4c0.2,0,0.4,0.2,0.4,0.4
					v0.3C433.1,109.5,432.9,109.7,432.7,109.7z M432.9,106.2L432.9,106.2c-0.3,0-0.4-0.2-0.4-0.4v-0.3c0-0.2,0.2-0.4,0.4-0.4
					c0.2,0,0.4,0.2,0.4,0.4v0.3C433.4,106.1,433.2,106.2,432.9,106.2z M433.2,102.9L433.2,102.9c-0.3,0-0.4-0.2-0.4-0.4v-0.3
					c0-0.2,0.2-0.4,0.4-0.4c0.2,0,0.4,0.2,0.4,0.4v0.3C433.5,102.7,433.4,102.9,433.2,102.9z M433.4,99.4L433.4,99.4
					c-0.3,0-0.4-0.2-0.4-0.4v-0.3c0-0.2,0.2-0.4,0.4-0.4c0.2,0,0.4,0.2,0.4,0.4V99C433.8,99.2,433.6,99.4,433.4,99.4z M433.6,95.9
					L433.6,95.9c-0.3,0-0.4-0.2-0.4-0.4v-0.3c0-0.2,0.2-0.4,0.4-0.4c0.2,0,0.4,0.2,0.4,0.4v0.3C434,95.9,433.8,95.9,433.6,95.9z
					 M532.8,95.9c-0.2,0-0.4-0.2-0.4-0.4c0-0.2,0.2-0.4,0.4-0.4h0.3l0,0c0.2,0,0.4,0.2,0.4,0.4c0,0.2-0.2,0.4-0.4,0.4L532.8,95.9
					L532.8,95.9z M529.6,95.8L529.6,95.8h-0.3c-0.2,0-0.4-0.2-0.4-0.4c0-0.2,0.2-0.4,0.4-0.4h0.3c0.2,0,0.4,0.2,0.4,0.4
					C529.9,95.6,529.7,95.8,529.6,95.8z M526.1,95.7L526.1,95.7h-0.3c-0.2,0-0.4-0.2-0.4-0.4c0-0.2,0.2-0.4,0.4-0.4h0.3
					c0.2,0,0.4,0.2,0.4,0.4C526.6,95.5,526.4,95.7,526.1,95.7z M522.7,95.5L522.7,95.5h-0.3c-0.2,0-0.4-0.2-0.4-0.4
					c0-0.2,0.2-0.4,0.4-0.4h0.3c0.2,0,0.4,0.2,0.4,0.4C523.1,95.3,522.9,95.5,522.7,95.5z M519.3,95.3L519.3,95.3H519
					c-0.2,0-0.4-0.2-0.4-0.4c0-0.2,0.2-0.4,0.4-0.4h0.3c0.2,0,0.4,0.2,0.4,0.4C519.6,95.1,519.5,95.3,519.3,95.3z M515.8,95.1
					L515.8,95.1h-0.3c-0.2,0-0.4-0.2-0.4-0.4c0-0.2,0.2-0.4,0.4-0.4h0.3c0.2,0,0.4,0.2,0.4,0.4C516.3,94.9,516.1,95.1,515.8,95.1z
					 M512.5,94.8C512.4,94.8,512.4,94.8,512.5,94.8h-0.3c-0.2,0-0.4-0.2-0.4-0.4c0-0.2,0.2-0.4,0.4-0.4h0.3c0.2,0,0.4,0.2,0.4,0.4
					C512.8,94.6,512.6,94.8,512.5,94.8z M509,94.5L509,94.5h-0.3c-0.2,0-0.4-0.2-0.4-0.4c0-0.2,0.2-0.4,0.4-0.4h0.3
					c0.2,0,0.4,0.2,0.4,0.4C509.4,94.4,509.2,94.5,509,94.5z M505.6,94.2L505.6,94.2h-0.3c-0.2,0-0.4-0.2-0.4-0.4
					c0-0.2,0.2-0.4,0.4-0.4h0.3c0.2,0,0.4,0.2,0.4,0.4C506,94,505.8,94.2,505.6,94.2z M502.2,93.8L502.2,93.8h-0.3
					c-0.2,0-0.4-0.2-0.4-0.4c0-0.2,0.2-0.4,0.4-0.4h0.3c0.2,0,0.4,0.2,0.4,0.4C502.5,93.7,502.4,93.8,502.2,93.8z M498.9,93.4
					c-0.1,0.1-0.4,0-0.4,0c-0.2,0-0.4-0.3-0.4-0.4c0-0.2,0.3-0.4,0.4-0.4c0,0,0.2,0,0.4,0.1S499.1,93.3,498.9,93.4z M495.4,93
					L495.4,93H495c-0.2,0-0.4-0.3-0.4-0.4s0.3-0.4,0.4-0.4h0.3c0.2,0,0.4,0.3,0.4,0.4C495.7,92.8,495.5,93,495.4,93z M433.8,92.6
					L433.8,92.6c-0.3,0-0.4-0.2-0.4-0.4v-0.3c0-0.2,0.2-0.4,0.4-0.4c0.2,0,0.4,0.2,0.4,0.4v0.3C434.2,92.4,434.1,92.6,433.8,92.6z
					 M492,92.5C491.9,92.5,491.9,92.5,492,92.5h-0.4c-0.2,0-0.4-0.3-0.4-0.4c0-0.2,0.3-0.4,0.4-0.4h0.3c0.2,0,0.4,0.3,0.4,0.4
					C492.4,92.4,492.2,92.5,492,92.5z M488.6,92L488.6,92h-0.4c-0.2,0-0.4-0.3-0.4-0.4s0.3-0.4,0.4-0.4h0.3c0.2,0,0.4,0.3,0.4,0.4
					C488.9,91.9,488.7,92,488.6,92z M485.2,91.5L485.2,91.5l-0.4-0.1c-0.2,0-0.4-0.3-0.4-0.4c0-0.2,0.3-0.4,0.4-0.4h0.3
					c0.2,0,0.4,0.3,0.4,0.4C485.5,91.3,485.4,91.5,485.2,91.5z M481.8,91C481.7,91,481.7,91,481.8,91l-0.4-0.1
					c-0.2,0-0.4-0.3-0.4-0.4s0.3-0.4,0.4-0.4h0.3c0.2,0,0.4,0.3,0.4,0.4C482.2,90.8,482,91,481.8,91z M478.4,90.5L478.4,90.5
					l-0.4-0.1c-0.2,0-0.4-0.3-0.4-0.4s0.3-0.4,0.4-0.4h0.3c0.2,0,0.4,0.3,0.4,0.4C478.7,90.3,478.6,90.5,478.4,90.5z M475,89.9
					L475,89.9l-0.4-0.1c-0.2,0-0.4-0.3-0.4-0.4c0-0.2,0.3-0.4,0.4-0.4h0.3c0.2,0,0.4,0.3,0.4,0.4C475.4,89.7,475.2,89.9,475,89.9z
					 M471.6,89.4C471.6,89.4,471.5,89.4,471.6,89.4l-0.4-0.1c-0.2,0-0.4-0.3-0.4-0.4s0.3-0.4,0.4-0.4h0.3c0.2,0,0.4,0.3,0.4,0.4
					C472,89.2,471.8,89.4,471.6,89.4z M434.2,89.1C434.2,89.1,434.1,89.1,434.2,89.1c-0.3,0-0.4-0.2-0.4-0.4v-0.3
					c0-0.2,0.2-0.4,0.4-0.4c0.2,0,0.4,0.2,0.4,0.4v0.3C434.5,88.9,434.3,89.1,434.2,89.1z M468.3,88.9
					C468.2,88.9,468.2,88.9,468.3,88.9l-0.4-0.1c-0.2,0-0.4-0.3-0.4-0.4s0.3-0.4,0.4-0.4h0.3c0.2,0,0.4,0.3,0.4,0.4
					C468.6,88.7,468.4,88.9,468.3,88.9z M464.8,88.3L464.8,88.3l-0.4-0.1c-0.2,0-0.4-0.3-0.4-0.4c0-0.2,0.3-0.4,0.4-0.4h0.3
					c0.2,0,0.4,0.3,0.4,0.4C465.2,88.2,465,88.3,464.8,88.3z M461.4,87.8C461.4,87.8,461.4,87.8,461.4,87.8l-0.4-0.1
					c-0.2,0-0.4-0.3-0.4-0.4s0.3-0.4,0.4-0.4h0.3c0.2,0,0.4,0.3,0.4,0.4C461.8,87.6,461.6,87.8,461.4,87.8z M458.1,87.3
					C458,87.3,458,87.3,458.1,87.3l-0.4-0.1c-0.2,0-0.4-0.3-0.4-0.4s0.3-0.4,0.4-0.4h0.3c0.2,0,0.4,0.3,0.4,0.4
					C458.4,87.1,458.3,87.3,458.1,87.3z M454.6,86.7L454.6,86.7l-0.4-0.1c-0.2,0-0.4-0.3-0.4-0.4c0-0.2,0.3-0.4,0.4-0.4h0.3
					c0.2,0,0.4,0.3,0.4,0.4C455,86.6,454.9,86.7,454.6,86.7z M451.3,86.1L451.3,86.1l-0.4-0.1c-0.2,0-0.4-0.3-0.4-0.4
					s0.3-0.4,0.4-0.4h0.3c0.2,0,0.4,0.3,0.4,0.4C451.6,86,451.4,86.1,451.3,86.1z M434.6,85.8C434.6,85.8,434.5,85.8,434.6,85.8
					c-0.3-0.1-0.4-0.3-0.4-0.4c0-0.1,0.1-0.2,0.1-0.3c0.1-0.2,0.3-0.4,0.4-0.3s0.4,0.3,0.3,0.4c0,0.1,0,0.2-0.1,0.3
					C435,85.6,434.8,85.8,434.6,85.8z M447.9,85.6C447.9,85.6,447.8,85.6,447.9,85.6l-0.4-0.1c-0.2,0-0.4-0.3-0.4-0.4
					s0.3-0.4,0.4-0.4h0.3c0.2,0,0.4,0.3,0.4,0.4C448.2,85.5,448.1,85.6,447.9,85.6z M444.4,85.1L444.4,85.1h-0.4
					c-0.2,0-0.4-0.3-0.4-0.4s0.3-0.4,0.4-0.4h0.3c0.2,0,0.4,0.3,0.4,0.4C444.9,85,444.7,85.1,444.4,85.1z M441.1,84.7L441.1,84.7
					h-0.3c-0.2,0-0.4-0.2-0.4-0.4c0-0.2,0.2-0.4,0.4-0.4h0.3c0.2,0,0.4,0.2,0.4,0.4C441.4,84.6,441.2,84.7,441.1,84.7z M437.3,84.5
					c-0.2,0-0.4-0.2-0.4-0.4c0-0.2,0.2-0.4,0.4-0.4h0.2h0.1c0.2,0,0.4,0.2,0.4,0.4c0,0.2-0.2,0.4-0.4,0.4l0,0h-0.1H437.3L437.3,84.5
					z"/>
			</g>
			<g>
				<path class="st21" d="M535.9,95.7c-0.2,0-0.4-0.2-0.4-0.4c0-0.2,0.1-0.4,0.4-0.4h0.1c0.2,0,0.4,0.1,0.4,0.4
					c0,0.2-0.1,0.4-0.4,0.4C535.9,95.7,535.9,95.7,535.9,95.7L535.9,95.7z"/>
			</g>
		</g>
		<g>
			<path class="st21" d="M532,89.9c-0.1,0-0.2,0-0.3-0.1c0,0-0.1-0.1-0.2-0.1c-0.2-0.1-0.3-0.4-0.1-0.5c0.1-0.2,0.4-0.3,0.5-0.1
				c0.1,0.1,0.2,0.2,0.3,0.2c0.2,0.2,0.2,0.4,0,0.5C532.1,89.8,532,89.9,532,89.9z M528.9,88.2c-0.1,0-0.1,0-0.2,0l-0.3-0.1
				c-0.2-0.1-0.3-0.4-0.2-0.5c0.1-0.2,0.4-0.3,0.5-0.2l0.3,0.1c0.2,0.1,0.3,0.4,0.2,0.5C529.2,88.2,529,88.2,528.9,88.2z
				 M525.8,86.6c-0.1,0-0.1,0-0.2,0l-0.3-0.1c-0.2-0.1-0.3-0.4-0.2-0.5c0.1-0.2,0.4-0.3,0.5-0.2l0.3,0.1c0.2,0.1,0.3,0.4,0.2,0.5
				C526.1,86.6,526,86.6,525.8,86.6z M522.7,85.2c-0.1,0-0.1,0-0.2,0l-0.3-0.1c-0.2-0.1-0.3-0.4-0.2-0.5s0.4-0.3,0.5-0.2l0.3,0.1
				c0.2,0.1,0.3,0.4,0.2,0.5C523,85.1,522.9,85.2,522.7,85.2z M499.1,85.4c-0.1,0-0.1,0-0.2,0c-0.2-0.1-0.3-0.4-0.2-0.5
				c0-0.1,0.1-0.2,0.1-0.3c0.1-0.2,0.4-0.3,0.5-0.2c0.2,0.1,0.3,0.4,0.2,0.5c0,0.1-0.1,0.2-0.1,0.3
				C499.4,85.3,499.2,85.4,499.1,85.4z M519.6,83.8c-0.1,0-0.1,0-0.2,0l-0.3-0.1c-0.2-0.1-0.3-0.4-0.2-0.5s0.4-0.3,0.5-0.2l0.3,0.1
				c0.2,0.1,0.3,0.4,0.2,0.5C519.9,83.7,519.7,83.8,519.6,83.8z M516.5,82.6c-0.1,0-0.1,0-0.2,0l-0.3-0.1c-0.2-0.1-0.4-0.3-0.3-0.5
				c0.1-0.2,0.3-0.4,0.5-0.3l0.3,0.1c0.2,0.1,0.4,0.3,0.3,0.5C516.7,82.4,516.5,82.6,516.5,82.6z M500.8,82.5c-0.1,0-0.2,0-0.3-0.1
				c-0.2-0.1-0.3-0.4-0.1-0.5c0.1-0.1,0.1-0.2,0.2-0.2c0.1-0.2,0.4-0.2,0.5-0.1c0.2,0.1,0.2,0.4,0.1,0.5c-0.1,0.1-0.1,0.2-0.2,0.2
				C501,82.4,501,82.5,500.8,82.5z M513.2,81.4L513.2,81.4l-0.4-0.1c-0.2-0.1-0.4-0.3-0.3-0.5c0.1-0.2,0.3-0.4,0.5-0.3l0.3,0.1
				c0.2,0.1,0.4,0.3,0.3,0.5C513.4,81.3,513.4,81.4,513.2,81.4z M509.8,80.5L509.8,80.5l-0.4-0.1c-0.2-0.1-0.4-0.3-0.3-0.4
				c0.1-0.2,0.3-0.4,0.4-0.3l0.3,0.1c0.2,0.1,0.4,0.3,0.3,0.4C510.2,80.4,510,80.5,509.8,80.5z M506.5,79.8
				C506.4,79.8,506.4,79.8,506.5,79.8c-0.2,0-0.3,0-0.4,0c-0.2,0-0.4-0.3-0.4-0.4s0.3-0.4,0.4-0.4c0.1,0,0.2,0,0.3,0
				c0.2,0,0.4,0.3,0.4,0.4C506.9,79.6,506.7,79.8,506.5,79.8z M502.8,79.7c-0.2,0-0.4-0.1-0.4-0.3c-0.1-0.2,0.1-0.4,0.3-0.4
				c0.1,0,0.2-0.1,0.3-0.1c0.2,0,0.4,0.1,0.4,0.4c0,0.2-0.1,0.4-0.4,0.4C503,79.7,502.9,79.7,502.8,79.7
				C502.9,79.7,502.8,79.7,502.8,79.7z"/>
		</g>
	</g>
</g>
</svg>
