<?xml version="1.0" encoding="UTF-8"?>
<svg id="Layer_1" data-name="Layer 1" xmlns="http://www.w3.org/2000/svg" viewBox="0 0 48 48">
  <defs>
    <style>
      .cls-1 {
        fill: #4e889c;
      }

      .cls-2 {
        fill: #ccedea;
      }

      .cls-3 {
        fill: #bbdee2;
      }

      .cls-4 {
        fill: #4eadc5;
      }
    </style>
  </defs>
  <path class="cls-2" d="m28.13,9.66c-.08-.33-.38-.55-.72-.57,0,0-6.77-3.12-6.77-3.12l-2.25.46-2.19.69-4.42,6h.09c-.26.17-.41.49-.32.82l8.33,32.34s.04.07.05.11c.4,1.32,4.36,1.45,8.88.28,4.53-1.16,7.93-3.19,7.65-4.54,0-.04,0-.08,0-.13L28.13,9.66Z"/>
  <path class="cls-3" d="m15.52,12.46c-.09-.36.04-.71.3-.9h-.09s3.54-5.31,3.54-5.31l-.88.18-2.19.69-4.42,6h.09c-.26.17-.41.49-.32.82l8.33,32.34s.04.07.05.11c.26.87,2.08,1.22,4.59,1.02L15.52,12.46Z"/>
  <path class="cls-3" d="m18.82,17.74l-.14-.56c-.06-.25-.32-.4-.57-.33l-5.45,1.4.37,1.46,5.45-1.4c.25-.06.4-.32.33-.56Z"/>
  <path class="cls-3" d="m19.63,20.88l-.14-.56c-.06-.25-.32-.4-.57-.33l-5.45,1.4.38,1.46,5.45-1.4c.25-.06.4-.32.33-.56h0Z"/>
  <path class="cls-3" d="m12.23,16.57l5.45-1.4c.25-.06.4-.32.33-.56l-.14-.56c-.06-.25-.32-.4-.57-.33l-5.45,1.4.38,1.46h0Z"/>
  <path class="cls-3" d="m23.39,15.9l.14.56c.06.25.32.4.56.33l5.5-1.42-.38-1.46-5.5,1.42c-.25.06-.39.32-.33.56h0Z"/>
  <path class="cls-3" d="m30.03,17.06l-5.5,1.42c-.25.06-.4.32-.33.57l.14.56c.06.25.32.4.57.33l5.5-1.42-.38-1.46h0Z"/>
  <path class="cls-3" d="m22.58,12.76l.14.56c.06.25.32.4.56.33l5.5-1.42-.38-1.46-5.5,1.42c-.25.06-.39.32-.33.57h0Z"/>
  <path class="cls-3" d="m23.58,36.25l-.14-.56c-.07-.25-.32-.4-.57-.33l-5.45,1.4.38,1.46,5.45-1.4c.25-.06.4-.32.33-.56h0Z"/>
  <path class="cls-3" d="m24.39,39.38l-.14-.56c-.06-.25-.32-.4-.56-.33l-5.45,1.4.38,1.46,5.45-1.4c.25-.06.4-.32.33-.57Z"/>
  <path class="cls-3" d="m16.99,35.07l5.45-1.4c.25-.06.4-.32.33-.57l-.14-.56c-.06-.25-.32-.39-.56-.33l-5.45,1.4.38,1.46h0Z"/>
  <path class="cls-3" d="m28.16,34.41l.14.56c.06.25.31.4.56.33l5.5-1.42-.37-1.46-5.51,1.42c-.25.06-.4.32-.33.57h0Z"/>
  <path class="cls-3" d="m34.8,35.57l-5.5,1.42c-.25.06-.4.32-.33.56l.14.56c.06.25.32.4.56.33l5.5-1.42-.38-1.46Z"/>
  <path class="cls-3" d="m27.34,31.27l.14.56c.06.25.31.4.56.33l5.51-1.42-.38-1.46-5.5,1.42c-.25.06-.4.32-.33.56h0Z"/>
  <polygon class="cls-4" points="21.25 6.24 15.91 7.62 14.79 1.72 19.39 .54 21.25 6.24"/>
  <path class="cls-1" d="m19.39.54l-4.6,1.18.17.92c1.55-.4,3.15-.81,4.72-1.21l-.29-.89Z"/>
</svg>