<?xml version="1.0" encoding="UTF-8"?>
<svg id="Layer_1" data-name="Layer 1" xmlns="http://www.w3.org/2000/svg" viewBox="0 0 48 48">
  <defs>
    <style>
      .cls-1 {
        fill: #f0c888;
      }

      .cls-2 {
        fill: #c91313;
      }

      .cls-3 {
        fill: #700335;
      }

      .cls-4 {
        fill: #771759;
      }
    </style>
  </defs>
  <path class="cls-1" d="m10.97,18.81s7.06,2.51,7.72,4.73c.66,2.22.03,4.36.03,4.36,0,0,2.33,1.58,1.87,2.85s-2.67,2.07-2.48,3.66c.2,1.59-2.84,5.8-2.84,5.8,0,0,5.75.93,11.68-.05,5.93-.98,9.53-2.58,9.16-2.89-.37-.32-4-2.04-4.19-3.31-.19-1.27.06-4.68.06-4.68,0,0-3.16-2.21-3.26-3.95-.1-1.74,5.14-8.51,5.14-8.51,0,0-9.27-.04-11.86.05-2.59.09-11.02,1.95-11.02,1.95Z"/>
  <path class="cls-2" d="m10.97,18.81s4.09-.63,6.52.13c2.44.76,3.42,2.25,5.01.84,1.59-1.4,2.39-1.91,3.54-1.74,1.15.17,6.05.07,7.81-1.23-1.82-1.41-7.76-1.74-9.87-1.05-2.12.69-4.34-.04-7.54.39-2.47.33-5.67,1.13-5.47,2.66Z"/>
  <path class="cls-2" d="m14.62,40.33s2.21-1.99,5.04-1.84c2.83.14,4.27,1.37,6.63,1.12,2.36-.25,6.74-3.59,8.69-3.01,1.95.58,2.05,1.46,2.05,1.46,0,0-3.92,2.95-12.12,3.46-8.2.51-10.29-1.18-10.29-1.18h0Z"/>
  <path class="cls-3" d="m21.92,16.59s-.42-2.19-.1-4.98c.38-3.24,2.61-5.23,2.61-5.23l1.91,1.38s-2.45,1.64-3.26,3.72c-.86,2.21-.68,5.1-.68,5.1h-.48s0,0,0,0Z"/>
  <path class="cls-4" d="m26.35,28.7s-.56,3.23,1.01,2.9c1.56-.33-1.01-2.9-1.01-2.9Z"/>
  <path class="cls-4" d="m23.02,26.62s1.91,2.83.31,3.02c-1.59.19-.31-3.02-.31-3.02Z"/>
</svg>