<?xml version="1.0" encoding="UTF-8"?>
<svg id="Layer_1" data-name="Layer 1" xmlns="http://www.w3.org/2000/svg" viewBox="0 0 48 48">
  <defs>
    <style>
      .cls-1 {
        fill: #ef8f03;
      }

      .cls-2 {
        fill: #7f4019;
      }

      .cls-3 {
        fill: #c06e14;
      }
    </style>
  </defs>
  <path class="cls-1" d="m30.3,6.81l3.83.91s-.41,1.93-.05,4.89c.36,2.96,2.7,4.2,5.03,8.89,2.34,4.69,1.28,11.12-4.2,13.78-5.48,2.66-9.46,3.64-9.33,6.9-2.22-4.25,1.58-6.86,4.85-8.89,3.26-2.04,3.9-9.49,3.9-9.49,0,0-1.88,6.48-8.75,7.8-6.87,1.32-15.55,1.32-15.87,6.25-1.66-8.07,3.88-9.7,7.95-10.79,4.07-1.09,10.63-2.45,12.33-4.69,1.7-2.24-4.57,1.38-7.67,1.39-2.21,0-5.88-2.83-8.79-1.64-2.91,1.18-6.7,4-6.7,4,0,0,.84-6.77,8.81-8.53,7.96-1.76,11.27,2.54,13.09,1.65s3.47-3.6,3.07-4.43c-.4-.82-4.19-3.87-1.5-8h0Z"/>
  <path class="cls-2" d="m33.97,11.53c-.16-2.34.16-3.81.16-3.81l-3.83-.91c-.85,1.31-1.05,2.51-.92,3.56,1.58.62,3.29.96,4.59,1.16h0Z"/>
  <path class="cls-3" d="m27.52,26.22c-.37-.91-1.78-.34-1.41.58s1.78.34,1.41-.58Z"/>
  <path class="cls-3" d="m24.74,27.28c-.23-.56-1.09-.2-.86.35s1.09.2.86-.35Z"/>
  <path class="cls-3" d="m20.72,27.93c-.33-.81-1.59-.3-1.26.51s1.59.3,1.26-.51Z"/>
  <path class="cls-3" d="m17.48,30.35c.15-.36-.21-.65-.54-.55-.05.02-.1.04-.14.07-.09.06-.16.21-.13.32.01.05.02.1.04.15.16.32.62.36.77,0h0Z"/>
  <path class="cls-3" d="m38.58,26.78c.08-.43-.02-1.24-.33-1.56-.24-.26-.67-.32-.91,0-.3.41-.19.97-.1,1.44.07.32.21.86.62.92.4.06.66-.48.72-.79h0Z"/>
  <path class="cls-3" d="m36.95,29.02s-.02-.04-.02-.06c-.11-.31-.63-.26-.64.08,0,.02,0,.05,0,.07,0,.14.05.33.21.37.1.03.17.03.27,0,.19-.06.25-.29.19-.46h0Z"/>
  <path class="cls-3" d="m36.38,33.12c.37-.3.51-.74.35-1.19-.12-.34-.5-.43-.81-.34-.31.09-.56.37-.65.67-.2.65.5,1.35,1.12.86Z"/>
  <path class="cls-3" d="m32.95,34.6c-.08-.2-.41-.28-.54-.07-.14.22-.05.43.18.49.26.07.44-.22.36-.42Z"/>
  <path class="cls-3" d="m21.39,19.81c.2-.22.1-.56-.1-.74-.46-.4-1.29-.18-1.66.24-.11.13-.06.32.06.42.05.04.1.08.16.11-.06-.07-.04-.04.07.06.15.1.29.16.47.2.37.1.76-.03,1.01-.3h0Z"/>
  <path class="cls-3" d="m16.61,19.79c.29-.26-.04-.72-.36-.48-.31.24.08.72.36.48Z"/>
  <path class="cls-3" d="m12.48,20.42c-.25-.62-1.22-.23-.96.39s1.22.23.96-.39Z"/>
</svg>