<?xml version="1.0" encoding="UTF-8"?>
<svg id="Layer_1" data-name="Layer 1" xmlns="http://www.w3.org/2000/svg" viewBox="0 0 48 48">
  <defs>
    <style>
      .cls-1 {
        fill: #b64708;
      }

      .cls-2 {
        fill: #d4b8ab;
      }
    </style>
  </defs>
  <path class="cls-2" d="m21.81,15.77s2.45,6.28,4.09,9.78c1.64,3.5,4.02,7.93,4.68,7.94.66,0,7.45,2.39,6.11,4.74-1.34,2.35-3.73-.3-5.56.4-1.83.7-1.94,4.55-3.76,3.48-1.82-1.08-.63-5.78-1.03-7.14-.41-1.36-5.56-13.07-5.56-13.07l1.03-6.12h0Z"/>
  <path class="cls-1" d="m22.73,16.06c.23-2,2.25-2.38,3.74-.66.84-3.88-2.7-11.05-10.36-9.45-5.66,1.18-5.32,7.07-4.54,10.98,1.41-.81,4.43.1,4.45.9.08,3.53,3.35,2.37,3.68,3.52.33,1.15,1.02,3.57,2.48,3.78,1.46.21,2.79,2.15,2.79,2.15,0,0-1.2-3.13-1.75-4.16-.55-1.03-.45-3.67,0-4.14.45-.46-.49-2.91-.49-2.91h0Z"/>
</svg>