<?xml version="1.0" encoding="UTF-8"?>
<svg id="Layer_1" data-name="Layer 1" xmlns="http://www.w3.org/2000/svg" xmlns:xlink="http://www.w3.org/1999/xlink" viewBox="0 0 48 48">
  <defs>
    <style>
      .cls-1 {
        fill: none;
      }

      .cls-2 {
        clip-path: url(#clippath);
      }

      .cls-3 {
        fill: #c9eff4;
      }

      .cls-4 {
        fill: #61afd3;
      }

      .cls-5 {
        fill: #399bc8;
      }

      .cls-6 {
        clip-path: url(#clippath-1);
      }

      .cls-7 {
        clip-path: url(#clippath-2);
      }
    </style>
    <clipPath id="clippath">
      <path class="cls-1" d="m39.12,26.59c-2.35,5.6-4.12,7.08-7.68,10.16-.46.4-1.02.77-1.69,1.04-1.64-.52-5.45-2.64-7.35-4.12-1.94-1.52-6.2-5.16-6.26-5.74-.08-.58,1.98-3.56,2.62-5.14.4-1,.37-6.37.58-6.99.25-.67,7.39.44,10.43,1.19,2.93.71,10.05.83,10.45.85.1,2.21.04,6.08-1.1,8.76Z"/>
    </clipPath>
    <clipPath id="clippath-1">
      <path class="cls-1" d="m39.12,26.59c-2.35,5.6-4.12,7.08-7.68,10.16-.46.4-1.02.77-1.69,1.04-1.64-.52-5.45-2.64-7.35-4.12-1.94-1.52-6.2-5.16-6.26-5.74-.08-.58,1.98-3.56,2.62-5.14.4-1,.37-6.37.58-6.99.25-.67,7.39.44,10.43,1.19,2.93.71,10.05.83,10.45.85.1,2.21.04,6.08-1.1,8.76Z"/>
    </clipPath>
    <clipPath id="clippath-2">
      <path class="cls-1" d="m39.12,26.59c-2.35,5.6-4.12,7.08-7.68,10.16-.46.4-1.02.77-1.69,1.04-1.64-.52-5.45-2.64-7.35-4.12-1.94-1.52-6.2-5.16-6.26-5.74-.08-.58,1.98-3.56,2.62-5.14.4-1,.37-6.37.58-6.99.25-.67,7.39.44,10.43,1.19,2.93.71,10.05.83,10.45.85.1,2.21.04,6.08-1.1,8.76Z"/>
    </clipPath>
  </defs>
  <path class="cls-3" d="m19.6,15.95h0c.5-.54-.6.79-.5.65h-.02l-.04-.04-.08-.08-.19-.12-.35-.25c-.25-.19-.48-.35-.73-.52s-.48-.33-.73-.5-.48-.33-.73-.48c-.25-.17-.5-.31-.73-.46-.25-.15-.5-.29-.75-.4-.5-.25-1.04-.42-1.58-.56-.27-.08-.56-.12-.83-.19s-.56-.08-.83-.08c-.27-.02-.54,0-.79.02-.25.04-.5.08-.73.19-.23.08-.4.23-.56.37-.08.08-.15.17-.21.25-.02.02-.04.06-.04.08-.02.02-.02.06-.04.08l-.04.08-.02.04s-.02.04-.02.04c-.19.46-.25,1-.23,1.54,0,.27.04.56.08.83.04.27.1.56.19.83.15.56.35,1.08.56,1.6.1.25.25.52.4.77.12.25.27.5.42.75s.31.48.48.73c.04.06.08.1.12.19l.12.19c.08.1.19.25.27.35.35.48.73.94,1.08,1.42l1.1,1.39,2.23,2.81-.62.52c-.4-.46-.77-.89-1.17-1.37-.4-.46-.77-.92-1.14-1.37-.4-.46-.75-.92-1.14-1.37-.4-.46-.75-.92-1.12-1.39-.08-.1-.19-.25-.27-.35l-.15-.19c-.04-.06-.08-.12-.15-.19-.19-.25-.37-.5-.54-.77-.17-.25-.33-.54-.48-.79-.04-.08-.08-.12-.1-.21-.04-.08-.08-.12-.1-.21l-.1-.21c-.04-.08-.08-.15-.08-.21-.25-.56-.48-1.14-.65-1.75-.08-.29-.15-.6-.21-.92-.02-.08-.02-.17-.04-.25l-.04-.25-.02-.25c0-.08,0-.17-.02-.25-.02-.33,0-.67.04-1s.12-.67.25-1c0-.02.02-.04.02-.06l.02-.06.06-.12s.04-.08.06-.12c.02-.04.06-.08.08-.12.08-.17.23-.31.35-.44.25-.27.58-.48.92-.6.33-.15.69-.23,1.02-.25.33-.04.67-.04,1-.04.33.02.65.06.96.1.31.06.62.12.92.23.6.17,1.21.4,1.77.69.15.08.29.15.42.23s.27.17.4.25c.25.17.52.33.77.5s.5.35.73.54.48.37.73.56.56.29.77.5c.1.08.25.21.35.29l.17.15.08.08v-.04h0c.12-.12-.98,1.21-.5.65l-.02-.02.52-.62Z"/>
  <path class="cls-3" d="m32.17,13.95h0c-1,1.21-.25.35-.5.6h-.02l-.04-.04-.08-.08-.19-.15-.35-.27c-.25-.19-.48-.37-.73-.56-.25-.19-.48-.35-.73-.54-.25-.17-.48-.35-.73-.52s-.5-.33-.75-.48c-.25-.15-.5-.31-.75-.44s-.52-.25-.77-.35c-.27-.1-.54-.21-.81-.29-.56-.17-1.12-.29-1.69-.33-.27-.02-.56-.04-.83-.02-.27.02-.54.06-.77.15-.25.08-.46.19-.65.33-.08.08-.17.17-.25.25-.04.06-.08.08-.08.15-.02.02-.04.06-.04.08l-.02.04s-.02.04-.02.04c-.23.46-.31,1.02-.31,1.56s.08,1.12.23,1.69.33,1.1.56,1.64c.25.54.5,1.04.81,1.56.15.25.31.5.48.73.04.06.08.1.12.19.04.06.08.1.12.19.08.12.19.25.27.37.73.96,1.48,1.89,2.23,2.85.75.94,1.52,1.89,2.27,2.83l-.52.42c-.79-.92-1.56-1.85-2.35-2.79-.4-.46-.77-.94-1.17-1.39-.4-.48-.75-.94-1.14-1.42-.08-.1-.19-.25-.27-.37-.06-.06-.08-.1-.15-.19-.06-.06-.08-.12-.15-.19-.19-.25-.35-.52-.52-.77-.33-.54-.62-1.08-.89-1.66-.25-.56-.48-1.17-.62-1.77-.17-.6-.25-1.25-.27-1.89,0-.33.02-.67.08-1s.17-.67.31-.98c.02-.02.02-.04.04-.06l.04-.06s.04-.08.08-.1c.06-.08.08-.15.17-.23.1-.15.25-.27.4-.4.29-.25.6-.4.94-.52.33-.1.67-.17,1-.19.33-.02.67-.02.98.02.65.06,1.27.21,1.85.4.6.19,1.21.42,1.75.73s1.06.65,1.56,1,1,.73,1.48,1.1c.25.19.48.4.73.56.1.08.25.21.35.29l.17.15.08.08.06.06h0c-.21.27.52-.56-.48.6l-.02-.02.5-.58Z"/>
  <path class="cls-3" d="m40.01,16.14c-.31-.67-2.52-2.23-6.85-3.08-.19-.04-.46-.1-.62-.06-.06.02-.12.08-.23.21-1.35,1.75-6.91,14.44-6.91,14.44l14.61-11.51Z"/>
  <path class="cls-4" d="m32.27,16.24c.31-1.12.87-1.81,1.04-2,.19-.19,4.97,1.54,5.2,1.91.23.4-6.24.08-6.24.08Z"/>
  <path class="cls-3" d="m17.95,14.06c.54-.69,13.26,1.66,20.06,2.04.77.04,2.02.02,2.02.02,0,0,.19.4.23,1.14.08,2.06.1,6.39-1.12,9.32-2.35,5.6-4.12,7.08-7.68,10.16-.46.4-1,.69-1.69,1.04-.21.1-.56.27-.83.4-.89.4-1.29.44-3.04-.4-.81-.4-2.12-1.04-3.16-1.71s-6.39-5.22-8.2-7.68c-.21-.27-.4-.56-.4-.69s.23-.42.37-.62c1.06-1.46,2.54-3.52,2.83-5.83.33-2.93.23-6.72.6-7.2Z"/>
  <path class="cls-4" d="m39.12,26.59c-2.35,5.6-4.12,7.08-7.68,10.16-.46.4-1.02.71-1.69,1.04-1.64-.52-5.45-2.64-7.35-4.12-1.94-1.52-6.2-5.16-6.26-5.74-.08-.58,1.98-3.56,2.62-5.14.4-1,.37-6.37.58-6.99.25-.67,7.39.44,10.43,1.19,2.93.71,10.05.83,10.45.85.1,2.21.04,6.08-1.1,8.76Z"/>
  <g>
    <g class="cls-2">
      <path class="cls-5" d="m22.8,20.07l.27.02.27.02.56.04c.19.02.37.04.56.06.19.02.37.04.56.08.19.04.37.06.56.08l.27.04c.08.02.19.04.27.06.37.06.73.12,1.08.23,1.46.31,2.87.73,4.29,1.04,1.42.35,2.83.6,4.29.71l.54.04c.19,0,.35.02.54.02.35,0,.73,0,1.06-.02.73-.04,1.42-.1,2.12-.23h0c.42-.08.83.23.89.65.08.42-.23.83-.65.89h-.08c-.75.04-1.54.06-2.29.02-.4-.02-.75-.06-1.14-.08-.19-.02-.37-.04-.56-.06l-.56-.08c-.75-.1-1.5-.27-2.21-.46l-.54-.15-.54-.15-.54-.17-.54-.17c-1.42-.46-2.79-.96-4.18-1.37-.19-.06-.35-.08-.54-.15-.19-.06-.35-.08-.54-.12-.04-.02-.08-.02-.12-.04l-.12-.04-.27-.06c-.08-.02-.19-.04-.27-.06l-.27-.06c-.73-.12-1.44-.19-2.19-.19h0c-.08,0-.17-.08-.17-.17.02-.1.08-.19.19-.19h0Z"/>
    </g>
    <g class="cls-6">
      <path class="cls-5" d="m22.03,23.61c.71.1,1.39.29,2.08.5l.25.08c.08.02.17.06.25.08.17.06.33.1.5.17s.33.1.5.19l.5.19c1.33.5,2.62,1.1,3.91,1.69.65.29,1.29.58,1.91.87.65.27,1.29.56,1.94.77.17.06.33.1.48.17l.25.08c.08.02.17.06.25.08.33.08.65.19.98.27l.25.06.06.02.06.02.12.02.25.04.25.04.12.02h.12l.25.02h.5c.42.02.77.37.75.79-.02.42-.37.77-.79.75h-.08l-.29-.04-.15-.02c-.06,0-.08-.02-.15-.02-.19-.04-.4-.08-.56-.1l-.27-.08-.27-.08-.12-.04-.08-.02-.08-.02-.25-.08c-.35-.12-.71-.25-1.04-.4-.17-.08-.33-.15-.5-.23-.17-.08-.33-.15-.5-.23-.65-.31-1.29-.65-1.89-.98-.31-.17-.62-.33-.94-.52l-1-.54c-1.23-.69-2.48-1.37-3.73-1.96-.17-.08-.31-.15-.48-.23-.17-.08-.31-.12-.48-.21s-.33-.12-.48-.19c-.17-.06-.33-.1-.5-.17-.67-.23-1.35-.4-2.02-.48h0c-.08-.02-.15-.08-.15-.19.08-.04.17-.12.25-.1h0Z"/>
    </g>
    <g class="cls-7">
      <path class="cls-5" d="m20.93,27.09c.44.42.94.79,1.48,1.14.52.35,1.06.67,1.6.96.27.15.56.29.83.42.27.15.56.27.85.4.56.27,1.14.54,1.71.79s1.14.54,1.71.81c.15.08.27.15.42.23.15.08.27.15.42.23s.27.15.42.23.27.15.42.25c.15.08.27.17.42.25l.4.25c.12.08.27.19.4.25l.4.27.4.29c.12.08.25.21.4.29l.4.31.19.17s.04.08.02.17c-.02.06-.04.08-.08.17-.04.08-.08.15-.15.25-.08.1-.15.21-.25.27h.06c-.1.08-.17.12-.25.19-.06.04-.1.08-.17.08-.08.04-.15.04-.17.02l-.17-.15-.35-.29c-.1-.08-.25-.19-.35-.27l-.37-.27c-.12-.08-.25-.19-.37-.27-.12-.08-.25-.19-.37-.25l-.33-.27c-.12-.08-.25-.17-.4-.25-.25-.17-.52-.35-.77-.52s-.52-.35-.77-.52c-.52-.33-1.04-.69-1.58-1.02l-1.6-1.02c-.54-.35-1.06-.69-1.58-1.04-1.04-.71-2.08-1.46-3.02-2.33-.08-.06-.08-.17-.02-.25.06-.02.19-.02.23.04h0Z"/>
    </g>
  </g>
  <g>
    <path class="cls-4" d="m27.78,37.87s-.02,0,0,0h-.04s-.08-.06-.06-.08c0-.04.06-.08.08-.06h.02s.08.06.08.08c-.02.02-.04.06-.08.06Z"/>
    <path class="cls-4" d="m27.13,37.64h-.04s-.04-.02-.06-.02c-.04-.02-.06-.08-.04-.1.02-.04.08-.06.1-.04.02,0,.04.02.06.02.04.02.06.08.04.1,0,.04-.04.04-.06.04Zm-.67-.27h-.04l-.06-.02s-.06-.08-.04-.1c.02-.04.08-.06.1-.04l.06.02s.06.08.04.1c0,.02-.02.04-.06.04Zm-.65-.29h-.04l-.06-.02s-.06-.08-.04-.1c.02-.04.08-.06.1-.04l.06.02s.06.08.04.1c0,.02-.02.04-.06.04Zm-.65-.31h-.04l-.06-.02s-.06-.08-.04-.1.08-.06.1-.04l.06.02s.06.08.04.1c0,.02-.02.04-.06.04Zm-.65-.31s-.02,0-.04-.02c-.02,0-.04-.02-.06-.02-.04-.02-.06-.08-.04-.1.02-.04.08-.06.1-.04.02,0,.04.02.06.02.04.02.06.08.04.1.02.04-.02.06-.06.06Zm-.6-.37s-.04,0-.04-.02l-.06-.04s-.06-.08-.02-.1c.02-.04.08-.06.1-.02l.04.04s.06.08.02.1c0,.02-.02.04-.04.04Zm-.6-.4s-.04,0-.06-.02l-.04-.04s-.04-.08-.02-.1c.02-.04.08-.04.1-.02l.04.04s.04.08.02.1c.02.02,0,.04-.04.04Zm-.56-.44s-.04,0-.06-.02l-.04-.04s-.04-.08-.02-.1c.02-.04.08-.04.1-.02l.04.04s.04.08.02.1c.02.02,0,.04-.04.04Zm-.56-.44s-.04,0-.06-.02l-.04-.04s-.04-.08-.02-.1c.04-.04.08-.04.1-.02l.04.04s.04.08.02.1-.02.04-.04.04Zm-.56-.44s-.04,0-.06-.02l-.04-.04s-.04-.08-.02-.1c.04-.04.08-.04.1-.02l.04.04s.04.08.02.1c.02.02,0,.04-.04.04Zm-.54-.46s-.04,0-.06-.02l-.04-.04s-.04-.08,0-.1c.04-.04.08-.04.1,0l.04.04s.04.08.02.1c-.02.02-.04.02-.06.02Zm-.52-.48s-.04,0-.06-.02l-.04-.04s-.04-.08,0-.1c.04-.04.08-.04.1,0l.04.04s.04.08,0,.1c-.02.02-.04.02-.04.02Zm-.54-.48s-.04,0-.06-.02c0,0-.04-.04-.04-.08,0-.06.06-.08.08-.08s.06.04.06.04c.04.04.04.08,0,.1,0,.04-.02.04-.04.04Zm-.54-.48s-.04,0-.06-.02l-.04-.04s-.04-.08,0-.1c.04-.04.08-.04.1,0l.04.04s.04.08,0,.1c.02.02,0,.02-.04.02Zm-.52-.5s-.04,0-.06-.02l-.04-.04s-.04-.08,0-.1c.04-.04.08-.04.1,0l.04.04s.04.08,0,.1c.02.02-.02.02-.04.02Zm-.5-.48s-.04,0-.06-.02l-.04-.04s-.04-.08,0-.1c.04-.04.08-.04.1,0l.04.04s.04.08,0,.1c0,.02-.04.02-.04.02Zm-.5-.5s-.04,0-.06-.02l-.04-.04s-.04-.08,0-.1c.04-.04.08-.04.1,0l.04.04s.04.08,0,.1c-.02.02-.04.02-.04.02Zm-.52-.5s-.04,0-.06-.02l-.04-.04s-.04-.08,0-.1c.04-.04.08-.04.1,0l.04.04s.04.08,0,.1c0,0-.02.02-.04.02Zm-.5-.52s-.04,0-.06-.02l-.04-.04s-.04-.08,0-.1c.04-.04.08-.04.1,0l.04.04s.04.08,0,.1c0,.02-.02.02-.04.02Zm-.5-.52s-.04,0-.06-.02l-.04-.04s-.04-.08,0-.1c.04-.04.08-.04.1,0l.04.04s.04.08,0,.1c.02.02,0,.02-.04.02Zm-.48-.52s-.04,0-.06-.02l-.04-.04s-.04-.08,0-.1c.04-.04.08-.04.1,0l.04.04s.04.08,0,.1c0,.02-.02.02-.04.02Zm-.48-.52s-.04-.02-.06-.04l-.04-.04s-.02-.08,0-.1c.04-.04.08-.02.1,0l.04.04s.02.08,0,.1c0,.04-.02.04-.04.04Zm-.35-.58h-.04s-.06-.06-.06-.1c0-.02.02-.04.02-.06.02-.04.08-.06.1-.04s.06.08.04.1c0,.02-.02.04-.02.06.04.02,0,.04-.04.04Zm.33-.65s-.04,0-.04-.02c-.04-.02-.06-.08-.04-.1l.02-.06s.08-.06.1-.04.06.08.04.1l-.02.06c0,.06-.02.06-.06.06Zm.37-.6s-.04,0-.04-.02c-.04-.02-.06-.08-.04-.1l.04-.06s.08-.06.1-.04c.04.02.06.08.04.1l-.04.06s-.04.06-.06.06Zm.35-.6s-.04,0-.04-.02c-.04-.02-.06-.08-.04-.1l.02-.06s.08-.06.1-.04.06.08.04.1l-.02.06s-.04.06-.06.06Zm.35-.62s-.02,0-.04-.02c-.04-.02-.06-.08-.04-.1l.02-.06s.08-.06.1-.04.06.08.04.1l-.02.06s-.04.06-.06.06Zm.33-.65s-.02,0-.04-.02c-.04-.02-.06-.08-.04-.1l.02-.06s.08-.06.1-.04.06.08.04.1l-.02.06c.02.06-.02.06-.06.06Zm.33-.62h-.04s-.06-.08-.04-.1l.02-.06s.08-.06.1-.04.06.08.04.1l-.02.06s-.02.04-.06.04Zm.31-.65h-.04s-.06-.08-.04-.1l.02-.06s.08-.06.1-.04.06.08.04.1l-.02.06s-.02.04-.06.04Zm.29-.67h-.04s-.06-.06-.06-.1c0-.02.02-.04.02-.06.02-.04.06-.06.1-.06.04.02.06.06.06.1,0,.02-.02.04-.02.06-.02.06-.04.06-.06.06Zm.21-.67h0c-.06-.02-.08-.06-.08-.08s.02-.04.02-.06c.02-.04.06-.08.08-.06.04.02.08.06.06.08,0,.02-.02.04-.02.06.02.04-.02.06-.06.06Zm.12-.71h0c-.06,0-.08-.06-.08-.08v-.06s.06-.08.08-.08.08.06.08.08v.06c.02.06-.02.08-.08.08Zm.1-.71s-.02,0,0,0c-.06,0-.08-.04-.08-.08v-.06s.04-.08.08-.08.08.04.08.08v.06c-.02.06-.04.08-.08.08Zm.04-.71h0c-.06,0-.08-.04-.08-.08v-.06s.04-.08.08-.08.08.04.08.08v.06s-.04.08-.08.08Zm.04-.73h0c-.06,0-.08-.04-.08-.08v-.06s.04-.08.08-.08.08.04.08.08v.06c.02.06-.02.08-.08.08Zm.06-.69h0c-.06,0-.08-.04-.08-.08v-.06s.04-.08.08-.08.08.04.08.08v.06s-.04.08-.08.08Zm.04-.73h0c-.06,0-.08-.04-.08-.08v-.06s.04-.08.08-.08.08.04.08.08v.06s-.04.08-.08.08Zm.04-.73h0c-.06,0-.08-.04-.08-.08v-.06s.04-.08.08-.08.08.04.08.08v.06c0,.08-.04.08-.08.08Zm20.65,0s-.08-.04-.08-.08.04-.08.08-.08h.06s.08.04.08.08-.04.08-.08.08h-.06Zm-.67-.02h-.06s-.08-.04-.08-.08.04-.08.08-.08h.06s.08.04.08.08c-.02.04-.06.08-.08.08Zm-.73-.02h-.06s-.08-.04-.08-.08.04-.08.08-.08h.06s.08.04.08.08c.02.04-.02.08-.08.08Zm-.71-.04h-.06s-.08-.04-.08-.08.04-.08.08-.08h.06s.08.04.08.08c0,.04-.04.08-.08.08Zm-.71-.04h-.06s-.08-.04-.08-.08.04-.08.08-.08h.06s.08.04.08.08c-.02.04-.04.08-.08.08Zm-.73-.04h-.06s-.08-.04-.08-.08.04-.08.08-.08h.06s.08.04.08.08c.02.04-.02.08-.08.08Zm-.69-.06s-.02,0,0,0h-.06s-.08-.04-.08-.08.04-.08.08-.08h.06s.08.04.08.08c-.02.04-.06.08-.08.08Zm-.73-.06h-.06s-.08-.04-.08-.08.04-.08.08-.08h.06s.08.04.08.08c0,.06-.04.08-.08.08Zm-.71-.06h-.06s-.08-.04-.08-.08.04-.08.08-.08h.06s.08.04.08.08-.04.08-.08.08Zm-.71-.08h-.06s-.08-.04-.08-.08.04-.08.08-.08h.06s.08.04.08.08c-.02.06-.04.08-.08.08Zm-.69-.08s-.08,0-.08,0c-.04,0-.08-.06-.08-.08,0-.04.06-.08.08-.08,0,0,.04,0,.08.02s.04.12,0,.15Zm-.73-.08h-.08s-.08-.06-.08-.08.06-.08.08-.08h.06s.08.06.08.08c0,.04-.04.08-.06.08Zm-12.82-.08h0c-.06,0-.08-.04-.08-.08v-.06s.04-.08.08-.08.08.04.08.08v.06s-.02.08-.08.08Zm12.11-.02s-.02,0,0,0h-.08s-.08-.06-.08-.08c0-.04.06-.08.08-.08h.06s.08.06.08.08c.02.06-.02.08-.06.08Zm-.71-.1h-.08s-.08-.06-.08-.08.06-.08.08-.08h.06s.08.06.08.08c0,.06-.04.08-.06.08Zm-.71-.1h0l-.08-.02s-.08-.06-.08-.08c0-.04.06-.08.08-.08h.06s.08.06.08.08c0,.06-.02.1-.06.1Zm-.71-.1s-.02,0,0,0l-.08-.02s-.08-.06-.08-.08.06-.08.08-.08h.06s.08.06.08.08c.02.06-.02.1-.06.1Zm-.71-.1h0l-.08-.02s-.08-.06-.08-.08.06-.08.08-.08h.06s.08.06.08.08c0,.06-.02.1-.06.1Zm-.71-.12h0l-.08-.02s-.08-.06-.08-.08c0-.04.06-.08.08-.08h.06s.08.06.08.08c.02.06-.02.1-.06.1Zm-.71-.1s-.02,0,0,0l-.08-.02s-.08-.06-.08-.08.06-.08.08-.08h.06s.08.06.08.08c.02.06-.02.1-.06.1Zm-7.78-.06s-.02,0,0,0c-.06,0-.08-.04-.08-.08v-.06s.04-.08.08-.08.08.04.08.08v.06s-.06.08-.08.08Zm7.1-.04s-.02,0,0,0l-.08-.02s-.08-.06-.08-.08.06-.08.08-.08h.06s.08.06.08.08c0,.06-.04.1-.06.1Zm-.73-.12h0l-.08-.02s-.08-.06-.08-.08c0-.04.06-.08.08-.08h.06s.08.06.08.08c.02.08-.02.1-.06.1Zm-.71-.1h0l-.08-.02s-.08-.06-.08-.08.06-.08.08-.08h.06s.08.06.08.08c.02.06-.02.1-.06.1Zm-.69-.1s-.02,0,0,0l-.08-.02s-.08-.06-.08-.08.06-.08.08-.08h.06s.08.06.08.08c0,.06-.02.1-.06.1Zm-.73-.12h0l-.08-.02s-.08-.06-.08-.08c0-.04.06-.08.08-.08h.06s.08.06.08.08c.02.08,0,.1-.06.1Zm-.69-.12h0l-.08-.02s-.08-.06-.08-.08.06-.08.08-.08h.06s.08.06.08.08c0,.08-.04.1-.06.1Zm-3.48-.06s-.02,0,0,0c-.06-.02-.08-.06-.08-.08s.02-.04.02-.06c.02-.04.06-.08.08-.06s.08.06.06.08c0,.02,0,.04-.02.06.02.02-.02.06-.06.06Zm2.77-.04s-.02,0,0,0l-.08-.02s-.08-.06-.08-.08.06-.08.08-.08h.06s.08.06.08.08c0,.08-.02.1-.06.1Zm-.73-.1h-.08s-.08-.06-.08-.08.06-.08.08-.08h.06s.08.06.08.08c.04.06,0,.08-.06.08Zm-.69-.08h-.06s-.08-.04-.08-.08.04-.08.08-.08h.06s.08.04.08.08c-.02.06-.06.08-.08.08Zm-.79-.04s-.08-.04-.08-.08.04-.08.08-.08h.06s.08.04.08.08-.04.08-.08.08h-.06Z"/>
    <path class="cls-4" d="m39.78,17.08s-.08-.04-.08-.08.02-.08.08-.08h.02s.08.02.08.08c0,.04-.02.08-.08.08h-.02Z"/>
  </g>
  <path class="cls-4" d="m38.97,15.87s-.04,0-.06-.02c0,0-.02-.02-.04-.02-.04-.02-.06-.08-.02-.1.02-.04.08-.06.1-.02.02.02.04.04.06.04.04.04.04.08,0,.1-.02,0-.04.02-.04.02Zm-.65-.35h-.04l-.06-.02s-.06-.08-.04-.1c.02-.04.08-.06.1-.04l.06.02s.06.08.04.1c0,.04-.04.04-.06.04Zm-.65-.33h-.04l-.06-.02s-.06-.08-.04-.1c.02-.04.08-.06.1-.04l.06.02s.06.08.04.1c0,.04-.02.04-.06.04Zm-.65-.29h-.04l-.06-.02s-.06-.08-.04-.1.08-.06.1-.04l.06.02s.06.08.04.1c0,.02-.02.04-.06.04Zm-4.91.04h-.04s-.06-.08-.04-.1c0-.02.02-.04.02-.06.02-.04.08-.06.1-.04.04.02.06.08.04.1,0,.02-.02.04-.02.06s-.04.04-.06.04Zm4.27-.33h-.04l-.06-.02s-.06-.08-.04-.1.08-.06.1-.04l.06.02s.06.08.04.1c0,.02-.04.04-.06.04Zm-.65-.25h-.04l-.06-.02s-.08-.06-.06-.1c.02-.04.06-.08.1-.06l.06.02s.08.06.06.1c-.02.02-.06.06-.06.06Zm-3.27-.02s-.04,0-.06-.02c-.04-.02-.06-.08-.02-.1.02-.02.02-.04.04-.04.02-.04.08-.04.1-.02.04.02.04.08.02.1s-.02.04-.04.04c0,.02,0,.04-.04.04Zm2.58-.23h0l-.08-.02s-.08-.06-.06-.1c.02-.04.06-.08.1-.06l.06.02s.08.06.06.1c-.04.04-.04.06-.08.06Zm-.71-.19h0l-.08-.02s-.08-.06-.06-.08c.02-.04.06-.08.08-.06l.06.02s.08.06.06.08c.02.04-.02.06-.06.06Zm-.69-.15s-.02,0,0,0h-.08s-.08-.06-.08-.08.06-.08.08-.08h.06s.08.06.08.08c.02.04-.02.08-.06.08Zm-.77-.02s-.08-.02-.08-.06c-.02-.04.02-.08.06-.08.02,0,.04-.02.06-.02.04,0,.08.02.08.08,0,.04-.02.08-.08.08,0,0-.02,0-.04,0,.02,0,0,0,0,0Z"/>
</svg>