<?xml version="1.0" encoding="UTF-8"?>
<svg id="Layer_1" data-name="Layer 1" xmlns="http://www.w3.org/2000/svg" viewBox="0 0 48 48">
  <defs>
    <style>
      .cls-1 {
        fill: #e3dfe5;
      }

      .cls-2 {
        fill: #bab8c2;
      }
    </style>
  </defs>
  <path class="cls-2" d="m13.22,9.14c-.77,1.09-3.45,30.06-1.87,30.41,1.58.36,24.88,1.63,25.14.98.28-.65,1.83-31.17.22-32-1.6-.83-22.65-.58-23.5.61h0Z"/>
  <path class="cls-1" d="m11.69,8.39c-.77,1.09-1.91,30.81-.34,31.17,1.58.36,23.34.88,23.62.21.28-.65,1.83-31.17.2-32s-22.63-.6-23.48.61Z"/>
  <polygon class="cls-2" points="12.23 12.46 19.82 12.35 19.93 19.59 12.34 19.69 12.23 12.46"/>
  <polygon class="cls-2" points="24.86 37.72 12.49 37.88 12.38 30.64 24.76 30.47 24.86 37.72"/>
  <polygon class="cls-2" points="21.43 12.34 34.53 12.16 34.55 13.3 21.44 13.47 21.43 12.34"/>
  <polygon class="cls-2" points="34.58 15.53 21.47 15.71 21.45 14.57 34.56 14.4 34.58 15.53"/>
  <polygon class="cls-2" points="21.49 16.81 34.59 16.64 34.61 17.77 21.5 17.94 21.49 16.81"/>
  <polygon class="cls-2" points="27.52 20.1 21.54 20.18 21.52 19.05 27.5 18.97 27.52 20.1"/>
  <polygon class="cls-2" points="17.49 21.35 29.52 21.19 29.54 22.33 17.51 22.49 17.49 21.35"/>
  <polygon class="cls-2" points="12.36 23.69 34.66 23.39 34.67 24.52 12.37 24.82 12.36 23.69"/>
  <polygon class="cls-2" points="12.36 25.95 34.66 25.66 34.67 26.79 12.37 27.08 12.36 25.95"/>
  <polygon class="cls-2" points="34.66 29.05 12.36 29.34 12.34 28.22 34.64 27.91 34.66 29.05"/>
  <polygon class="cls-2" points="25.65 30.3 34.64 30.18 34.65 31.31 25.66 31.43 25.65 30.3"/>
  <polygon class="cls-2" points="25.69 32.52 34.68 32.4 34.69 33.54 25.7 33.66 25.69 32.52"/>
  <polygon class="cls-2" points="34.71 35.77 25.74 35.88 25.72 34.75 34.71 34.63 34.71 35.77"/>
  <polygon class="cls-2" points="30.26 38.05 25.76 38.11 25.74 36.97 30.24 36.92 30.26 38.05"/>
  <polygon class="cls-2" points="31.26 10.87 16.02 11.08 15.98 9.22 31.24 9.03 31.26 10.87"/>
</svg>