<?xml version="1.0" encoding="UTF-8"?>
<svg id="Layer_1" data-name="Layer 1" xmlns="http://www.w3.org/2000/svg" viewBox="0 0 48 48">
  <defs>
    <style>
      .cls-1 {
        fill: #f7931e;
      }

      .cls-2 {
        fill: #6796a4;
      }

      .cls-3 {
        fill: #90bfc9;
      }

      .cls-4 {
        fill: #4b687e;
      }

      .cls-5 {
        fill: #534741;
      }

      .cls-6 {
        fill: #76a5b5;
      }
    </style>
  </defs>
  <path class="cls-6" d="m30.94,40.36c-.08,1.25-3.64,2.04-7.94,1.75-4.3-.29-7.72-1.53-7.64-2.79.08-1.25,3.64-2.04,7.94-1.75,4.3.29,7.72,1.53,7.63,2.79Z"/>
  <rect class="cls-6" x="13.63" y="21.86" width="20.39" height="15.61" transform="translate(-7.35 51.47) rotate(-86.2)"/>
  <path class="cls-4" d="m32.29,20.01c-.06.85-3.59,1.31-7.89,1.02-4.3-.29-7.74-1.21-7.68-2.06.06-.85,3.59-1.31,7.89-1.02,4.3.29,7.74,1.21,7.68,2.06Z"/>
  <path class="cls-6" d="m26.67,17.4c-3.93,1.29-7.93-.14-8.94-3.2-1.01-3.06,1.36-6.6,5.29-7.89,3.93-1.29,7.93.14,8.94,3.2,1.01,3.06-1.36,6.6-5.28,7.89Z"/>
  <path class="cls-2" d="m20.69,15.87c-.8-.53-1.36-1.26-1.64-2.11-.41-1.23-.18-2.59.65-3.82.81-1.21,2.1-2.15,3.64-2.66,2.03-.67,4.14-.47,5.65.55.79.53,1.36,1.26,1.64,2.11.41,1.23.18,2.59-.65,3.82-.81,1.21-2.1,2.15-3.64,2.66-2.03.67-4.14.46-5.65-.55h0Zm8.01-7.61c-1.36-.91-3.35-1.1-5.2-.49-1.43.47-2.62,1.34-3.37,2.46-.73,1.09-.94,2.29-.59,3.37.24.74.74,1.37,1.44,1.84,1.36.91,3.35,1.1,5.2.49,1.43-.47,2.62-1.34,3.37-2.46.73-1.09.94-2.29.59-3.37-.24-.74-.74-1.37-1.44-1.84h0Z"/>
  <path class="cls-2" d="m22.08,14.56c-.54-.36-.92-.85-1.11-1.43-.28-.83-.12-1.75.43-2.57s1.4-1.44,2.43-1.78c1.35-.45,2.77-.31,3.78.37.54.36.92.85,1.11,1.43.56,1.7-.72,3.65-2.86,4.35-1.35.45-2.77.31-3.78-.37h0Zm5.24-4.98c-.87-.58-2.14-.7-3.33-.31-.91.3-1.68.86-2.16,1.57-.46.69-.6,1.45-.37,2.12.15.46.47.86.91,1.16.87.58,2.14.7,3.33.31,1.86-.62,3-2.27,2.53-3.7-.15-.46-.47-.86-.91-1.16h0Z"/>
  <path class="cls-2" d="m23.43,13.27c-.28-.19-.49-.45-.59-.76-.29-.89.36-1.9,1.46-2.27.69-.23,1.42-.16,1.94.19.28.19.49.45.59.76.12.37.08.78-.1,1.15-.25.5-.75.91-1.36,1.11-.69.23-1.42.15-1.94-.19h0Zm2.52-2.4c-.38-.26-.95-.31-1.49-.13-.83.27-1.33,1-1.13,1.61.2.59,1.08.88,1.87.62.48-.16.86-.47,1.06-.85.13-.26.16-.52.08-.76-.06-.2-.2-.36-.38-.49h0Z"/>
  <path class="cls-3" d="m16.91,19.79c-.38-.25-.56-.53-.54-.84.04-.63.88-1.03,2.65-1.26,1.51-.2,3.5-.23,5.6-.09,3.44.23,6.37.85,7.47,1.59.38.25.56.53.54.84-.04.63-.88,1.03-2.65,1.26-1.51.2-3.5.23-5.6.09-3.44-.23-6.37-.85-7.47-1.59h0Zm.15-.79s.04.08.23.21c.98.65,3.91,1.26,7.13,1.47,4.66.31,7.37-.29,7.52-.71,0,0-.04-.08-.23-.21-.98-.65-3.91-1.26-7.13-1.47-4.66-.31-7.37.29-7.52.71h0Z"/>
  <path class="cls-1" d="m24.15,24.87c-4.3-.29-7.74-1.23-7.68-2.12l-.99,14.95c-.07,1.09,3.36,2.21,7.66,2.49,4.3.29,7.85-.36,7.92-1.45l.99-14.95c-.06.88-3.59,1.37-7.89,1.08h0Z"/>
  <path class="cls-5" d="m27.85,31.72c-.16,2.43-2.14,4.27-4.43,4.12-2.28-.15-4.01-2.24-3.85-4.67.16-2.43,2.15-4.27,4.43-4.12,2.29.15,4.01,2.24,3.85,4.67h0Z"/>
  <path class="cls-5" d="m23.3,37.57c-4.3-.29-7.73-1.4-7.66-2.49l-.17,2.63c-.07,1.09,3.36,2.21,7.66,2.49,4.3.29,7.85-.36,7.92-1.45l.17-2.62c-.07,1.09-3.62,1.74-7.92,1.45h0Z"/>
</svg>